<svg xmlns="http://www.w3.org/2000/svg" viewBox="0 0 237.27 295.96"><defs><style>.cls-1,.cls-2{fill:#60c9eb;}.cls-2{fill-rule:evenodd;}</style></defs><g id="Слой_2" data-name="Слой 2"><g id="Слой_1-2" data-name="Слой 1"><path class="cls-1" d="M.11,252.89h0Z"/><path class="cls-2" d="M82,271.51l0-.12c.18.11.2.27.51.33a2.83,2.83,0,0,0,.33-1.61c-.42-.23-.53.25-.75-.16.41-1.05.25-1.89.66-2.94l0,.09.09,0,.42.16a.32.32,0,0,0,.1-.22.34.34,0,0,0-.07-.24.38.38,0,0,0-.21-.14.44.44,0,0,0-.25,0l-.13-.05,0,.11c-.18-1.06.39-2.07.38-3.05,0-.36-.37-.77-.38-1.08-.06-1.58.77-2.79,1.1-4.5.39-2-.32-4.24.49-6.21,1-2.38,3.15-3.51,4.26-6.07l.12.12h.15c.09,0,.16.08.1.17.49.15.55-.61,0-.7l-.09.23-.11-.11h-.16c.27-.73,1.61-1.29.62-2,.09-.41.69.05.69-.53-.68-1.26,1.12-2.32.51-3.4.12-.37.56-.16.59-.7s-.65-.46-.46-.83c1.54-.31-.56-2.3.44-2.79-.09-.29-.82-.05-.73-.55,1,0,.76-1.82.8-2.49-.54-.42-.66.22-.87-.22-.24-.78.6-.39.73-1.05.08-.26-.26-.39-.6-.5.53-.95.61-2.32,2-2.81,0-.33-.51-.78.08-1,.74-.15,0,.89.89,1,1.08-1,.1-2.15-.64-2.91.22-.53.73-.52.92-1.11-.4-.39-.79-.19-1.21-.6-.43-1.17-1.88-2-1.75-3.35-1.13,0-1.09-1.39-2-1.73s-2,.69-3,1.22-2,1.2-2.85,1.55a21.77,21.77,0,0,0-2.81,1.06c-2.69,1.71-5,6.27-6.54,9.45-.63,1.27-.18,2.26-.43,3.17-.53,1.94-2.31,3.42-3.31,4.43-1.08-.77-.28-1.92-.27-3,0-.52-.44-1-.39-1.48.21-1.61,1.24-2,2.69-2.82,0,.15.34.31.42.16a14.08,14.08,0,0,1,1-2,1.05,1.05,0,0,0-.6-.1c.26-.38.42-.93.77-1.16-.12.24,0,.41.28.51.22-.6.61-.87.76-1.57-.15-.31-.48,0-.45-.45.29-.15.51.43.78,0,.41-.83-.2-2,1.32-2.16.3-.34,0-.45-.43-.56.34-.39.85-.45,1.15-.89a1,1,0,0,1-.18-.41,1.13,1.13,0,0,1,0-.45c.53-.8,1.81-1.16,1.31-2.15,0-.45.49.08.46-.36s-.21-.6-.28-.92c1-.74.31-2.1.57-3.11s1.07-1.83,1.39-2.79c-.48-.37,0-1.07-.2-1.54.31-.15,1.12,0,.87-.6.06-.48-1,0-.6-.5.94-.94.07-2.78,1.45-3.72.08-.33-.78-.34-.52-.73.07-.43.81-1,1-1.86a2.74,2.74,0,0,0,1.34-.55c.7-.59,2.09-3.22,1.3-3.76-.59.05-.84.72-1.52.61,0-.27-.25-.45-.56-.62,1-1.7.24-2.82.73-4.38-.9-1.68-3.76-.92-4.66,0s-.41,2-.71,2.65a2.42,2.42,0,0,1-3,1.22c-2.31-1.07.55-2.91.87-3.93.23-.73-.4-1.5.62-2.42-.55-1.07-.12-2.53-1.2-3.53-2-1.89-3-.79-4.57.22a46.73,46.73,0,0,1-4,2.56c-1.87.92-3.87,1.4-5.32,2.59-.58.47-.9,1.32-1.69,1.88a6.23,6.23,0,0,1-2.67.69c.42-.68,1.19-.75,1.45-1.7-.5-.9-.82-3-.31-3.72.32-.47,1.31-.49,1.64-.94.43-.6,0-1.4,0-2.13-3-2.41-5.62-.5-8.22.13-.57.14-1.32,0-1.85.22-2.7.86-4.35,3.21-6.86,4.92a22.71,22.71,0,0,0-4.39,3.49c-.4.51-.38,1.09-.72,1.45s-.75.24-1.14.49c-1,.6-1.63.91-2.48,1.44A15.65,15.65,0,0,0,31,203.22c-.18.19-.28.93-.72,1.45-.21.27-1,.68-1.65,1.36a10.15,10.15,0,0,1-1.45,1.7c-1.15.68-2.47.37-2.42-.81.08-1.59,2.71-3,3.38-3.35,1.18-.64,1.93-1.58,2.88-2.08l.12.12h.16l-.14.35c.46,0,1.12-.35,1-.82l-.28-.11-.14-.06-.14-.05a17.09,17.09,0,0,1,7.27-6l0,.11.14.06a.57.57,0,0,0,1.05-.24.91.91,0,0,0-.6-.1l0-.12-.14-.06c.18-.34.56-.29.82-.47l.11.12h.17l-.09.23.42.16.13-.34-.42-.17.1-.1,0-.14a.56.56,0,0,1,.18-.25.48.48,0,0,1,.28-.1l.11.11h.16l-.09.23a3.29,3.29,0,0,0,2.2-1.55l-.42-.16.1-.1,0-.14c.37-.7,1.21-.58,1.6-1.25l.05.09,0,.08c.41.23.65.15.73-.24l-.42-.16.09,0,0-.09c.54-.46,1.48-.19,2.12-.5.59-.79-.37-1.06.32-1.62.33.39,1.32.27.49-.48.86.76.53-.47,1.38-.27.29-.29.2-.84.72-1.05-.16.16.59.45.56.22-.13-.62.5-.72.77-1.17.47.08,0,.47.61.51,0-1.23,1.21-.95,1.87-1.94.51,0,0,.42.46.46.71-.78,1.38-1.64,2.43-1.32-.31-1.13-.24-2.39-1.88-2.59-.63-.09-3.15,1.5-3.85,1.69l0-.11-.14-.06c0-.22-.14-.35-.46-.46a.33.33,0,0,0-.1.23.34.34,0,0,0,.07.24.36.36,0,0,0,.21.13.32.32,0,0,0,.25,0l0,.12.14.06c-1.32,1.68-2.46,3.69-4.59,3.94a1.77,1.77,0,0,1,.07-2.25c.45.1.19.94.69.69,1-.23-.28-.64,0-1.2.61-.56.62.5,1.31.37.13-.42-.81-.48-.62-.91.37,0,.46-.49.92-.31.66.06-.28.63.38.69-.2-1.33,1.14-2.22,2.14-3,0-.18-.33-.23-.15-.46,1.14-.34,1.06-1.79,2.11-2.1.13-.44,0-.52.31-.81a1.91,1.91,0,0,1,1.05-.24c.11-1.88,1.89-1.06,2.45-3.05.26-.25.17.48.56.22,0-.69.55-.8,1-1,.82,1.28-2.18,4.91,0,5.45.51.13.93-.14,1.15-.89l.14.06,0-.12c.17.11.2.27.51.34l.18-.47a1,1,0,0,0-.6-.1l.05-.12-.14-.05c-.11-.3-.34-1.09,0-1.2,0,.26.65.28.65,0,.28-.29-.23-.33-.46-.46.09-.44.61-.1.69-.54.08-.78-.37-2-.3-2.51,0-.15.37-.37.36-.53-.06-.5-.53-.77-.48-1.25a2.35,2.35,0,0,0,.37-.52c.3-.61-.05-1.42.81-1.69-.53-.63-.48-.81.07-1.43-.62-.37-.67-.92-.89-1.42-1.24-1.48-3.77-1.49-5.94-2.45a9.08,9.08,0,0,0-1.21-.6c-1.35-.28-2.51.65-3.51.37l0-.12-.14-.06c.5-1.64-2.68-1.93-3.61-2.19s-1.73-1-2.46-1.09c-1-.18-2,.48-3.31.72-.36.06-.76-.12-1.11,0-2,.42-3.3,2-5.24,1.15-4.33,2-8.58,4.06-13.85,4.34-.53-.12-.47-.38-.92-.49-.44.72-1.38.55-2.27.44l-.07-.13-.16-.09c.75-.93,2.61.12,3.27-1l-1-.38.11-.1,0-.15a31.78,31.78,0,0,1,6.26-1.29l-.05.12.15,0a4.76,4.76,0,0,1-2.3,1c0,.1-.09.23,0,.29,1.28.37,2.92-.34,2.76-1.33l-.28-.11.09,0,0-.09c1-.81,2.57-.66,3.68-1.23l0,.12.13.06-.13.34c.64.48,1.52-.41,1-.82l0-.12-.14-.05a.38.38,0,0,1,.37-.12l.11.11h.17l-.09.24a1,1,0,0,0,.6.1l-.05.11.14.05c.14.06.15.15.23.23.75-.64,1.7-.23,2-1.36,1.28.21,1.9-.79,2.94-1,.13-.21-.1-.3-.15-.45l.14.05,0-.12c.11-.62,1,.11.73-.65-.47-.32-.38.35-.83.08.71-1.23,2.86-1.52,4.6-1.54l0,.12.14.05a.75.75,0,0,0-.25.22.68.68,0,0,0-.11.31l-.1.1,0,.14c-.29,0-.57,0-.64.42.45.23.81.27.87-.19l.11-.1,0-.14c.5,0,1,0,1.14-.5-.25-.19-.41-.58-.79-.44l0-.12-.14,0c.4-.32,1.18-1,1.66-.55-.2-.07-.25.25,0,.28a3.92,3.92,0,0,1,2-.67c.3.41-.8.85-.17,1.26.92.09,1.49-.45,2.2-.74a3.84,3.84,0,0,1,0-1.72,6.8,6.8,0,0,1,.63-1.62c-.08-1-1.83-1.54-1.69-2.66l-.07-.07,0-.08c.54,0,.11-.86-.24-.63a.52.52,0,0,0,0,.4l-.14-.06,0,.12c-.18-.11-.2-.27-.52-.33s-.1.54-.55.18c-3.93-2.09-7.2,1.07-11.26.15a13.81,13.81,0,0,1-4.19-1.62c1.63-.07,3.43.16,4.51-.91-1.8-.74-3.62.15-5.64-.33.64-.21.76-.17.69-.93,1.58.63,3.52-1.59,5-1.39,1.71.23,4-.26,5.54.17.41.11.84.5,1.21.6,1.35.39,2.66,0,4,.09.38,0,.83.31,1.16.32s.7-.29,1.19-.2c1.93.33,3.05,1.19,4.87,1.5a8.42,8.42,0,0,0,3-.42c.63-.07,1.14.22,1.57.08a13.91,13.91,0,0,0,4.45-2.4c1.08-.86,2.32-2.47,3.86-2.1a2.72,2.72,0,0,1,1.77,2c0,.9-1.33,1.29-1.86,2.34-.72,1.43-.13,2,.68,3.19,3.22.71,7.14,1.29,8.19-1.74-1.79-1-2.26-2.47-3.91-3.52-1-2-1.64-4.17-4.41-5.58-.34-1-1.33-1.78-1.28-2.91-1-.45-.89-1.21-1.22-1.8-.11-.2-.46-.3-.61-.5-.32-.44-.23-1.07-.43-1.37a6.39,6.39,0,0,0-1.77-1.63c-.85-.3-2.14.41-3.05.42-.21,0-.48-.24-.69-.28-.67-.07-1.47.18-2.13.12-1.42-.14-3-.94-4.06-.26a1.62,1.62,0,0,1-.64.82c-1-.24-2.12-.83-2.33-1.84.53.29.57-.29.73-.65.72.12,1.29,0,1.47-.89-.8-.75-3-1.21-4.49-1.22-.88,0-2.1.68-2.58.46s-.33-1.05-.8-1.24c1.14-.24,2.69.26,3.36-.82-1-.44-1-1.41-2-2-1.91-1.14-2.88-.6-4.71-.64s-3.2-.48-4.25-.19c-2.18.61-4.05,2.51-5.86,3.18.59.94,1.46.26,2.31.23,1.23,0,2.93.42,3.88.31-1,1.1-3.23.08-4.47.8-1.07-.67-1.11.1-1.9-.48-1,.93-3,0-4.53.1C21.29,123,17.37,124,14,123.1c-3.14.16-6.16,1.59-10.11-.33l.14,0,0-.12a.31.31,0,0,0,.25,0,.29.29,0,0,0,.16-.2l-.69-.26-.14.35,0-.09-.09,0a3.88,3.88,0,0,1-.73-.55,3.12,3.12,0,0,1,2.4-4.13,31.7,31.7,0,0,1,9.41-.74c1.55-1.25,4.54-2.19,6.23-3.69,1.39-1.25,2.51-3.31.69-4.67-.76-.57-1.54-.56-2-1a6,6,0,0,1-.47-.86c-.76-2.28,1.84-3.6,3.08-4.66.82-.69,1.43-1.65,2.15-2.22.2-.16.59-.18.77-.37,1-1,1.57-2,2.59-2.58,1-.33,2.06.21,2.95-.19.38-.17.63-.82,1.05-1.05.58-.33,1.38-.09,1.56-.73.84.34,1.67-.26,2.68-.29.29,0,.57.25.86.22s.68-.38,1.11-.37c.72,0,1.51.52,2.18.58,1.89.18,2.68-.84,3.59-2.22a2,2,0,0,0-1.86-1C41,90.79,39.34,90.83,38,90c-.24.69-1,.35-1.57-.08,0,.15.16.56-.29.29-1.05.52-2.41-.17-4-.49-1.4-.27-2.86,0-3.93-.19-1.74-.25-2.24-1.29-3.39-1.59.6-.38-.26-.66-.75-1-.53,0,.37.67-.31.41-.73-.08-.32-.57-1-.67.05.55.15.55-.49.49l.05-.11L22.21,87a.56.56,0,0,0,0-.12l.09-.23a.91.91,0,0,0-.46-.05l-.09.24,0,.12.14.05c-.17.24-.74-.28-.93-.09L21,86.8l-.15,0c.13-.32-.54-.54-.79-.45l0,.12L20,86.34l-.09,0c-.6-.32-1.81-.37-2.07,0,.29-.77-1.42-.42-1-1.07.74-1,2.64-.06,4.06.26a32.23,32.23,0,0,0,6.63,1.11c1.44,0,2.53-.23,3.46-.24,2,0,3.81.58,4.13,1.74,1.65,0,3.37.84,5,1.13.39.08.72-.08,1.12,0s1,.57,1.48.71a8,8,0,0,0,.83-.08c2.08.3,4.07,1.32,5.74,1.31.36,0,.68-.26,1-.25s.81.29,1.17.32,1.17-.12,1.79-.1c1.94,0,2.39,0,3.59-1a9.72,9.72,0,0,1,2.29-1.77c1.35-.49,2.15-.22,3.73-.54,3,1.52,1.74-2.06,2.42-2.92-.35-.16-.48-.38-.38-.68,2-5.41,5.65-7.77,12.46-4.48A9.8,9.8,0,0,0,80,82.49c1.33-2.33,3.55-6.51,2-9.35.6-1.47.72-2.92,1.76-4.12.73-.85,2.14-1.4,2.41-2.92.38-.27.94-.08,1.38-.26.73-.3.91-1,1.51-1.41.31-.23.85-.26,1.14-.5,1.37-1,2.33-2.46,4-2.85a7.69,7.69,0,0,1,2-1.76A4.3,4.3,0,0,0,94.58,58c-1.16-.51-2.36-1.27-3.44-1.87-1.62-.91-4.24-2.37-5.89-2.56-5.66-.67-12.15-1.26-18-3.55-.56-.08,0-.52-.55-.61-.29-.06-.29.4-.7.12-.78-.84-1.37-.14-2.32-1l.1-.1,0-.15c1-.35,1.92.35,3,.5.92.14,1.93-.19,2.91-.06.46.06.85.33,1.3.37,1,.09,2-.14,3.18,0,.35,0,.76.36,1.11.43.73.15,1.48,0,2.18.18A57.09,57.09,0,0,1,88.2,53.82c1.77.81,3.5,1.27,5.47,2s4.7,2.27,6.26,2.44c1,.11,2-.55,2.64-.59,1.44-.07,4.59,1.26,5.77.79a2.38,2.38,0,0,0,1.17-3c.36-1.3,1.33-2,1.95-3,.23-.37.11-.93.35-1.32s1-.53,1.28-.84.79-1,1.23-1.52a17.27,17.27,0,0,0,1.38-1.46c.31-.62.31-2.62-.56-3.14a7.61,7.61,0,0,0-1.68-.26c-3.39-.61-6.58-1.13-9.55-3.46l0-.08-.05-.08c.73.19,0-.83-.14-.06l-.09,0,.06.06c-1.1-.19-.8-.87-1.45-1.23-.36.28-.62-.14-1.06-.14-.63,0-1,.45-1.66.55a8.58,8.58,0,0,1-4.72-.64c-.84-.45-2.52-2.08-1.46-3.64A5.47,5.47,0,0,1,95.68,34,5.9,5.9,0,0,1,100,35.2c.94.86.84,2.38,1.84,3.12,2,1.44,4,.49,5.51,1.08s2.31,2.55,4.18,2.83c1.12.17,2.06-1.06,3-1.22.4-.06.86.25,1.21.2a3.28,3.28,0,0,0,2-1.48c.1-.19,0-.68,0-.8.21-.81,1.36-2,1.76-2.91.11-.25,0-.58.12-.77.4-.48,1.63-.63,2-1.36a4.59,4.59,0,0,0,3.87-.9c.89-.61,2-1.29,3.16-2,1.56-.91,2.06-1.82,3.54-2.89A12.63,12.63,0,0,0,134,27c.61-1.26-1.24-3-1.34-4.39a3.1,3.1,0,0,1,.21-1.38c1-2,3.61,1.36,4.22,1.91-.07,1.42,1.35,2.72,1.94,4.09.36.82.3,1.47.92,2.2a9.74,9.74,0,0,0,1.54,1.4c1,0,1.49-1,2.19-1.54a1.16,1.16,0,0,1-.65-.39c-.2-1.3-.87-2.36-1.11-3.76a30.72,30.72,0,0,1,0-6.14c0-.79,0-2.29.06-2.64a2.23,2.23,0,0,0,.5-.47c0-.19-.46-.57-.45-.84,0-.42.45-1,.4-1.44s-.41-.41-.34-.8a39.7,39.7,0,0,0-.5-7.39c0,.1.07.18.23.23.24-.75-.14-.5-.33-.79a3.59,3.59,0,0,1-.76-1.36c-.12-.72.57-4,1.63-3.37,2,1.3.25,5,0,7-.13,1.19.45,2.26.5,3.25.06,1.38-.19,2.77,0,3.73.09.45.52.87.63,1.32a14.24,14.24,0,0,1,0,1.72c0,.34.33.72.38,1.08.13.77-.15,1.54-.06,2.24,0,.38.45.76.51,1.15a16.48,16.48,0,0,1,0,2.81c0,1.69-.51,3.21.33,4.53,1.15-.47,2.76-.15,4.29.07,1.68,2.32,6.16,1.43,7-.73-.34-.62-.79-1.55-.12-2.18-.73-.73-.57-1.76-1.28-2.5-.18-.32.17-.17.22-.58-2-.54-2.71-5-.56-4.35a3.85,3.85,0,0,1,1.46,2c.23,1.43-.9,3.14.32,4.13a7.56,7.56,0,0,0,5.77-.42,5.22,5.22,0,0,0,1.71-1.06c.25-.31.23-1,.54-1.39s.6-.38.74-.65c.92-1.81.69-4.8,1.77-5.84.17-1.06-.28-4.43,1.61-5.37a3,3,0,0,1,2.21.06c.88.5.8,1.82.73,2.67-.1,1.06.24,2.56,0,3.44-.51,1.58-2.46,2.35-2.91,3.8-.21.7.21,1.51.16,2.07-.16,1.58-1,2.78-.69,3.86s1.47,1.39,2.15,2.7a4.42,4.42,0,0,1,.27,2.64c-.2,1.27-1.08,1.55-1.41,2.38a10,10,0,0,0,.12,2.58,4.24,4.24,0,0,0,.4,2.29c.88,1.8,5.4,2.43,6.58,1.63.39-.26.34-.85.58-1.11a6,6,0,0,1,2.25-1.26c.53-.16,1.43.09,2.16-.22A14.14,14.14,0,0,0,182,36.49a5.53,5.53,0,0,0,2.05-2.39c.56-.3,1.29-.3,1.63-1a2.92,2.92,0,0,1,1.95.75c.55,1.33-.64,2-.89,3.13a4.29,4.29,0,0,0,.35,2c.2.65.8,1.39.9,1.82s-.23.5-.13.75c.19.45.79.79.8,1.25,1,.51,1.09,1.43,2.1,2,.7.4,1.59.35,2.27.76s.85,1.35,1.65,1.58c1,0,1.8-1.75,2.79-2.25.71-.36,1.82-.11,1.23-1.12,1.74-1.09.29-2-.12-3-.09-.19.16-.48.11-.75-.1-.63-.47-1.06-.39-1.49a3.72,3.72,0,0,1,2-2.4c-.39-.32-.24.34-.64,0,.47-1,1.12-1.88.2-2.59a3.75,3.75,0,0,1-3.74.14c-.48-1.3-.36-2.3,1.08-2.79.74-.25,1.36.22,1.71-.27s-.41-2.17-.4-3.09c.06-3.37,3.5-5.05,6-5.25a3.51,3.51,0,0,1,1.58.48c1.29.65,3.72,1.94,4.38,2.77s.44,1.45.87,2.35c.34.74,1,1.42,1,2a5.49,5.49,0,0,1-.94,2.84c-.59.86-2.66,1.36-2.78,2.64-.1,1,2,2.63,1.9,4.2-.06.87-.68,1.42-.53,2.2.25,1.26,1.88,3,2.65,3.94l.83.32c2.17,3.1,3.2,6.59,4.46,10-.78,1.42.52,2.49-.26,3.61a17.59,17.59,0,0,1,.61,5.43c-.05.55-.4.89-.31,1.21a25.91,25.91,0,0,0,1.65,3.59,11,11,0,0,1,.47,5c-.06.35-.41.71-.4,1,0,.81.87,1.41.95,2.11a4.46,4.46,0,0,1-.29,2c-.21.4-.76.43-.83.88-.13.87,1.39,2.85,2.12,3.63a10.36,10.36,0,0,0,2.74,1.6,44.53,44.53,0,0,1,4.75,3.46,13.68,13.68,0,0,1,3,2.11,14.37,14.37,0,0,1,1.65,2.77,16.92,16.92,0,0,1,.76,2.17c.1.45-.15.88,0,1.32s.74,1,1,1.58c.31.69.41,1.38.62,1.72.41.67,1,1,1,1.46-.05,1.57-1.73,2.38-2.87,2.88-.45-.21-.67,0-1.17-.32-.28.08-.59.11-.77.36-2.64-.84-3.86.7-5.67,1-.62.09-1.61-.14-2.53-.06-.54.05-1.06.33-1.57.32a15.5,15.5,0,0,0-3.33-.09,23.71,23.71,0,0,0-4,1.24c-.7.29-2.44.91-2.79,1.44-1.17,1.73.59,3.44,1.66,4.38a12.64,12.64,0,0,1,1.48,1.1,4.59,4.59,0,0,1,.68,3.6,2.39,2.39,0,0,1-2.1,1.31c-2.21-.27-3.09-3-4.35-4.49-1.82-2.13-4.36-1.4-5.78,0-.15.16-.12.51-.27.69-.93,1.21-2.51,2-2.79,3.44a10.31,10.31,0,0,0-1.43.37c-.27.37,0,.53-.17.87-1.44.09-1.95,1.85-3.25,2.2,0,.38.43.66.57,1-.23,1-1.29,1.78-1.55,2.73-.35,1.34.14,2.89-.18,4.19-.46,1.9-2,3.61-2.71,4.94-.36.64-.22,1.25-.49,2.09-.21.66-.73,1.21-.91,1.92a17.42,17.42,0,0,0-.19,3c-2.62,2.31-.33,4.67-.28,7,0,1.78.82,3.86.84,5.65.41.27.45.66.75,1,.13,1.81-.21,3.14.33,4.52.4,1,1.43,1.53,2.11,2.42.46.61.44,1.46,1.17,1.92-.09.68.57,1.22.76,1.76.09.26-.17.53-.12.77s.36.36.43.56-.05.6,0,.81a8.43,8.43,0,0,0,2,3.05c1.43,1.42,1.06,2.09,1.38,3.86.09.5.37.93.43,1.38a10.55,10.55,0,0,1,.07,1.49,26.72,26.72,0,0,1,.12,3c-.18,1.55-1.22,2.77-1.79,4.23-.29.74-.1,1.62-.86,2.2-.28,6.31,4.75,10.84,6.24,16.56a6.55,6.55,0,0,1,1.15,2.62,6.47,6.47,0,0,1-.07,2.87c-.87,3-4.82,3.77-7.74,1.38-.81-.66-2.66-3-1.7-3.46-1.14-.86-.94-2.17-1.83-3.12.14-.39,0-.65.26-1.1-.92-1.74-.74-3.85-1.86-5.53.62-1.15-.11-1.82-.4-2.68.64-.77,0-1.49.67-2.56a29.46,29.46,0,0,1-1.25-4.62c-.12-.82-1-1.59-1.33-2.38s-.32-1.93-.62-2.91c-.25-.77-.77-1.41-1-2.1s-.07-1.48-.22-2.36a26.08,26.08,0,0,0-1.2-4.34c-.47-1.28-.79-2.51-1.2-3.53a4.47,4.47,0,0,0-3.26-2.74c-6.18-1.39-5.64,8.38-5.55,11.44.39.17.5.44.89.61.9,2.56,2.48,6.17,1.63,9.43a10.14,10.14,0,0,1-1.3,3.36c-.69.9-2.28,1.32-2.36,2.8a24.89,24.89,0,0,1,1.09,2.56c.07.3-.2.58-.17.86.17,1.57,1.44,3,2,4.26.29.6.22,1.32.53,1.94.53,1.08,1.57,1.57,2.52,2.58a14.75,14.75,0,0,1,2.07,3.74,18.71,18.71,0,0,0,1.25,4.21,44.53,44.53,0,0,1,1.75,4.16c.4,1.26.51,2.59.83,3.65.62,2,.5,4.1,1.78,6.16-.36,1.22.59,1.91,1,2.79a14.76,14.76,0,0,1,.33,1.61c.58,1.48,1.34,3,1.85,4.72a21.23,21.23,0,0,0,2,4.77c.51.85,1.17,1.31,1.45,2,.21.56,0,1.25.35,2,.11.29.51.51.65.79.83,1.48,1.13,3.24,1.94,4.52.61.92,1.92,1.92,2.35,3.05a13.44,13.44,0,0,0,.34,2c.5,1.14,1.77,2.69,2.5,4.3.12.27.14.64.28.92,1.06,2,2.68,4.09,1.36,6.39-.72,1.26-2.33,1.86-4.56.61-2.43-1.35-2.47-4.35-3.45-6.81-.35-.89-.82-1.67-1.14-2.43s-.43-1.73-.77-2.57c-.48-1.28-1.46-2.6-2-4s-.63-2.56-1.25-3.82c-.1-.22-.45-.41-.55-.62-.72-1.41-.91-3-1.49-4.45-.48-1.22-1.3-2.38-1.65-3.58-.16-.53,0-1.11-.15-1.66-.22-.71-.56-1.39-.77-2.17a25,25,0,0,0-1-3.18c-.36-.85-1.26-1.67-1.74-2.55a30.41,30.41,0,0,0-2.06-3.35c-.23-.33-.29-.77-.5-1.15-.74-1.19-2.09-2.19-2.76-3.2-.8-1.2-1-2.91-2.4-3.74a9.65,9.65,0,0,0-1.3-.37c-3.43-1.39-5.16-3.87-7.16-5.87.23-.31-.11-.44.12-.76-1.34-1.6-1.59-3.59-2.42-5.34-.3-.21.65-.64,0-.92-.38-.26-.39.19-.68.13-.14-1.66-1.74-1.61-3.07-2-.79-.23-1.8-1-2.74-1.2-.51-.13-.8,0-1.2-.2-1.1-.59-2.28-2.6-2.76-3.21-.27-.34-.71-.52-.84-.73-.42-.63-.33-1.29-.76-1.76a9,9,0,0,0-5-1.95c-2.52.13-2.72,2.87-2.67,4.82,0,.62.3,1.22.3,1.72,0,.29-.29.45-.27.69.07.82.53,1.54.39,2.29-.06.34-.38.57-.49.87-.41,1.09-.34,3.12-.58,4.45-.18.88.8,1.87.73,2.67.63.19.6.6,1.11.83.55,1.34.43,2.37,1.34,3.58s2.79,2.2,3.13,3.49c.55,2.06-2.09,4-2.66,6-.13.47.09,1-.12,1.55-.44,1.14-2.18,2-3,3.22-.62.9-1.23,1.43-1.22,2.33a18.81,18.81,0,0,0,1,4.51c.1.21.42.22.46.46.39,1.76-.16,2.9-1.8,4.23a12.85,12.85,0,0,1-2.27-.75c-.91-1.67-2-3.31-2.88-5a3.62,3.62,0,0,0-.07-1.67,3.58,3.58,0,0,0-.8-1.47,2,2,0,0,0,.23-1c-.82-1.81-2.64-3.29-2.75-5.33-1.27-.77-1.06-2.92-2.77-4-.51-.33-2.06-.77-2.54-.46-.66.42-1.09,3.86-1.1,4.5,0,.45.34.82.34,1.2,0,.55-.49,1-.63,1.62-.38,1.76.18,3.42.24,5.16,0,1.44-.35,2.88-.37,4.25,0,1,.37,2.07.26,3-.08.72-.48,1.2-.52,1.81s.16,1.13.16,1.66a24.28,24.28,0,0,1-.18,3.41c-.17,1.65.41,3.46.43,5.09,0,.82-.38,1.56-.43,2.36,0,.62.21,1.31.21,2s-.33,1.45-.34,2.13c0,2,1.32,4.33.95,6.64-.34,2.07-1.09,3.78-1.09,5.31s.85,2.54.87,3.54c0,1.54-.73,5.08-2.07,4.52-.84-.34-1.33-4.17-1.17-4.85.24-.95,1.2-1.65,1.5-2.62.79-2.64-2.18-5.51-1.3-7.83.26-.68,1.09-1.09,1.46-1.7a11.8,11.8,0,0,0-.45-3.37c-.28-1.51.29-2.66.37-4.25.05-1.14-.67-2.61.24-3.51a11.54,11.54,0,0,1,.07-5.57c-.71-4.52.19-9.44-.26-13.81.08-.51.6-.22.64-.82.11-.34-.52-.43-.34-.8a7.77,7.77,0,0,0-.23-4.35c.87-.87.37-2.15.38-3,.14-.21.64.23.6-.31.24-.48-.64-.59-.57-1,1.59-.12.24-1.7.52-2.59s1.58-.61,1.09-1.57c-.68-.58-.51.39-1,.14.69-1.34-.34-2.24-1.15-3.25-.41-.51-.58-1.19-.94-1.7a17.27,17.27,0,0,0-2-2c-.83-.83-1.27-1.67-1.78-2a7.59,7.59,0,0,0-3.52-1.24c-.83.08-.83.69-1.47,1.3s-2.16,1.1-2.46,2.23c-.29,0-.8-.49-.79,0,.7.87-.22,1.66-.62,2.42-.58-1.1.37-2.57.65-4.14.55-.17.77.73,1.3.37a3,3,0,0,1-.32-1.46,2.92,2.92,0,0,1,.47-1.42c-1-.15-.65-1.42-1.37-1.86a2.55,2.55,0,0,0-2.71.41,12.23,12.23,0,0,0-.8,2.09c-2.29,5-5.2,10.88-6.14,15.87-.27.17-.83-.18-1,.14a21.35,21.35,0,0,0-4.7,3.89,16.22,16.22,0,0,0-2,2.17,18.89,18.89,0,0,0-1.12,2.89,33.47,33.47,0,0,1-2.21,4.08c-1.79,2.93-5,4.86-5.81,8-.09.32,0,.71-.09,1-.45,2-1.55,3.91-2,6.3-.3,1.78-.47,4.39-1.18,5.92-.57,1.26-1.81,2.43-2,3.91-.06.71-.25,1.64-.33,2.53-.15,1.4.08,2.88,0,4.25-.17,1.81-.74,3.5-1,5.19-.16.88-.13,2.18-.29,3.22-.29,1.89-.76,3.85-.91,5.65a23.8,23.8,0,0,1-.36,4.65,5.34,5.34,0,0,1-1.72,2.8c-.44-.73,0-1.22-.71-1.47-1.86-.68-1.06,4-3,3.5-1.41-.36-.26-2.51-.18-3.26.12-1.22-.47-2.47-.27-3.44.39-2,3.26-3.26,2.92-5.92,0-.37-.51-.78-.56-1-.25-1.4.83-1.72,1.37-2.66a24.94,24.94,0,0,0,1.29-4.16c.45-1.39.69-2.77,1.06-4ZM5.12,121.76a.41.41,0,0,0,0,.19.4.4,0,0,0,.14.15c1.91.43,2.74-1.09,4.42-1.08C8.1,120.31,6.32,121,5.12,121.76Zm6-1.12c1.23.39,3.55,1,4.44.13a6.24,6.24,0,0,0-4.44-.13Zm4.36-3.38a2.44,2.44,0,0,0,2.35-.69,2,2,0,0,0-1.29,0,2,2,0,0,0-1.07.74ZM28.6,88.39c-.11.17,0,.25,0,.41,1.06-.19,2.59.47,3.42-.14-1.05-.68-2.4-.29-3.42-.27Zm1.29,28.5c2.24.11,3.83-2,4.47-4.11-1.47-.83-1.69.56-2.61,1.77S30.33,115.85,29.89,116.89ZM42.7,94.55l-.08.23.27.11.09-.23ZM20.57,164.16a1.51,1.51,0,0,0,1.94-.45,1.5,1.5,0,0,0-1.06-.15,1.47,1.47,0,0,0-.88.6Zm5.53-.65c-.33.26.5.58.42.16-.14,0-.29-.09-.42-.15Zm.82-.88-.13.35c.21.12.28,0,.46.05l.09-.24Zm1.14-.49c.58.24,1.12.44,1.2-.2-.58-.28-1.05-.33-1.19.21ZM44.45,125.6l-.08.23.27.11.09-.23a2.63,2.63,0,0,0-.3-.08Zm6.88-14.51c1.24.3,1.83-.75,2.67-1.09s2.36-.23,2.61-1.38C53.85,105.57,51,107.86,51.33,111.09ZM41.13,147l-.13.34.41.17.14-.35Zm7.14-17.61c-.05.11-.09.23-.14.34l.42.17.14-.35Zm-8.63,28.09-.13.35.41.16.14-.35Zm5.17-11.31-.08.23.27.11a2.44,2.44,0,0,1,.1-.24l-.27-.09ZM43,156.34c-.14.33.86.72,1,.38.28-.58-.77-.65-1-.37ZM26.36,205.85c.47.26.55-.18.68-.53a.66.66,0,0,0-.43.15.7.7,0,0,0-.24.39Zm21.76-51.22c-.16.22.11.3.32.39a.38.38,0,0,0-.09-.25.43.43,0,0,0-.23-.14ZM34.75,198.71c.45.2.59-.11.78-.36-.49-.25-.65,0-.81.36ZM105.28,40.4l-.13.34.41.16c.12-.21,0-.37-.28-.47ZM54.12,178.83l.28.11C54.76,178.42,53.74,178.43,54.12,178.83Zm1,6.11c-.26.38.49.7.56.21-.38-.13-.2-.29-.55-.2Zm4.37-5.9c.51.1.9,0,.82-.47-.59-.42-1,.09-.82.48Zm-1.58,7.79.14,0c-.59.13.49.55.15.05l0-.11-.14-.06c1.11-.31,3.54-.63,4.42.55.47-.25,1.45-.48,1.28-1.24l.14.06,0-.12.14-.34-.28-.11-.14.34-.09,0,0,.09c-.42-.17-.63,0-1,0-.23-.23.5-.4.5-.87-1.37-2.18-5.1-1.61-5.17.92-.35,0-.56.45-.07.64Zm15.78-34.11c-.42.67.62,1,1,.67C74.91,153,74,152.63,73.68,152.72Zm1.29.37.7.27c.24-.35-.07-.51-.38-.68a.91.91,0,0,0-.21.18A.7.7,0,0,0,75,153.09Zm.5,42.95-.09.24.28.11.09-.23A.53.53,0,0,1,75.47,196Zm-5.19,37.83c-.18,0-.25.25-.13.35s.48-.28.13-.33Zm23-11.33c1.13.76,1.1-.45,2.16-.22.43-.43-.49-.44-.33-.8.4-.66,1.4-.15,2-.68,1-.84.81-2.74.51-3.79a2.58,2.58,0,0,0,.71-2.66c-1.43,0-1.19,1.39-1.63,2.57-.69,1.89-2.88,4-3.44,5.62Zm5.94-1.28c1.31-.58,1-3,1.33-4.28-.73-.08-1.06.58-1.89.33.39,1.29.21,2.72.56,4Zm-13.39,32.1a.37.37,0,0,0,.21-.16.43.43,0,0,0,.08-.24.44.44,0,0,0-.08-.25.42.42,0,0,0-.22-.15c-.27.13-.54.73,0,.83ZM135,125.4c-.11.17,0,.25,0,.4.13,0,.19-.06.33,0l.09-.23-.42-.14ZM90.92,241.77c-.26-.15-.41.45,0,.4L91,242c-.12,0-.11-.08-.11-.14ZM81.12,277c.77-.28.87-2,.89-2.72-.74.11-.94,2-.89,2.74ZM81,278.67c-.33.26-1,1.48-.35,1.74A2.62,2.62,0,0,0,81,278.7Zm-1.08,2.79c.38.33.79-.79.31-.81-.16.07-.58.64-.31.83Zm58.87-150c.35.19.52,0,.6-.3C139,130.94,138.83,131.1,138.75,131.42ZM79.56,285.22c-.11.17,0,.25,0,.4C79.81,285.77,80,285.16,79.56,285.22Zm-1.21,3.53c.55.31.72-.44.23-.58-.24.32-.19.18-.23.58ZM133,159.05a1.77,1.77,0,0,0,2-.56A1.3,1.3,0,0,0,133,159.05Zm1.58.48-.15.35c.28.16.41.06.61.1,0-.22-.14-.36-.48-.47ZM133.1,169.6c-.51.62.43,1.15,1,1.07C134.58,170,133.67,169.63,133.1,169.6ZM176.8,60.42l.28.11C177.44,60,176.42,60,176.8,60.42ZM123,202l-.09.23c.09,0,.19.07.28.12l.09-.24Zm13.17-30.72c-.41.59.37,1.17,1,1.07.35-.42-.09-.55,0-.92a3,3,0,0,0-1.08-.16ZM132.92,185c.74.42,1.11-.36.77-.77-.75-.26-.94.24-.78.76Zm1.33,3.18c-.16.29-.13.51.24.63a.55.55,0,0,0,.2-.17.48.48,0,0,0,.11-.24l-.55-.23Zm1.4.94-.09.24c.12,0,.1.1.09.17l.28.11c0-.12.09-.1.18-.06l.09-.24c-.13,0-.1-.1-.09-.17l-.28-.11c0,.11-.11.1-.19.06Zm1,3.6c-.16.22,0,.34,0,.51.27.17.39.07.6.11.09-.44-.11-.61-.57-.63Zm1.22-2.33c-.25.35.07.52.37.68.1-.23.44,0,.46-.35a.82.82,0,0,0-.37-.29.84.84,0,0,0-.47,0Zm48-119.51c-.34.26.49.58.41.17Zm9.47-23.23c.37,0,.76.07.82-.47-.5-.25-.58.25-.82.47ZM184.62,82l-.09.23.28.11.09-.23Zm-2.83,26.75a.66.66,0,0,0,0,.31.6.6,0,0,0,.13.28.64.64,0,0,0,.25.18.65.65,0,0,0,.31,0,.51.51,0,0,0,.06-.32.49.49,0,0,0-.12-.3.59.59,0,0,0-.27-.17.62.62,0,0,0-.33,0Zm8.93-17.32c-.06,0-.34.15-.28.29.17.34.88-.24.29-.28Zm-7.26,23.72c-.16.28-.14.51.24.62.18-.3.16-.52-.21-.62Zm-.9,6.85c.75.17,1.48.3,1.66-.55-.93-.55-1.75-.27-1.63.54Zm5.29-13.15c-.12.24,0,.41.28.51C188.25,109.1,188.16,108.93,187.85,108.84Zm-5.24,17.69-.09.23.28.1.09-.23-.29-.11Zm3.21-.89a.71.71,0,0,0,.3-.34.69.69,0,0,0,0-.47C185.24,124.36,185,125.4,185.82,125.64Zm.14.06-.09.23.27.1.09-.23-.27-.11Zm-.53,2.19-.13.35.54.22c.18-.3,0-.47-.41-.58Zm1.36,2.26-.09.24.28.11.09-.24Zm-.37,4.25c-.16.29-.14.51.23.62a.65.65,0,0,0,.21-.16.74.74,0,0,0,.11-.24l-.54-.22Z"/></g></g></svg>