<svg xmlns="http://www.w3.org/2000/svg" viewBox="0 0 254 320.88"><defs><style>.cls-1{fill:#e9ad62;fill-rule:evenodd;}</style></defs><g id="Слой_2" data-name="Слой 2"><g id="Слой_1-2" data-name="Слой 1"><path class="cls-1" d="M167.24,26.5l-.05.12c-.19-.12-.23-.29-.56-.35a3,3,0,0,0-.32,1.75c.45.24.57-.29.81.16-.45,1.13-.27,2.05-.71,3.19l0-.1-.09,0-.45-.17a.38.38,0,0,0,.45.6l.15.07,0-.13c.2,1.15-.4,2.24-.39,3.31,0,.38.4.83.42,1.16.08,1.71-.82,3-1.17,4.89-.41,2.19.37,4.59-.49,6.72-1,2.57-3.39,3.81-4.59,6.59l-.13-.12h-.17c-.09,0-.17-.09-.1-.18-.52-.15-.59.65.06.74,0-.09.06-.17.1-.25l.12.12h.18c-.3.8-1.74,1.41-.66,2.19-.11.45-.75-.05-.74.59.72,1.34-1.21,2.51-.54,3.68-.14.39-.61.17-.64.76-.17.42.7.49.51.9-1.66.34.63,2.47-.44,3,.1.32.89.06.81.6-1,0-.81,2-.86,2.69.58.45.72-.23,1,.22.26.84-.65.42-.78,1.14-.09.28.27.42.65.54-.56,1-.65,2.51-2.19,3.05,0,.36.56.86-.08,1.12-.81.16,0-1-1-1.09-1.16,1.13-.09,2.33.71,3.13-.23.57-.79.57-1,1.21.44.4.84.2,1.31.64.45,1.27,2,2.15,1.91,3.62,1.23,0,1.19,1.51,2.24,1.86s2.15-.74,3.28-1.34,2.18-1.31,3.07-1.7a27.63,27.63,0,0,0,3-1.14c2.9-1.88,5.38-6.82,7-10.28.67-1.38.18-2.45.45-3.43.56-2.11,2.48-3.72,3.58-4.82,1.17.83.3,2.07.3,3.28,0,.57.49,1.12.43,1.61-.22,1.74-1.35,2.15-2.9,3.06.06-.16-.36-.31-.45-.17a17.19,17.19,0,0,1-1,2.2,1,1,0,0,0,.65.11c-.28.41-.45,1-.83,1.27.13-.27,0-.45-.31-.55-.23.64-.66.94-.82,1.7.17.33.53,0,.51.48-.32.16-.56-.45-.85,0-.45.9.23,2.19-1.41,2.34-.31.37.05.49.45.61-.36.45-.9.48-1.23,1a1.16,1.16,0,0,1,.19.44,1.35,1.35,0,0,1,0,.49c-.58.89-1.93,1.28-1.41,2.34,0,.47-.53-.1-.5.38s.24.65.32,1c-1.13.81-.32,2.27-.59,3.37s-1.15,2-1.5,3c.53.4,0,1.16.23,1.67-.34.16-1.21.06-.94.65-.06.52,1.06,0,.66.54-1,1-.06,3-1.54,4-.09.36.84.37.57.79-.08.45-.9,1.13-1.12,2a3,3,0,0,0-1.44.6c-.75.65-2.24,3.5-1.39,4.09.65-.07.9-.79,1.65-.68,0,.3.27.5.61.67-1,1.85-.23,3.07-.77,4.75,1,1.79,4.08,1,5.05-.08s.45-2.11.75-2.88a2.6,2.6,0,0,1,1.38-1.31,2.65,2.65,0,0,1,1.9,0c2.49,1.15-.59,3.14-.93,4.26-.25.8.45,1.62-.66,2.63.61,1.16.15,2.74,1.31,3.81,2.22,2,3.22.85,4.95-.26,1.49-.95,2.87-2,4.36-2.8,2-1,4.19-1.53,5.75-2.83.62-.52,1-1.43,1.82-2a6.76,6.76,0,0,1,2.88-.77c-.44.74-1.27.82-1.56,1.85.55,1,.89,3.24.36,4-.35.52-1.41.54-1.79,1-.45.65,0,1.52,0,2.31,3.28,2.6,6.08.51,8.9-.19.62-.16,1.41,0,2-.24,2.92-.95,4.69-3.51,7.41-5.38a24.91,24.91,0,0,0,4.74-3.8c.42-.55.4-1.19.77-1.58s.8-.26,1.24-.53c1.08-.65,1.76-1,2.68-1.57a16.29,16.29,0,0,0,3.17-2.39,11.1,11.1,0,0,1,.77-1.57c.22-.29,1.12-.75,1.79-1.48s1-1.54,1.57-1.85c1.24-.75,2.68-.41,2.61.86-.07,1.72-2.91,3.25-3.64,3.65-1.28.69-2.08,1.71-3.14,2.26l-.12-.12h-.18l.15-.38c-.5,0-1.21.38-1,.89l.3.12.15.06.15,0c-2.22,3-4.71,5.38-7.86,6.59l.05-.13-.15-.06a.63.63,0,0,0-.67-.27.63.63,0,0,0-.32.2.66.66,0,0,0-.16.35,1.13,1.13,0,0,0,.65.11l0,.13.16,0c-.19.37-.61.33-.9.52l-.12-.12h-.18l.1-.25-.45-.18-.15.38.45.17-.12.1,0,.16a.7.7,0,0,1-.19.26.59.59,0,0,1-.31.12l-.12-.12h-.18l.1-.25a3.57,3.57,0,0,0-2.37,1.68l.44.18-.12.1,0,.15c-.41.75-1.3.64-1.73,1.34l0-.09-.06-.09c-.44-.24-.71-.16-.79.27l.45.17-.1,0,0,.1c-.58.51-1.61.22-2.29.56-.64.86.4,1.15-.32,1.75-.35-.42-1.43-.28-.54.51-.93-.82-.58.51-1.5.29-.31.33-.22.9-.78,1.14.19-.16-.63-.48-.6-.23.15.67-.53.79-.83,1.27-.5-.09,0-.5-.66-.55,0,1.35-1.3,1-2,2.12-.55,0,0-.45-.51-.49-.77.86-1.49,1.79-2.63,1.44.35,1.23.27,2.59,2.05,2.81.69.08,3.4-1.65,4.16-1.86l0,.12.15.06c0,.23.15.39.51.49a.38.38,0,0,0-.45-.61l.05-.13-.15-.06c1.43-1.82,2.64-4,4.93-4.3a1.92,1.92,0,0,1-.06,2.42c-.49-.1-.21-1-.76-.72-1.07.25.31.69,0,1.3-.66.6-.67-.54-1.41-.39-.14.45.87.51.67,1-.4,0-.49.53-1,.33-.71,0,.3-.68-.41-.73.22,1.44-1.22,2.4-2.3,3.29-.05.2.35.25.16.5-1.23.38-1.14,2-2.26,2.3-.14.47,0,.56-.33.9a2.11,2.11,0,0,1-1.15.28c-.11,2-2,1.15-2.64,3.31-.27.29-.19-.52-.6-.23,0,.76-.6.87-1.14,1.15-.89-1.39,2.33-5.33,0-5.91-.54-.13-1,.16-1.23,1l-.15-.07-.05.13c-.19-.11-.22-.29-.55-.35-.07.16-.14.33-.2.5a1.15,1.15,0,0,0,.66.11l0,.12.15.06c.12.33.36,1.18,0,1.3,0-.28-.7-.3-.7,0-.3.32.25.36.51.49-.09.47-.65.1-.74.58-.08.85.41,2.11.34,2.72,0,.17-.41.4-.38.58.06.54.57.83.52,1.34a2.22,2.22,0,0,0-.39.57c-.34.66.06,1.54-.87,1.82.57.69.52.9-.08,1.56.67.4.74,1,1,1.53,1.34,1.6,4.1,1.59,6.45,2.61a8.67,8.67,0,0,0,1.3.65c1.47.29,2.72-.71,3.8-.41l0,.12.15.06c-.53,1.79,2.92,2.08,3.94,2.37s1.87,1,2.69,1.17c1,.18,2.15-.53,3.58-.78.4-.07.85.11,1.2,0,2.13-.44,3.58-2.14,5.68-1.28,4.68-2.14,9.28-4.43,15-4.76.56.1.5.4,1,.52.45-.78,1.48-.6,2.44-.5l.09.15.17.09c-.81,1-2.84-.12-3.53,1.1l1.05.4-.12.1,0,.15a34.58,34.58,0,0,1-6.76,1.49l.05-.13-.15-.06a5,5,0,0,1,2.48-1.06c0-.11.09-.25-.06-.31-1.39-.39-3.18.37-3,1.45l.3.12-.1,0,0,.09c-1.08.9-2.76.72-4,1.34l.05-.13-.15-.05c0-.12.1-.25.14-.38-.69-.51-1.65.45-1,.9l0,.13.15,0c-.09.13-.24.13-.4.13l-.12-.11h-.18c0-.09.07-.16.1-.25a1.13,1.13,0,0,0-.65-.11l0-.12-.15-.06c-.15-.06-.14-.17-.25-.24-.8.7-1.83.25-2.13,1.49-1.38-.23-2.05.86-3.18,1.08-.14.23.1.33.16.49l-.15-.05,0,.12c-.12.68-1.06-.1-.79.71.52.35.42-.38.9-.08-.75,1.34-3.09,1.66-5,1.69l.05-.13-.15-.06a.79.79,0,0,0,.39-.57l.12-.09,0-.16c.31,0,.62,0,.69-.45-.49-.24-.87-.29-.94.22l-.13.09,0,.16c-.54,0-1,0-1.24.53.27.21.45.63.86.48l-.05.13.15.05c-.45.35-1.27,1.1-1.79.61.22.07.28-.26-.05-.31a4.37,4.37,0,0,1-2.19.74c-.32-.45.86-.92.18-1.37-1-.08-1.62.5-2.38.81a4.21,4.21,0,0,1,0,1.87,7.48,7.48,0,0,1-.66,1.76c.09,1.13,2,1.66,1.84,2.87l0,.09.05.09c-.59.05-.12.93.27.68a.57.57,0,0,0,0-.22.59.59,0,0,0,0-.23l.15.06.05-.13c.19.12.22.29.55.36s.14-.6.6-.2c4.27,2.24,7.8-1.2,12.2-.22a14.85,14.85,0,0,1,4.53,1.73c-1.77.09-3.72-.14-4.89,1,2,.79,3.93-.18,6.11.33-.69.23-.82.19-.73,1-1.72-.67-3.81,1.74-5.43,1.53-1.85-.24-4.28.31-6-.14-.45-.12-.9-.54-1.31-.65-1.47-.41-2.88.06-4.3-.07-.42,0-.9-.32-1.26-.34s-.76.32-1.29.23c-2.1-.35-3.31-1.28-5.29-1.6-1.41-.22-2.32.35-3.29.45-.68.08-1.23-.22-1.7-.08a15.25,15.25,0,0,0-4.81,2.63c-1.16.94-2.49,2.68-4.16,2.29a2.89,2.89,0,0,1-1.93-2.18c0-1,1.44-1.41,2-2.55.77-1.55.13-2.15-.76-3.46-3.48-.75-7.74-1.34-8.87,1.93,2,1.09,2.47,2.66,4.27,3.8,1.09,2.18,1.79,4.47,4.8,6,.37,1.09,1.45,1.93,1.41,3.14,1,.48,1,1.31,1.34,1.94.12.22.49.32.66.55.34.47.27,1.16.47,1.47a6.75,6.75,0,0,0,1.93,1.76c.92.32,2.31-.45,3.29-.45.24,0,.53.26.76.29.72.08,1.59-.19,2.3-.13,1.54.15,3.25,1,4.4.25.13-.48.45-.63.68-.89,1,.25,2.3.89,2.54,2-.57-.31-.61.32-.79.71-.77-.12-1.39.05-1.58,1,.87.81,3.24,1.3,4.87,1.3,1,0,2.27-.75,2.79-.52s.37,1.14.88,1.34c-1.23.27-2.92-.26-3.64.9,1.08.45,1.12,1.52,2.14,2.12,2.08,1.22,3.14.64,5.11.66s3.46.51,4.6.18c2.37-.67,4.38-2.74,6.34-3.47-.65-1-1.59-.28-2.5-.24-1.34.06-3.18-.45-4.2-.31,1.1-1.2,3.49-.11,4.83-.9,1.16.72,1.21-.12,2.06.5,1.09-1,3.29,0,4.9-.13,2.11,3.39,6.34,2.35,10,3.26,3.4-.19,6.67-1.76,11,.31l-.15,0-.05.13a.32.32,0,0,0-.27,0,.37.37,0,0,0-.18.21l.76.29c.05-.12.1-.25.14-.37l.06.09.1,0a4.72,4.72,0,0,1,.81.6c.59,2.38-.45,3.84-2.58,4.48a33.72,33.72,0,0,1-10.18.85c-1.69,1.37-4.93,2.4-6.72,4-1.49,1.34-2.69,3.58-.72,5.06.82.61,1.67.59,2.17,1.12a6.29,6.29,0,0,1,.52.91c.83,2.48-2,3.93-3.31,5.07-.9.75-1.54,1.79-2.32,2.42-.22.18-.64.2-.84.4-1.06,1.08-1.68,2.2-2.8,2.81-1,.37-2.24-.21-3.2.22-.41.19-.69.9-1.13,1.15-.63.36-1.5.1-1.69.8-.89-.37-1.79.28-2.89.32-.32,0-.63-.26-1-.22s-.74.42-1.2.41a23.94,23.94,0,0,1-2.36-.62c-2-.18-2.9.92-3.86,2.41a2.12,2.12,0,0,0,2,1.06c.86,1.27,2.6,1.2,4,2.13.25-.75,1.07-.39,1.7.08-.05-.16-.18-.6.29-.33,1.15-.56,2.64.18,4.32.51,1.5.29,3.09,0,4.25.18,1.89.27,2.43,1.39,3.68,1.71-.64.41.29.71.81,1,.58,0-.39-.72.35-.44.77.1.34.61,1.11.71-.06-.58-.17-.58.54-.51l0,.12.14.06,0,.13a1.86,1.86,0,0,0-.1.25,1,1,0,0,0,.51,0,2.5,2.5,0,0,1,.09-.25l.05-.13-.16-.06c.18-.26.81.3,1,.1l-.05.12.15.06c-.13.35.6.57.86.48a.5.5,0,0,1,0-.13l.06.09.1,0c.65.35,2,.39,2.24,0-.32.84,1.54.45,1.11,1.15-.79,1.05-2.86.09-4.4-.25a35.22,35.22,0,0,0-7.16-1.17c-1.56,0-2.74.27-3.75.29-2.15.05-4.1-.61-4.48-1.86-1.79,0-3.65-.89-5.42-1.21-.42-.08-.79.08-1.2,0-.56-.14-1.05-.61-1.61-.76-.2-.06-.7.11-.9.09-2.24-.31-4.41-1.41-6.22-1.39-.4,0-.74.29-1.14.29s-.87-.31-1.26-.34-1.26.12-1.95.12c-2.08,0-2.58,0-3.88,1.11a10.61,10.61,0,0,1-2.47,1.93c-1.46.54-2.33.25-4,.61-3.21-1.64-1.87,2.24-2.6,3.17.38.17.52.41.41.74-2.12,5.87-6.07,8.44-13.47,4.92a10.3,10.3,0,0,0-2.89-2.84c-1.44,2.52-3.81,7.07-2.13,10.14-.64,1.59-.76,3.16-1.88,4.48-.79.93-2.31,1.53-2.59,3.18-.4.28-1,.09-1.5.29-.79.33-1,1-1.62,1.54-.34.25-.92.29-1.25.53-1.48,1.13-2.51,2.68-4.29,3.11A8.68,8.68,0,0,1,153,256.4a4.77,4.77,0,0,0,1.73,1.38c1.25.55,2.56,1.36,3.73,2,1.76,1,4.61,2.54,6.4,2.74,6.13.69,13.16,1.29,19.52,3.74.62.09.06.57.61.67.31.06.3-.45.75-.14.85.89,1.48.14,2.52,1.1l-.13.1,0,.16c-1.07.4-2.09-.37-3.27-.54-1-.13-2.08.23-3.14.1-.49-.07-.93-.36-1.41-.4-1.06-.09-2.2.16-3.45,0-.38-.06-.83-.39-1.21-.45-.79-.16-1.59,0-2.35-.18a61.23,61.23,0,0,1-11.68-4.34c-1.93-.9-3.8-1.34-5.93-2.13s-5.1-2.42-6.8-2.6c-1.08-.12-2.13.6-2.84.63-1.56.09-5-1.34-6.27-.81s-1.86,2.37-1.24,3.27c-.39,1.39-1.44,2.14-2.1,3.22-.25.41-.11,1-.37,1.45s-1.06.57-1.39.89-.85,1.1-1.34,1.65a17,17,0,0,0-1.48,1.6c-.33.67-.33,2.84.61,3.4a7.18,7.18,0,0,0,1.79.26c3.69.64,7.13,1.18,10.37,3.69l0,.09.06.09c-.79-.2.05.89.15.06l.1,0L145,277c1.21.2.9.94,1.57,1.32.38-.29.68.14,1.15.14.68,0,1.11-.49,1.8-.6a9.13,9.13,0,0,1,5.1.67c.9.48,2.76,2.24,1.62,3.93a6.11,6.11,0,0,1-2.58,1.31A6.4,6.4,0,0,1,149,282.5c-1-.92-.93-2.58-2-3.36-2.14-1.56-4.36-.5-6-1.14s-2.52-2.75-4.55-3c-1.19-.17-2.24,1.15-3.28,1.34-.45.07-.93-.26-1.3-.21a3.59,3.59,0,0,0-2.18,1.61c-.1.2.06.73,0,.87-.23.9-1.46,2.12-1.89,3.17-.11.27,0,.62-.14.81-.45.52-1.76.69-2.12,1.48a4.92,4.92,0,0,0-4.18,1c-1,.67-2.2,1.41-3.42,2.14-1.68,1-2.24,2-3.8,3.16a13.82,13.82,0,0,0-1.88,1.29c-.67,1.35,1.35,3.22,1.48,4.75a3.49,3.49,0,0,1-.22,1.5c-1.07,2.13-3.93-1.46-4.59-2.05.08-1.54-1.47-2.93-2.12-4.42-.4-.89-.33-1.58-1-2.39a11.47,11.47,0,0,0-1.68-1.51c-1.08,0-1.62,1.06-2.37,1.68a1.24,1.24,0,0,1,.71.42c.22,1.41,1,2.56,1.22,4.07a33.56,33.56,0,0,1,0,6.65,27.83,27.83,0,0,1,0,2.86,4.26,4.26,0,0,0-.55.51c0,.21.51.61.52.92s-.48,1.06-.43,1.57.45.44.37.86a43,43,0,0,0,.59,8c0-.11-.07-.2-.26-.24-.26.81.16.56.36.85a3.88,3.88,0,0,1,.83,1.48c.14.78-.6,4.37-1.74,3.65-2.2-1.4-.31-5.37-.08-7.52.14-1.3-.5-2.45-.55-3.52-.08-1.5.17-3,0-4-.1-.49-.56-.94-.68-1.42s.09-1.21,0-1.86c0-.37-.36-.78-.42-1.17-.14-.83.16-1.67,0-2.43,0-.4-.49-.82-.57-1.23a17.78,17.78,0,0,1-.05-3c0-1.84.54-3.49-.38-4.93-1.25.52-3,.17-4.65-.05-1.79-2.52-6.68-1.52-7.61.83.37.66.85,1.68.14,2.36.78.79.62,1.9,1.4,2.69.19.35-.18.19-.24.63,2.2.56,3,5.45.63,4.71a4.14,4.14,0,0,1-1.59-2.2c-.25-1.54,1-3.4-.38-4.47a8.2,8.2,0,0,0-6.24.48,5.58,5.58,0,0,0-1.8,1.24c-.27.33-.24,1-.58,1.5s-.64.41-.79.7c-1,2-.72,5.21-1.89,6.34-.18,1.14.33,4.79-1.7,5.82a3.31,3.31,0,0,1-2.4-.06c-1-.52-.9-2-.8-2.89.1-1.14-.28-2.78,0-3.73.55-1.71,2.65-2.56,3.13-4.13.23-.76-.25-1.62-.19-2.24.17-1.72,1.1-3,.74-4.19s-1.6-1.49-2.35-2.91a4.76,4.76,0,0,1-.31-2.86c.21-1.37,1.16-1.68,1.51-2.59.24-.59-.1-1.75-.14-2.79a4.66,4.66,0,0,0-.45-2.47c-1-1.95-5.86-2.61-7.13-1.73-.45.3-.37.89-.63,1.2A6.47,6.47,0,0,1,64,280.18c-.57.18-1.54-.09-2.34.25a15.34,15.34,0,0,0-1.49,1.17,6,6,0,0,0-2.2,2.6c-.62.32-1.4.33-1.79,1.05a3.19,3.19,0,0,1-2.12-.81c-.6-1.43.68-2.21,1-3.38a4.57,4.57,0,0,0-.38-2.17c-.22-.69-.88-1.49-1-2s.24-.54.14-.81c-.19-.47-.86-.85-.89-1.34-1-.55-1.19-1.55-2.29-2.18-.76-.44-1.73-.37-2.46-.8s-.94-1.45-1.79-1.69c-1.14,0-1.94,1.9-3,2.45-.77.4-2,.12-1.34,1.22-1.87,1.2-.3,2.17.15,3.23.1.21-.18.54-.13.81.12.68.51,1.14.45,1.6A3.92,3.92,0,0,1,40.24,282c.43.34.27-.37.7,0-.51,1.09-1.2,2-.2,2.8a4,4,0,0,1,4-.17c.52,1.4.39,2.49-1.15,3-.8.27-1.47-.23-1.85.3s.45,2.36.45,3.35c0,3.65-3.76,5.49-6.5,5.72a3.83,3.83,0,0,1-1.71-.52c-1.42-.7-4-2.07-4.75-3s-.49-1.56-.94-2.53c-.38-.79-1.07-1.53-1.09-2.14a6,6,0,0,1,1-3.08c.64-.94,2.87-1.5,3-2.88.1-1.09-2.18-2.83-2.09-4.54.06-.94.73-1.54.57-2.38-.28-1.34-2.06-3.22-2.88-4.27l-.89-.35c-2.37-3.34-3.5-7.11-4.88-10.8.81-1.55-.58-2.69.28-3.93a18.76,18.76,0,0,1-.7-5.88c.05-.59.45-1,.33-1.31a27.1,27.1,0,0,0-1.82-3.87,12.27,12.27,0,0,1-.53-5.38c.06-.38.44-.77.44-1.13,0-.89-.94-1.51-1-2.27a4.9,4.9,0,0,1,.3-2.18c.22-.45.82-.45.9-1,.13-.94-1.52-3.08-2.32-3.91a11.29,11.29,0,0,0-3-1.73,47.5,47.5,0,0,1-5.16-3.7c-1.21-.82-2.47-1.28-3.29-2.27a15.45,15.45,0,0,1-1.79-3,19.16,19.16,0,0,1-.84-2.34c-.11-.49.16-.95,0-1.43s-.8-1.13-1.08-1.71c-.34-.73-.44-1.48-.68-1.84C.68,211,0,210.68,0,210.17c.05-1.71,1.86-2.6,3.09-3.14.48.21.73,0,1.26.34.31-.1.65-.12.84-.4,2.87.89,4.18-.78,6.14-1.11.66-.11,1.74.14,2.75,0,.58,0,1.14-.36,1.69-.36a16.56,16.56,0,0,0,3.58.09,26.24,26.24,0,0,0,4.33-1.37c.76-.32,2.64-1,3-1.57C28,200.82,26,199,24.88,198a14.47,14.47,0,0,1-1.62-1.2c-.57-.69-1.24-2.82-.77-3.9a2.61,2.61,0,0,1,2.28-1.42c2.4.27,3.36,3.26,4.73,4.84,2,2.29,4.73,1.49,6.27-.06.17-.16.14-.57.28-.75,1-1.31,2.73-2.2,3-3.75a9.42,9.42,0,0,0,1.54-.42c.29-.39,0-.57.19-.93,1.56-.12,2.1-2,3.51-2.4-.05-.42-.47-.72-.62-1.11.24-1.11,1.38-1.94,1.65-3,.38-1.45-.16-3.14.17-4.55.5-2,2.11-3.92,2.91-5.37.39-.69.24-1.34.51-2.24.22-.72.8-1.34,1-2.08a18.5,18.5,0,0,0,.2-3.24c2.82-2.51.33-5,.27-7.53,0-1.93-.92-4.19-1-6.13-.45-.28-.49-.71-.82-1-.14-2,.22-3.41-.38-4.9-.45-1.08-1.55-1.65-2.3-2.61-.51-.66-.48-1.58-1.29-2.08.1-.73-.63-1.3-.82-1.9-.1-.28.18-.58.13-.81s-.38-.4-.45-.61.06-.66,0-.87a9.07,9.07,0,0,0-2.2-3.3c-1.56-1.54-1.17-2.24-1.53-4.18-.09-.54-.39-1-.47-1.48a12.4,12.4,0,0,1-.08-1.61c0-1.09-.24-2.4-.15-3.23.2-1.68,1.31-3,1.92-4.59.32-.81.1-1.76.92-2.39.26-6.84-5.2-11.72-6.86-17.91a7,7,0,0,1-1.29-2.85,7.14,7.14,0,0,1,.06-3.12c.93-3.29,5.2-4.12,8.38-1.54.87.71,2.9,3.26,1.86,3.74,1.24.93,1,2.35,2,3.36-.15.42,0,.73-.28,1.19,1,1.88.82,4.18,2,6-.67,1.25.15,2,.45,2.91-.69.83,0,1.6-.7,2.76a30.74,30.74,0,0,1,1.38,5c.14.9,1.08,1.72,1.45,2.57.41,1,.36,2.1.69,3.13.27.84.84,1.53,1,2.28a24.11,24.11,0,0,1,.24,2.54,26.56,26.56,0,0,0,1.34,4.68c.51,1.39.87,2.72,1.31,3.82a4.88,4.88,0,0,0,1.4,1.93,4.8,4.8,0,0,0,2.15,1c6.72,1.49,6.06-9.09,5.94-12.41-.42-.18-.54-.47-1-.65-1-2.77-2.73-6.68-1.82-10.21a10.83,10.83,0,0,1,1.39-3.64c.75-1,2.46-1.45,2.55-3.06a26.94,26.94,0,0,1-1.2-2.77c-.07-.31.22-.63.19-.93-.2-1.7-1.58-3.29-2.24-4.6-.33-.65-.26-1.43-.59-2.1-.58-1.17-1.72-1.68-2.75-2.78a16.28,16.28,0,0,1-2.27-4,20.91,20.91,0,0,0-1.37-4.57c-.66-1.5-1.49-3.1-1.93-4.47s-.55-2.82-.91-4c-.68-2.18-.56-4.44-2-6.66.39-1.34-.65-2.07-1.1-3-.26-.54-.15-1.15-.38-1.74-.65-1.6-1.49-3.26-2-5.1a22.93,22.93,0,0,0-2.19-5.15,17.56,17.56,0,0,1-1.58-2.2c-.24-.6-.07-1.34-.39-2.17-.12-.3-.55-.55-.71-.84C41.34,50,41,48.08,40.1,46.73c-.66-1-2.07-2.07-2.55-3.28a18.54,18.54,0,0,0-.39-2.17c-.53-1.23-1.92-2.91-2.73-4.64-.13-.29-.15-.69-.31-1-1.16-2.14-2.93-4.41-1.52-6.92.78-1.37,2.5-2,4.93-.69,2.64,1.44,2.68,4.69,3.77,7.34.39,1,.9,1.79,1.25,2.65s.49,1.84.84,2.77c.53,1.38,1.6,2.81,2.17,4.29s.7,2.75,1.37,4.12c.12.23.5.45.61.67a45.4,45.4,0,0,1,1.65,4.81c.53,1.34,1.42,2.57,1.81,3.86.18.58,0,1.2.18,1.8.23.76.62,1.51.84,2.33a26.09,26.09,0,0,0,1.11,3.48c.4.9,1.37,1.79,1.9,2.75a37.12,37.12,0,0,0,2.26,3.58c.26.36.32.83.57,1.23.82,1.3,2.27,2.36,3,3.45.87,1.29,1.11,3.14,2.62,4a9.85,9.85,0,0,0,1.41.4c3.72,1.49,5.61,4.16,7.8,6.3-.25.34.12.45-.13.82,1.45,1.72,1.72,3.86,2.64,5.77.33.22-.7.69,0,1,.45.3.45-.21.75-.14.15,1.79,1.89,1.73,3.33,2.14.86.25,2,1,3,1.28.56.15.86,0,1.3.22,1.19.63,2.48,2.79,3,3.46.29.36.77.55.89.78.45.68.36,1.39.84,1.9a9.67,9.67,0,0,0,5.43,2.09c2.73-.16,2.93-3.13,2.87-5.24,0-.66-.34-1.31-.33-1.86,0-.31.31-.48.28-.75-.08-.9-.58-1.66-.44-2.48.07-.37.41-.62.53-.94.45-1.19.35-3.38.62-4.81.18-.95-.89-2-.8-2.9-.68-.2-.64-.66-1.21-.89-.6-1.45-.45-2.58-1.47-3.88s-3-2.36-3.41-3.75c-.6-2.24,2.24-4.39,2.84-6.55.15-.51-.09-1.13.12-1.68.48-1.24,2.36-2.21,3.24-3.51.66-1,1.35-1.55,1.31-2.52a20.47,20.47,0,0,0-1.08-4.89c-.11-.22-.45-.24-.51-.48-.45-1.91.16-3.13,1.93-4.6a16.43,16.43,0,0,1,2.46.8c1,1.8,2.15,3.59,3.13,5.38a4,4,0,0,0,1,3.39,2.06,2.06,0,0,0-.23,1.06c.89,2,2.88,3.54,3,5.76,1.37.82,1.16,3.16,3,4.33.56.35,2.24.82,2.76.48.7-.44,1.16-4.18,1.17-4.88,0-.48-.39-.9-.38-1.29,0-.6.52-1,.68-1.76.39-1.91-.22-3.7-.3-5.59-.06-1.56.37-3.13.37-4.61a31.66,31.66,0,0,1-.3-3.29c.08-.78.51-1.3.57-1.94s-.17-1.23-.19-1.79a28.11,28.11,0,0,1,.19-3.67c.18-1.79-.45-3.74-.49-5.52,0-.9.41-1.7.45-2.56,0-.68-.24-1.42-.23-2.11s.35-1.57.36-2.31c0-2.11-1.46-4.68-1.07-7.16.35-2.24,1.16-4.1,1.15-5.76s-.93-2.75-1-3.82c0-1.68.75-5.5,2.21-4.93.9.36,1.47,4.51,1.29,5.25-.25,1-1.29,1.79-1.6,2.84-.84,2.87,2.38,6,1.44,8.48-.27.73-1.18,1.17-1.57,1.85a12.84,12.84,0,0,0,.52,3.65c.31,1.63-.3,2.88-.38,4.61,0,1.23.75,2.81-.24,3.8a12.43,12.43,0,0,1,0,6c.8,4.89-.15,10.23.35,15-.08.56-.65.25-.69.9-.11.37.57.45.37.86a8.4,8.4,0,0,0,.28,4.71c-1,1-.4,2.33-.4,3.31-.15.22-.69-.25-.64.33-.27.53.69.64.62,1.1-1.73.15-.27,1.86-.55,2.81s-1.71.68-1.18,1.71c.75.62.55-.45,1.1-.15-.74,1.46.38,2.42,1.26,3.51.45.55.64,1.28,1,1.84a19.5,19.5,0,0,0,2.14,2.11c.89.89,1.38,1.79,1.93,2.18a8.56,8.56,0,0,0,3.83,1.35c.89-.09.89-.76,1.58-1.42s2.33-1.2,2.66-2.43c.3,0,.84.52.85,0-.77-.94.23-1.79.65-2.63.64,1.19-.38,2.78-.68,4.48-.6.18-.84-.8-1.41-.4A3,3,0,0,1,129.4,91a3.05,3.05,0,0,1-.49,1.55c1.1.16.71,1.54,1.49,2a2.78,2.78,0,0,0,2.93-.45,14,14,0,0,0,.87-2.24c2.47-5.52,5.6-11.86,6.59-17.28.29-.19.9.2,1.1-.15A23.2,23.2,0,0,0,147,70.15a16.87,16.87,0,0,0,2.11-2.36,20.18,20.18,0,0,0,1.2-3.13,36,36,0,0,1,2.37-4.42c1.93-3.19,5.38-5.3,6.27-8.7.1-.34,0-.77.08-1.12.49-2.15,1.67-4.25,2.09-6.83.31-1.93.48-4.76,1.24-6.44.62-1.36,2-2.63,2.13-4.22.08-.77.26-1.8.36-2.75.14-1.52-.12-3.13,0-4.6.17-2,.78-3.79,1.1-5.63.17-.95.13-2.36.3-3.49.3-2.05.79-4.17.94-6.12s-.08-3.52.37-5a5.82,5.82,0,0,1,1.84-3c.49.79,0,1.32.79,1.59,2,.73,1.11-4.34,3.18-3.81,1.53.38.29,2.72.21,3.54-.13,1.34.52,2.66.31,3.72-.42,2.15-3.52,3.54-3.14,6.43.06.4.57.83.62,1.1.29,1.51-.89,1.86-1.45,2.9a26.66,26.66,0,0,0-1.37,4.51c-.48,1.5-.74,3-1.13,4.32Zm84.08,161.75a.42.42,0,0,0-.06-.21.43.43,0,0,0-.15-.15c-2.07-.45-3,1.19-4.78,1.19C248.1,189.84,250,189,251.32,188.25Zm-6.53,1.25c-1.34-.41-3.85-1.09-4.81-.11a6.81,6.81,0,0,0,4.81.11Zm-4.69,3.67a2.63,2.63,0,0,0-2.54.76,2.27,2.27,0,0,0,2.54-.76Zm-14,31.34c.11-.19-.07-.27,0-.45-1.15.21-2.81-.49-3.7.17,1.13.75,2.59.32,3.7.29Zm-1.56-30.84c-2.43-.1-4.14,2.18-4.82,4.48,1.61.89,1.83-.62,2.82-1.94S224.05,194.8,224.52,193.67ZM210.76,218l.09-.26-.29-.11a2.6,2.6,0,0,0-.1.25Zm23.58-75.54a1.64,1.64,0,0,0-2.09.5A1.58,1.58,0,0,0,234.34,142.41Zm-6,.74c.35-.29-.54-.63-.45-.18Zm-.9,1c0-.13.09-.26.15-.39-.23-.12-.31,0-.5,0l-.1.25Zm-1.24.53c-.62-.27-1.21-.48-1.29.22.65.31,1.16.36,1.3-.22ZM208.69,184.3l.09-.26-.3-.11a2.6,2.6,0,0,1-.1.25ZM201.31,200c-1.35-.32-2,.82-2.88,1.2s-2.54.23-2.83,1.51C198.63,206.06,201.69,203.56,201.31,200Zm10.85-38.91c0-.13.09-.25.14-.38l-.45-.17c0,.12-.09.25-.14.38Zm-7.62,19.11.15-.37-.45-.18c-.05.13-.09.26-.15.38Zm9.19-30.47.15-.38-.45-.17-.15.37Zm-5.54,12.28.09-.25-.3-.12a1.86,1.86,0,0,1-.1.25c.08,0,.19.08.29.13Zm2-11.06c.15-.36-.93-.77-1.06-.4-.3.64.85.72,1,.41Zm17.7-53.73c-.51-.28-.6.2-.74.58a.75.75,0,0,0,.46-.15.78.78,0,0,0,.26-.41Zm-23.28,55.61c.17-.24-.12-.32-.36-.42a.48.48,0,0,0,.1.28.42.42,0,0,0,.25.16ZM218.82,105c-.45-.2-.64.12-.84.4.51.3.69,0,.83-.38ZM143.29,276.9c.05-.13.1-.25.14-.37a4.22,4.22,0,0,0-.45-.18C142.85,276.6,143,276.79,143.29,276.9Zm54.63-150.19-.31-.11c-.37.56.73.54.32.11Zm-1.12-6.61c.31-.45-.53-.76-.6-.24.43.15.23.34.61.24Zm-4.69,6.41c-.55-.1-1,0-.9.52.67.47,1.11-.11.91-.52Zm1.66-8.44-.15,0c.63-.15-.53-.6-.15-.06l-.05.12.15.06c-1.2.35-3.83.7-4.81-.55-.51.27-1.56.51-1.38,1.34l-.15-.06,0,.13-.15.38.3.12.15-.38.1,0-.06-.1c.45.18.69,0,1.06,0,.25.26-.55.45-.54,1,1.49,2.35,5.53,1.71,5.59-1,.38,0,.61-.48.08-.69Zm-16.88,37c.44-.72-.69-1.07-1.11-.71-.22.43.75.8,1.12.71Zm-1.4-.4-.77-.28c-.26.38.08.55.42.73a.71.71,0,0,0,.23-.19.57.57,0,0,0,.12-.26Zm-.79-46.54.09-.25-.3-.12-.09.26Zm5.41-41c.2,0,.25-.28.14-.37-.27-.24-.5.33-.13.37ZM155.32,79.55c-1.22-.81-1.2.49-2.34.25-.45.49.53.45.36.86-.45.73-1.51.17-2.18.75-1.07.9-.87,3-.53,4.12a2.78,2.78,0,0,0-.76,2.88c1.55,0,1.28-1.5,1.76-2.78C152.37,83.62,154.73,81.35,155.32,79.55ZM148.9,81c-1.42.65-1.06,3.29-1.42,4.65.8.08,1.14-.64,2-.37C149.1,83.9,149.3,82.33,148.9,81Zm14.33-34.84a.47.47,0,0,0-.25.16.47.47,0,0,0-.09.28.44.44,0,0,0,.34.43c.31-.09.59-.76,0-.87ZM110.64,185c.12-.19-.06-.27,0-.45-.13,0-.2.07-.35,0a2.77,2.77,0,0,1-.1.26ZM157.73,58.74c.27.16.45-.49,0-.45a2.6,2.6,0,0,0-.1.25c.12,0,.12.1.1.18Zm10.41-38.25c-.83.31-.93,2.2-1,3C168,23.36,168.21,21.31,168.14,20.49Zm.16-1.79c.36-.27,1.06-1.6.37-1.88A3,3,0,0,0,168.3,18.7Zm1.15-3c-.42-.34-.87.86-.34.89C169.3,16.51,169.75,15.88,169.45,15.68ZM106.53,178.55c-.38-.2-.56,0-.64.32C106.27,179.05,106.45,178.88,106.53,178.55ZM169.79,11.63c.12-.19-.07-.27,0-.45C169.5,11,169.34,11.68,169.79,11.63Zm1.28-3.83c-.59-.34-.77.48-.24.63C171.08,8.08,171,8.23,171.07,7.8ZM112.59,148.58a1.91,1.91,0,0,0-2.14.62C111.16,149.94,112.59,149.13,112.59,148.58Zm-1.71-.51c0-.13.09-.26.14-.38-.3-.18-.44-.07-.65-.11-.06.24.14.39.5.49Zm1.56-10.92c.55-.67-.45-1.25-1.11-1.16-.5.72.49,1.13,1.1,1.16ZM65.72,255.65l-.3-.12C65,256.08,66.13,256.07,65.72,255.65ZM123.25,102l.09-.25-.3-.12a2.67,2.67,0,0,0-.09.26Zm-14.1,33.35c.45-.64-.4-1.26-1.11-1.15-.38.45.13.61,0,1a3,3,0,0,0,1.15.14Zm3.41-14.83c-.81-.45-1.21.39-.84.83.82.26,1-.29.84-.85Zm-1.47-3.44c.18-.32.16-.56-.25-.68a.71.71,0,0,0-.23.19.69.69,0,0,0-.12.26Zm-1.51-1,.1-.26c-.14,0-.13-.1-.1-.18l-.31-.12c0,.12-.1.1-.19.07l-.1.25c.14,0,.12.11.1.19l.3.11c0-.14.11-.11.2-.08Zm-1.12-3.9c.17-.23,0-.36,0-.55-.29-.18-.45-.07-.64-.11-.11.45.11.64.6.65Zm-1.31,2.53c.27-.38-.07-.56-.4-.73-.1.25-.48,0-.5.38a.87.87,0,0,0,.9.33ZM55.83,244.36c.36-.28-.54-.62-.45-.17ZM45.7,269.57c-.41,0-.83-.06-.89.53C45.35,270.33,45.42,269.81,45.7,269.57Zm11.43-37.25.09-.25-.3-.11a2.6,2.6,0,0,1-.1.25Zm2.91-29c.13-.5-.15-.86-.72-.84-.31.47.22,1,.72.84Zm-9.59,18.81c.07,0,.37-.16.3-.32-.17-.36-.93.27-.3.31Zm7.73-25.71c.16-.31.14-.56-.27-.67-.17.3-.15.55.27.66ZM59.1,189c-.82-.18-1.6-.32-1.79.61,1,.57,1.93.26,1.79-.62Zm-5.62,14.26c.13-.27,0-.45-.31-.55C53,203,53.15,203.17,53.48,203.27Zm5.58-19.18a2.6,2.6,0,0,1,.1-.25,2.68,2.68,0,0,1-.3-.12c0,.09-.07.17-.1.25Zm-3.49,1a.72.72,0,0,0-.33.38.74.74,0,0,0,0,.51c1,.49,1.27-.64.34-.89Zm-.14-.06.09-.25-.3-.11c0,.08-.07.16-.1.25Zm.56-2.38.14-.37-.6-.24c-.17.32,0,.5.46.61Zm-1.49-2.44.09-.25-.3-.12a2.6,2.6,0,0,0-.1.25Zm.36-4.61c.17-.32.15-.57-.25-.68a.71.71,0,0,0-.23.19.57.57,0,0,0-.12.26Z"/></g></g></svg>