<svg xmlns="http://www.w3.org/2000/svg" viewBox="0 0 304 250.87"><defs><style>.cls-1{fill:#ffe600;fill-rule:evenodd;}</style></defs><g id="Слой_2" data-name="Слой 2"><g id="Слой_1-2" data-name="Слой 1"><path class="cls-1" d="M278.9,188.26l-.12-.06c.14-.17.32-.18.42-.5a3,3,0,0,0-1.66-.56c-.29.41.2.59-.28.76-1.05-.58-2-.53-3-1.12l.11,0,0-.1c.08-.14.16-.28.23-.42-.35-.34-.74,0-.65.37l-.08.14.12.06c-1.15,0-2.14-.71-3.18-.84-.38-.05-.87.28-1.2.25-1.68-.16-2.84-1.21-4.6-1.8-2.09-.7-4.54-.27-6.51-1.4-2.38-1.36-3.27-3.84-5.82-5.38l.14-.11,0-.17c.05-.08.1-.15.19-.07.21-.49-.56-.67-.73,0l.23.12-.14.11,0,.17c-.74-.39-1.14-1.89-2.05-.94-.42-.16.16-.72-.47-.8-1.41.52-2.29-1.52-3.52-1-.37-.18-.09-.62-.66-.73-.39-.22-.56.63-1,.38-.11-1.66-2.5.28-2.86-.84-.33.06-.18.86-.7.71.11-1-1.81-1-2.52-1.2-.51.51.13.73-.34.9-.86.14-.33-.69-1-.92-.28-.12-.44.22-.61.56-.93-.69-2.37-1-2.68-2.56-.36,0-.92.44-1.08-.23s.94.12,1.19-.8c-.94-1.29-2.27-.41-3.17.26-.53-.3-.45-.84-1.05-1.12-.46.38-.31.81-.81,1.2-1.29.28-2.37,1.71-3.79,1.38-.13,1.2-1.63.95-2.12,1.92s.43,2.2.86,3.38,1,2.31,1.24,3.23a25.23,25.23,0,0,0,.71,3.12c1.43,3.08,5.92,6.16,9.08,8.26,1.26.84,2.37.51,3.29.9,2,.84,3.29,2.93,4.22,4.14-1,1-2.07,0-3.25-.15-.56-.08-1.15.32-1.62.2-1.68-.45-1.93-1.6-2.6-3.24.15.07.36-.32.23-.43a13.72,13.72,0,0,1-2-1.29,1.07,1.07,0,0,0-.19.63c-.37-.33-.93-.58-1.12-1,.24.16.43.08.58-.23-.59-.32-.84-.77-1.55-1-.35.12-.08.51-.54.42-.11-.33.53-.47.15-.82-.82-.56-2.17-.07-2.09-1.69-.31-.36-.49,0-.66.36-.37-.41-.34-1-.77-1.34a1.1,1.1,0,0,1-.47.13,1,1,0,0,1-.46-.09c-.78-.68-1-2.06-2.1-1.68-.47,0,.16-.5-.31-.54s-.66.14-1,.18c-.63-1.22-2.17-.63-3.21-1s-1.79-1.4-2.75-1.88c-.47.47-1.14-.14-1.66,0-.12-.35.1-1.19-.51-1-.5-.13-.17,1-.62.56-.86-1.12-2.94-.47-3.72-2-.34-.15-.47.76-.84.44-.44-.14-1-1-1.82-1.36a2.86,2.86,0,0,0-.39-1.49c-.53-.82-3.11-2.67-3.8-1.91,0,.64.65,1,.43,1.68-.28,0-.51.2-.73.51-1.66-1.25-3-.64-4.53-1.4-1.91.72-1.51,3.86-.61,4.94s2,.72,2.71,1.12a2.58,2.58,0,0,1,.86,3.38c-1.46,2.28-3-1-4-1.48-.74-.35-1.65.21-2.48-1-1.21.43-2.7-.23-3.9.77-2.29,1.88-1.27,3-.42,4.86a48.88,48.88,0,0,1,2.14,4.64c.71,2.1.94,4.3,2,6,.42.67,1.26,1.12,1.75,2a6.71,6.71,0,0,1,.35,2.93c-.66-.55-.62-1.36-1.59-1.78-1,.4-3.28.44-4-.2-.46-.4-.34-1.45-.78-1.88s-1.48-.23-2.24-.33c-3,2.86-1.33,5.89-1,8.72.07.63-.14,1.38,0,2,.53,3,2.8,5.06,4.23,8a23.93,23.93,0,0,0,3.08,5.15c.48.49,1.1.56,1.43,1s.16.83.35,1.29c.49,1.14.73,1.85,1.17,2.82a16.79,16.79,0,0,0,1.91,3.42,10.92,10.92,0,0,1,1.43,1c.25.26.58,1.2,1.21,1.94s1.35,1.23,1.59,1.78c.56,1.32,0,2.67-1.2,2.44-1.68-.31-2.78-3.29-3.06-4.05-.51-1.34-1.4-2.27-1.79-3.35l.13-.11,0-.17.35.19c.07-.47-.21-1.23-.74-1.12l-.15.28-.08.14-.07.14a18.4,18.4,0,0,1-5.29-8.54l.12.06.07-.14a.62.62,0,0,0-.11-1.16,1.12,1.12,0,0,0-.2.63l-.11-.07-.08.14c-.34-.23-.24-.63-.39-.94l.14-.11v-.17l.24.13.23-.42-.35-.19-.23.42-.08-.13h-.15a.57.57,0,0,1-.24-.22.61.61,0,0,1-.08-.32l.14-.11,0-.17.24.13a3.56,3.56,0,0,0-1.33-2.54c-.08.13-.16.28-.23.41l-.08-.13h-.15c-.68-.5-.45-1.36-1.09-1.88l.09,0,.1,0c.3-.41.25-.68-.15-.82-.08.14-.16.28-.23.43l0-.1-.1,0c-.42-.64,0-1.6-.24-2.31-.75-.75-1.18.23-1.68-.56.46-.28.47-1.36-.43-.6.93-.8-.42-.64-.08-1.5-.28-.35-.84-.34-1-.92.14.21.56-.56.31-.56-.67.06-.69-.63-1.12-1,.16-.48.5.05.62-.56-1.3-.16-.84-1.42-1.78-2.24.1-.54.43.09.53-.43-.73-.87-1.53-1.7-1-2.76-1.24.17-2.56-.09-3,1.61-.18.66,1.15,3.55,1.25,4.33l-.11-.07-.08.14c-.23-.07-.4.1-.54.44a.41.41,0,0,0,.22.13.4.4,0,0,0,.26-.05.35.35,0,0,0,.17-.19.39.39,0,0,0,0-.26l.12.06.07-.14c1.6,1.64,3.57,3.13,3.54,5.4a1.86,1.86,0,0,1-2.36-.39c.16-.46,1-.06.81-.65-.11-1.07-.72.21-1.28-.15-.5-.72.62-.58.56-1.32-.42-.2-.61.78-1,.52.07-.39-.45-.56-.19-1,.14-.69.62.39.77-.3-1.44,0-2.18-1.52-2.91-2.69-.19-.09-.28.3-.5.08-.2-1.25-1.75-1.37-1.94-2.52-.45-.19-.56,0-.82-.44a2.19,2.19,0,0,1-.12-1.16c-2-.38-.84-2.16-2.87-3-.24-.3.53-.12.31-.56-.75-.06-.77-.7-1-1.26,1.47-.69,4.89,3,5.77.8.21-.51,0-1-.78-1.33l.08-.14-.12-.07c.14-.17.31-.17.43-.49l-.47-.26a1,1,0,0,0-.19.63l-.12-.07-.07.14c-.34.08-1.21.2-1.28-.16.28.09.39-.64.08-.68-.28-.33-.38.2-.54.43-.46-.15,0-.65-.47-.8-.82-.19-2.12.12-2.71,0-.16,0-.34-.45-.51-.45-.54,0-.89.45-1.4.32a2.44,2.44,0,0,0-.5-.46c-.6-.41-1.51-.14-1.68-1.09-.75.47-.93.39-1.51-.28-.48.6-1.07.58-1.63.74-1.75,1.1-2.11,3.79-3.43,5.94a9.76,9.76,0,0,0-.81,1.2c-.48,1.38.33,2.75-.1,3.76l-.12-.07-.08.14c-1.68-.76-2.43,2.57-2.85,3.53s-1.26,1.68-1.51,2.45c-.31,1,.23,2.17.28,3.61,0,.4-.22.81-.19,1.17.17,2.15,1.61,3.78.48,5.72,1.46,4.86,3.08,9.67,2.63,15.27-.18.54-.47.44-.65.91.7.56.38,1.53.16,2.46l-.16.06-.12.15c-.87-.93.51-2.75-.58-3.59l-.54,1-.08-.13h-.15a34.54,34.54,0,0,1-.49-6.81l.12.06.08-.14a5.06,5.06,0,0,1,.7,2.57c.11,0,.23.12.31,0,.56-1.31.07-3.16-1-3.11l-.16.28,0-.1-.09,0c-.72-1.18-.33-2.8-.79-4.07l.12.06.08-.14.35.2c.59-.61-.23-1.68-.74-1.14l-.12-.06L154,227c-.11-.1-.09-.26-.07-.41l.13-.11,0-.17.23.13a1.07,1.07,0,0,0,.2-.62l.11.06.08-.14c.07-.14.19-.12.28-.21-.56-.89,0-1.82-1.17-2.28.41-1.33-.56-2.12-.63-3.26-.2-.17-.33.06-.5.09l.08-.14-.12-.06c-.65-.21.25-1-.58-.87-.41.46.31.46,0,.89-1.2-.92-1.2-3.24-1-5.08l.12.06.07-.14a.72.72,0,0,0,.2.29.77.77,0,0,0,.31.16l.08.14H152c0,.31-.05.6.35.74.31-.45.41-.81-.08-.95l-.07-.14H152c.11-.52.18-1-.35-1.28-.24.24-.67.35-.58.77l-.12-.06-.08.14c-.28-.48-.9-1.4-.34-1.84-.1.2.21.31.3,0a4.31,4.31,0,0,1-.42-2.24c.47-.26.78,1,1.31.36a4.61,4.61,0,0,0-.47-2.44,4,4,0,0,1-1.82-.28,7.38,7.38,0,0,1-1.63-.89c-1.12-.06-1.89,1.71-3.05,1.4l-.1,0-.09,0c0-.59-.9-.25-.7.16a.48.48,0,0,0,.21.07.5.5,0,0,0,.21,0l-.07.14.12.07c-.15.17-.32.17-.43.5s.56.21.12.6c-2.77,3.87.11,7.78-1.44,11.95a15.11,15.11,0,0,1-2.31,4.2c.15-1.74.64-3.61-.33-4.91-1,1.8-.35,3.86-1.15,5.92-.13-.71-.07-.83-.89-.84.89-1.59-1.17-4-.75-5.51.49-1.78.28-4.22,1-5.84.17-.42.64-.82.8-1.19.61-1.38.34-2.82.66-4.21.09-.4.44-.84.5-1.18s-.21-.78-.05-1.29c.63-2,1.7-3.06,2.28-4.94.41-1.35,0-2.32,0-3.28,0-.68.39-1.17.3-1.65a15,15,0,0,0-1.9-5.05c-.77-1.26-2.29-2.8-1.68-4.37a2.82,2.82,0,0,1,2.39-1.59c1,.11,1.18,1.59,2.21,2.3,1.4,1,2.09.42,3.48-.28,1.21-3.31,2.38-7.38-.68-8.93-1.32,1.76-2.93,2-4.28,3.65-2.28.76-4.63,1.13-6.53,3.87-1.11.21-2.07,1.15-3.25,1-.62.95-1.41.76-2.09,1-.22.09-.37.44-.62.56-.5.28-1.17.11-1.5.27a6.26,6.26,0,0,0-2,1.65c-.44.84.12,2.31,0,3.27,0,.23-.33.48-.39.7-.18.69,0,1.58-.19,2.27-.35,1.48-1.4,3-.84,4.26.46.19.56.51.78.79-.39,1-1.2,2.12-2.28,2.21.38-.51-.23-.64-.59-.87.23-.74.14-1.36-.73-1.68-.91.74-1.71,3-1.93,4.59-.13.92.42,2.32.12,2.8s-1.16.2-1.43.67c-.08-1.24.66-2.82-.39-3.68-.6,1-1.63.89-2.36,1.81-1.48,1.86-1,3-1.34,4.89s-1,3.32-.8,4.48c.33,2.4,2.08,4.65,2.52,6.67,1.08-.5.48-1.52.56-2.42.12-1.31.85-3,.87-4.06,1,1.24-.37,3.43.21,4.84-.84,1,0,1.2-.77,1.94.84,1.21-.4,3.23-.53,4.81-3.6,1.6-3.16,5.88-4.55,9.33-.28,3.36.82,6.76-1.78,10.64l.07-.13-.12-.07a.36.36,0,0,0,0-.27.41.41,0,0,0-.19-.2l-.38.7.34.19-.09,0,0,.1a3.93,3.93,0,0,1-.7.71c-2.4.26-3.68-1-4-3.12a32.88,32.88,0,0,1,.56-10.07c-1.12-1.82-1.68-5.12-3-7.12-1.12-1.64-3.13-3.11-4.84-1.39-.71.72-.81,1.55-1.4,2a6.61,6.61,0,0,1-1,.38c-2.53.48-3.56-2.46-4.5-3.92-.62-1-1.56-1.74-2-2.59-.15-.23-.11-.64-.28-.87-.91-1.18-1.92-1.94-2.37-3.12-.21-1.06.52-2.16.22-3.15-.12-.43-.78-.79-1-1.26-.28-.67.1-1.48-.56-1.76.48-.84,0-1.8.07-2.87,0-.31.34-.58.34-.9s-.3-.77-.23-1.22c.12-.77.76-1.52.92-2.22.46-2-.5-3-1.82-4.1a2.11,2.11,0,0,0-1.31,1.83c-1.36.67-1.53,2.37-2.63,3.64.69.34.23,1.1-.31,1.65.16,0,.61-.09.28.33.41,1.19-.52,2.55-1.07,4.14-.49,1.44-.45,3-.76,4.13-.52,1.81-1.68,2.19-2.16,3.36-.32-.68-.74.19-1.13.66,0,.56.77-.28.39.39-.2.74-.64.26-.84,1,.58,0,.6-.09.44.59l-.12-.06,0,.21a.23.23,0,0,0-.12-.06l-.22-.14a.85.85,0,0,0-.12.49l.23.13.12.06.08-.14c.23.2-.41.74-.23,1l-.12-.06-.08.14c-.32-.17-.64.51-.58.78l.12.06-.1,0,0,.1c-.43.59-.65,1.87-.3,2.19-.77-.42-.64,1.45-1.27.94-.92-.92.3-2.8.84-4.26a35.14,35.14,0,0,0,2.1-6.85c.25-1.52.11-2.71.23-3.7.25-2.11,1.16-3.92,2.42-4.12.28-1.74,1.37-3.45,1.93-5.13.14-.4,0-.79.19-1.17.21-.53.74-.94,1-1.47.07-.19,0-.7,0-.89.6-2.16,2-4.13,2.19-5.89.05-.38-.18-.75-.12-1.15s.42-.81.5-1.18.06-1.25.15-1.92c.28-2,.31-2.52-.56-3.94a10.08,10.08,0,0,1-1.55-2.67c-.33-1.5.07-2.31,0-4,2-2.91-1.94-2.13-2.75-3-.21.34-.47.45-.77.3-5.45-2.86-7.43-7.08-3-13.83a10,10,0,0,0,3.17-2.43c-2.27-1.75-6.38-4.68-9.61-3.46-1.47-.84-3-1.17-4.11-2.44-.79-.89-1.18-2.47-2.75-3-.22-.43,0-1-.08-1.51-.21-.81-.89-1.09-1.28-1.79-.2-.36-.16-.93-.35-1.29-.91-1.6-2.28-2.81-2.45-4.61a8.23,8.23,0,0,1-1.59-2.33,4.6,4.6,0,0,0-1.59,1.49C54,145.79,53,147,52.22,148c-1.19,1.58-3.1,4.16-3.54,5.88-1.51,5.88-3,12.68-6.3,18.55-.17.6-.56,0-.74.51-.1.3.39.36,0,.75-1,.71-.35,1.43-1.43,2.31l-.07-.14H40c-.25-1.09.64-2,1-3.11.28-1,.07-2.07.34-3.08.14-.48.47-.87.58-1.33.23-1,.14-2.17.5-3.36.1-.36.49-.75.61-1.12.26-.75.23-1.55.5-2.27a60.92,60.92,0,0,1,5.82-10.82c1.12-1.77,1.84-3.53,2.89-5.5s3.06-4.66,3.46-6.28c.26-1.05-.29-2.17-.23-2.87.12-1.54,2-4.69,1.64-6s-2.06-2.14-3-1.66c-1.31-.56-1.91-1.68-2.87-2.49-.36-.3-1-.25-1.35-.56s-.42-1.11-.7-1.48-1-1-1.44-1.52a18.84,18.84,0,0,0-1.36-1.66c-.6-.41-2.72-.7-3.4.14a7.3,7.3,0,0,0-.5,1.73c-1.12,3.51-2.12,6.8-5,9.62l-.09,0-.1,0c.3-.74-.88-.07-.07.14l0,.11.08,0c-.36,1.15-1,.72-1.5,1.35.23.41-.23.64-.3,1.11-.11.66.33,1.15.35,1.83a9,9,0,0,1-1.35,4.9c-.59.84-2.55,2.39-4,1a5.93,5.93,0,0,1-.94-2.69,6.26,6.26,0,0,1,1.84-4.44c1-.87,2.65-.56,3.57-1.51,1.8-1.88,1.07-4.2,1.92-5.67s3-2.1,3.58-4c.33-1.13-.84-2.32-.86-3.38,0-.43.39-.87.39-1.24a3.59,3.59,0,0,0-1.28-2.35c-.19-.13-.72,0-.84-.1-.84-.35-1.87-1.72-2.84-2.28-.25-.15-.61-.06-.77-.25-.45-.5-.44-1.81-1.17-2.27a4.87,4.87,0,0,0-.4-4.22c-.52-1-1.08-2.33-1.63-3.63-.75-1.77-1.64-2.44-2.57-4.13a13.43,13.43,0,0,0-1-2c-1.23-.84-3.33.89-4.84.8a3.37,3.37,0,0,1-1.44-.42c-1.93-1.33,2-3.64,2.63-4.2,1.49.28,3.06-1,4.6-1.48a7.77,7.77,0,0,0,2.47-.64,10.64,10.64,0,0,0,1.7-1.43c.11-1.06-.81-1.72-1.32-2.54a1.19,1.19,0,0,1-.5.63c-1.4,0-2.63.6-4.14.64a33.66,33.66,0,0,1-6.51-.84c-.82-.15-2.42-.28-2.78-.44a2.81,2.81,0,0,0-.42-.6c-.2,0-.67.41-1,.38s-1-.62-1.47-.63-.49.38-.9.24a42.49,42.49,0,0,0-7.89-.51c.11,0,.2,0,.28-.22-.76-.36-.56.09-.89.24a3.6,3.6,0,0,1-1.57.6c-.78,0-4.2-1.18-3.33-2.2,1.66-2,5.29.43,7.36,1,1.25.31,2.46-.16,3.52-.07,1.46.13,2.91.58,3.94.54.5,0,1-.42,1.48-.47a13.51,13.51,0,0,1,1.81.28c.37,0,.81-.25,1.2-.25.84,0,1.62.38,2.37.38.4,0,.87-.36,1.28-.39a16.17,16.17,0,0,1,3,.37c1.78.28,3.33,1,4.84.28-.34-1.29.24-2.94.69-4.54,2.69-1.43,2.38-6.32.21-7.53-.7.28-1.75.61-2.32-.18-.88.66-1.94.35-2.82,1-.37.14-.17-.19-.59-.32-.84,2.08-5.72,2.17-4.68,0a4,4,0,0,1,2.36-1.25c1.53,0,3.19,1.4,4.41.23a8,8,0,0,0,.37-6.16,5.5,5.5,0,0,0-.9-2c-.28-.31-1-.38-1.4-.76s-.31-.68-.57-.87c-1.78-1.23-5-1.42-5.93-2.71-1.1-.32-4.73-.32-5.46-2.45a3.21,3.21,0,0,1,.38-2.34c.64-.86,2-.59,2.94-.39,1.1.26,2.74.11,3.64.55,1.59.77,2.14,2.94,3.61,3.62.71.32,1.61,0,2.21.11,1.66.4,2.8,1.49,4,1.29s1.68-1.36,3.18-1.9a4.72,4.72,0,0,1,2.82.09c1.31.39,1.49,1.36,2.33,1.83.54.31,1.72.13,2.74.23A4.49,4.49,0,0,0,44.59,63c2-.68,3.34-5.37,2.65-6.73-.23-.45-.84-.48-1.08-.77a6.44,6.44,0,0,1-1-2.56c-.09-.59.3-1.49.08-2.32A13.6,13.6,0,0,0,44.28,49,6.09,6.09,0,0,0,42,46.52c-.22-.64-.13-1.4-.77-1.88a3.08,3.08,0,0,1,1.07-2c1.48-.4,2.06,1,3.18,1.38A4.42,4.42,0,0,0,47.68,44c.67-.11,1.58-.65,2-.7s.5.31.77.25c.49-.13,1-.72,1.44-.67.67-1,1.68-1,2.43-1.94.53-.69.61-1.64,1.12-2.3s1.55-.71,1.9-1.51c.18-1.12-1.6-2.16-2-3.27-.28-.8.15-1.93-1-1.47-.91-2-2.08-.58-3.17-.28-.22.07-.5-.25-.78-.23-.67,0-1.18.34-1.62.2a3.85,3.85,0,0,1-2.24-2.53c-.39.37.32.32-.07.69-1-.65-1.83-1.45-2.71-.58a4,4,0,0,1,.34,2,3.89,3.89,0,0,1-.72,1.94c-1.44.32-2.49,0-2.8-1.53-.16-.82.43-1.4,0-1.85s-2.37.14-3.33,0c-3.57-.53-4.87-4.41-4.72-7.1a3.81,3.81,0,0,1,.74-1.6c.88-1.29,2.57-3.67,3.55-4.24.82-.48,1.59-.28,2.59-.58.84-.25,1.64-.84,2.24-.77a5.87,5.87,0,0,1,2.87,1.4c.84.76,1.08,3,2.4,3.33,1.06.25,3.07-1.74,4.72-1.42.92.19,1.4.93,2.24.87,1.37-.08,3.43-1.56,4.56-2.24.16-.28.31-.56.46-.84,3.6-1.86,7.43-2.45,11.21-3.3,1.4,1,2.71-.19,3.79.81a18.58,18.58,0,0,1,5.85.12c.56.13.88.56,1.23.5a29.82,29.82,0,0,0,4-1.25,12.08,12.08,0,0,1,5.34.2c.36.12.69.53,1,.58.86.1,1.61-.72,2.36-.71a4.9,4.9,0,0,1,2.09.6c.4.28.34.86.82,1,.9.26,3.21-1.07,4.14-1.73a10.68,10.68,0,0,0,2.08-2.68,50.31,50.31,0,0,1,4.32-4.54c1-1.07,1.58-2.24,2.67-2.9a15.4,15.4,0,0,1,3.19-1.34,18,18,0,0,1,2.4-.5c.49,0,.91.28,1.4.22a15.84,15.84,0,0,0,1.82-.82c.76-.25,1.51-.25,1.89-.42.78-.34,1.2-1,1.7-.88,1.66.28,2.28,2.17,2.64,3.45-.28.43-.12.7-.5,1.18,0,.31,0,.65.28.87-1.26,2.68.2,4.18.25,6.15,0,.66-.37,1.68-.42,2.67,0,.56.2,1.17.12,1.71a15.66,15.66,0,0,0-.56,3.5,25.52,25.52,0,0,0,.75,4.42c.21.78.62,2.72,1.12,3.16,1.66,1.48,3.72-.14,4.87-1.14.46-.4.9-1.12,1.4-1.42.76-.46,2.92-.84,3.92-.22a2.59,2.59,0,0,1,1.09,2.42c-.6,2.31-3.64,2.85-5.37,4-2.52,1.63-2.1,4.42-.8,6.12.15.18.54.22.7.38,1.14,1.16,1.78,3,3.26,3.43a9.93,9.93,0,0,0,.2,1.56c.34.33.56,0,.89.31-.11,1.53,1.68,2.33,1.86,3.75.42,0,.76-.36,1.16-.46,1.06.39,1.71,1.62,2.68,2,1.36.56,3.08.27,4.41.79,1.94.76,3.54,2.58,4.85,3.57.62.47,1.29.41,2.13.8.67.31,1.19,1,1.9,1.23a18.64,18.64,0,0,0,3.13.63c2.07,3.1,4.9,1,7.32,1.29,1.89.22,4.21-.33,6.11-.1.34-.4.76-.38,1.12-.65,1.93.12,3.3.67,4.84.28,1.12-.28,1.82-1.29,2.86-1.89.71-.41,1.61-.26,2.2-1,.71.2,1.36-.44,2-.56.28-.05.54.27.78.24s.44-.31.66-.36.63.14.84.1a8.9,8.9,0,0,0,3.51-1.7c1.72-1.31,2.36-.84,4.3-.92.53,0,1-.25,1.51-.26a11.89,11.89,0,0,1,1.58.14c1.07.12,2.38.08,3.18.28,1.61.42,2.76,1.68,4.22,2.5.75.42,1.71.33,2.21,1.22,6.64,1.19,12.15-3.49,18.41-4.27a7,7,0,0,1,6-.36c3.09,1.35,3.31,5.63.37,8.4-.82.76-3.57,2.39-3.92,1.31-1.07,1.08-2.43.69-3.56,1.51-.38-.21-.71-.09-1.12-.44-2,.73-4.18.24-6.11,1.19-1.12-.84-2-.13-2.9,0-.72-.78-1.57-.18-2.6-1.06a29.73,29.73,0,0,1-5.06.68c-.89,0-1.83.82-2.71,1.06-1,.28-2.1.07-3.17.25-.84.15-1.61.61-2.36.72a24.64,24.64,0,0,1-2.52-.12,27.15,27.15,0,0,0-4.76.67c-1.43.31-2.78.48-3.91.76a4.76,4.76,0,0,0-3.36,3.08c-2.36,6.34,8.06,7.15,11.31,7.49.24-.39.54-.47.78-.84,2.83-.59,6.88-1.76,10.21-.4A10.69,10.69,0,0,1,209.77,75c.86.87,1.08,2.61,2.64,2.91a27.19,27.19,0,0,1,2.87-.79c.32,0,.58.3.89.3,1.68,0,3.42-1.09,4.79-1.55.68-.22,1.43-.05,2.13-.28,1.22-.4,1.88-1.45,3.08-2.3a15.94,15.94,0,0,1,4.25-1.68,20.94,20.94,0,0,0,4.65-.72c1.56-.44,3.24-1,4.64-1.28s2.8-.16,4-.35c2.23-.38,4.42,0,6.77-1,1.25.56,2.11-.35,3.08-.66.56-.18,1.14,0,1.75-.14,1.65-.41,3.39-1,5.26-1.29a23.35,23.35,0,0,0,5.33-1.44,17.87,17.87,0,0,1,2.36-1.25c.62-.15,1.34.12,2.17-.08.32-.08.61-.47.92-.59,1.7-.65,3.59-.73,5.05-1.42,1.06-.51,2.3-1.75,3.55-2a16.08,16.08,0,0,0,2.17-.09c1.28-.35,3.1-1.48,4.91-2,.3-.09.69-.06,1-.18,2.24-.84,4.7-2.26,7-.54,1.23,1,1.65,2.73,0,4.92-1.78,2.39-5,2-7.69,2.69-1,.24-1.89.63-2.75.86s-1.87.23-2.83.45c-1.42.32-2.95,1.18-4.48,1.54a41.25,41.25,0,0,0-4.21.78c-.24.08-.49.42-.74.5-1.59.56-3.26.53-4.91.94-1.37.34-2.71,1-4,1.25-.59.09-1.18-.16-1.79-.07-.77.13-1.56.39-2.39.5a27.87,27.87,0,0,0-3.52.62c-1,.26-1.94,1.09-2.94,1.48a33.68,33.68,0,0,0-3.83,1.72c-.38.2-.84.2-1.27.39-1.39.62-2.62,1.9-3.79,2.47-1.38.67-3.22.65-4.29,2a10,10,0,0,0-.58,1.32c-2,3.43-4.83,4.92-7.21,6.76-.31-.28-.48.06-.78-.24-1.89,1.19-4,1.16-6,1.81-.26.28-.58-.79-1-.17-.34.39.15.45,0,.75-1.79-.1-2,1.61-2.55,3-.36.8-1.26,1.77-1.65,2.73-.23.53-.11.84-.39,1.25-.78,1.07-3.08,2-3.79,2.47-.4.23-.65.67-.89.78-.73.35-1.4.16-2,.56a9.63,9.63,0,0,0-2.77,5c-.22,2.68,2.65,3.28,4.73,3.5.64.07,1.33-.15,1.86-.07.3,0,.43.37.7.39.87,0,1.7-.35,2.47-.1.35.12.56.49.84.65,1.1.59,3.25.8,4.61,1.26.91.3,2.09-.58,2.94-.39.28-.63.73-.53,1-1.06,1.5-.39,2.59-.11,4-.91s2.72-2.64,4.13-2.82c2.27-.28,4,2.77,6,3.66.48.21,1.12.06,1.62.35,1.15.64,1.84,2.6,3,3.64.86.77,1.34,1.5,2.29,1.62a20.51,20.51,0,0,0,4.92-.39c.23-.08.29-.42.53-.43,1.93-.18,3,.57,4.23,2.5a15.16,15.16,0,0,1-1.12,2.29c-1.9.74-3.78,1.62-5.69,2.34a3.94,3.94,0,0,0-1.77-.16,4,4,0,0,0-1.67.64,2,2,0,0,0-1-.38c-2,.62-3.85,2.33-6,2.15-1,1.23-3.24.71-4.63,2.37-.42.49-1.11,2.08-.84,2.62.36.75,3.92,1.71,4.61,1.81.47.06.91-.26,1.31-.19.58.1.94.65,1.63.89,1.81.65,3.64.28,5.49.47,1.54.16,3,.8,4.46,1,1.07.15,2.24-.11,3.25.14.75.19,1.2.68,1.82.82s1.22,0,1.78.07a25.4,25.4,0,0,1,3.56.68c1.73.42,3.71.07,5.46.28.87.1,1.6.63,2.44.79.65.13,1.4,0,2.09.06s1.48.56,2.21.67c2.06.31,4.76-.8,7.15-.07,2.15.64,3.85,1.68,5.47,1.9s2.8-.54,3.87-.42c1.64.18,5.26,1.48,4.48,2.83-.48.85-4.6.82-5.3.57-1-.39-1.57-1.51-2.56-2-2.68-1.21-6.14,1.52-8.48.26-.68-.37-1-1.32-1.59-1.78a12.65,12.65,0,0,0-3.64,0c-1.63.08-2.77-.69-4.45-1-1.19-.22-2.85.35-3.68-.75a12.29,12.29,0,0,1-5.88-.87c-4.89.12-10-1.53-14.67-1.68-.53-.15-.15-.67-.78-.79-.34-.16-.53.49-.89.24a8.26,8.26,0,0,0-4.64-.36c-.79-1.06-2.21-.71-3.18-.84-.19-.18.34-.65-.23-.68-.48-.33-.72.6-1.16.46.09-1.71-1.78-.51-2.67-.92s-.43-1.76-1.51-1.38c-.71.64.34.59,0,1.09-1.33-.91-2.42,0-3.6.76-.6.36-1.34.45-1.94.75a19.42,19.42,0,0,0-2.35,1.8c-1,.77-1.94,1.11-2.4,1.6a8.18,8.18,0,0,0-1.81,3.56c0,.87.62,1,1.17,1.73s.86,2.44,2,2.93c-.1.28-.63.75-.16.84,1-.63,1.74.46,2.48,1-1.25.47-2.66-.75-4.3-1.27-.09-.61.89-.71.58-1.32a3.11,3.11,0,0,1-3-.56c-.3,1-1.59.48-2.16,1.18a2.64,2.64,0,0,0,0,2.93,14.63,14.63,0,0,0,2.09,1.15c5.06,3.07,10.82,7,16,8.69.14.31-.31.84,0,1.09a23,23,0,0,0,3.46,5.54,17.31,17.31,0,0,0,2,2.38,19.58,19.58,0,0,0,2.91,1.6,34.69,34.69,0,0,1,4,2.92c2.86,2.31,4.45,5.95,7.64,7.28.33.14.76.11,1.09.23,2,.77,3.92,2.21,6.39,3,1.85.56,4.58,1.12,6.12,2.09,1.25.79,2.31,2.26,3.83,2.65.74.18,1.71.49,2.64.72,1.46.35,3.06.31,4.48.64,1.89.44,3.6,1.28,5.35,1.85.91.28,2.28.44,3.36.76,2,.56,4,1.34,5.85,1.75s3.45.41,4.88,1a5.78,5.78,0,0,1,2.71,2.22c-.84.36-1.29-.18-1.66.56-1,1.86,4.09,1.68,3.3,3.62-.59,1.44-2.7-.08-3.49-.28-1.27-.3-2.67.15-3.67-.2-2.05-.7-3-3.92-5.86-3.94-.4,0-.89.44-1.16.46-1.51.07-1.69-1.12-2.63-1.82a28.36,28.36,0,0,0-4.23-2c-1.34-.64-2.82-1.12-4.07-1.68ZM109.5,248.42a.37.37,0,0,0,.21,0,.36.36,0,0,0,.18-.12c.73-2-.76-3.06-.52-4.83C108.39,245.07,108.92,247.05,109.5,248.42Zm-.33-6.54c.59-1.25,1.58-3.61.77-4.68a6.71,6.71,0,0,0-.77,4.68Zm-3-5.08a2.62,2.62,0,0,0-.39-2.58A2.24,2.24,0,0,0,106.22,236.8Zm-28.72-18c.17.13.28,0,.43,0,0-1.15.87-2.67.34-3.64C77.41,216.27,77.63,217.76,77.5,218.85Zm30.35,2.65c.43-2.36-1.56-4.34-3.73-5.32-1.07,1.45.36,1.87,1.52,3s1.17,1.71,2.21,2.31ZM86,204.78l.24.13.15-.28a1.71,1.71,0,0,0-.23-.13l-.16.28Zm70.56,33.29a1.62,1.62,0,0,0-.2-2.11A1.57,1.57,0,0,0,156.58,238.07Zm.09-5.95c.23.39.69-.44.23-.42C156.83,231.84,156.75,232,156.67,232.12Zm-.81-1,.35.2c.16-.21,0-.3.12-.48l-.24-.13C156,230.85,155.94,231,155.86,231.12Zm-.34-1.28c.34-.58.62-1.12-.05-1.3C155.08,229.14,155,229.62,155.52,229.84Zm-36.36-22.51.24.12.15-.28-.23-.13c-.06.11-.11.2-.17.29ZM104.78,198c.5-1.26-.53-2-.78-3s.12-2.52-1.09-3c-3.64,2.52-1.62,5.83,1.87,5.95Zm36.53,15.88.35.19.23-.42-.35-.19Zm-17.62-10,.34.19.24-.42a3.9,3.9,0,0,1-.35-.19Zm28.51,13.11.35.2.23-.42-.35-.2ZM141,209.84l.24.13.15-.28-.23-.13C141.05,209.65,141,209.75,141,209.84Zm10.54,3.42c.33.19.88-.81.54-1-.59-.37-.83.75-.55,1Zm50.06,24.58c.34-.46-.11-.62-.47-.8a.69.69,0,0,0,.09.48.73.73,0,0,0,.37.32Zm-51.16-30.28c.21.2.33-.08.46-.28a.45.45,0,0,0-.28.06A.43.43,0,0,0,150.39,207.56ZM195.17,228c.26-.43,0-.64-.28-.88C194.55,227.56,194.84,227.78,195.17,228ZM37.6,130.88l.35.19c.07-.13.15-.28.23-.41C37.93,130.49,37.74,130.56,37.6,130.88Zm139.25,73.75.16-.28C176.52,203.9,176.38,205,176.85,204.63Zm6.62-.19c.38.36.81-.42.31-.56C183.58,204.27,183.43,204.07,183.47,204.44ZM177.84,199c.18-.53.11-1-.38-.94-.53.57-.05,1.07.38.94Zm8,2.77.08-.15c.05.65.65-.43.07-.14l-.11-.06-.08.14c-.17-1.22-.16-3.84,1.19-4.62-.2-.54-.29-1.6-1.12-1.53l.08-.14-.12-.06-.34-.2-.16.28.35.2,0,.1.1,0c-.24.43-.06.68-.12,1-.28.21-.35-.59-.84-.65-2.5,1.14-2.43,5.17.25,5.6-.07.38.39.67.66.18ZM152,180.24c.65.53,1.14-.53.84-1-.37-.28-.86.62-.83,1Zm.58-1.32c.13-.23.26-.46.38-.7-.33-.31-.56,0-.77.31a.78.78,0,0,0,.16.24.61.61,0,0,0,.24.15Zm45.58,5.54.23.13.15-.28-.23-.13Zm39.3,10.86c-.05.18.25.28.35.19.27-.24-.25-.55-.35-.18Zm-8.73-25.9c1-1.09-.31-1.23.07-2.32-.41-.51-.53.46-.89.24-.65-.52,0-1.5-.43-2.24-.75-1.17-2.8-1.25-3.95-1.08a2.75,2.75,0,0,0-2.71-1.12c-.18,1.52,1.29,1.45,2.48,2.1C225.15,166,227,168.6,228.7,169.42Zm-.52-6.46c-.43-1.48-3.08-1.48-4.34-2-.19.77.47,1.2.08,2,1.39-.22,2.88.17,4.26,0Zm32.09,18.7a.44.44,0,0,0-.14-.22.41.41,0,0,0-.25-.11.39.39,0,0,0-.26,0,.5.5,0,0,0-.19.19C259.48,181.88,260.08,182.25,260.27,181.66ZM131.78,111.47c.16.14.28,0,.42,0,0-.13,0-.2,0-.34l-.23-.13ZM248.72,174.6c-.2.24.41.49.43.05l-.24-.13C248.87,174.66,248.78,174.63,248.72,174.6ZM284.64,190c-.19-.86-2-1.21-2.76-1.34C281.86,189.43,283.83,189.92,284.64,190Zm1.74.41c.22.38,1.4,1.25,1.78.61a2.86,2.86,0,0,0-1.79-.61Zm2.8,1.53c.39-.36-.72-1-.81-.45,0,.19.56.71.79.45ZM138.66,108.34c.24-.35.09-.56-.24-.68C138.19,108,138.33,108.2,138.66,108.34Zm154.41,84.43c.17.14.28,0,.43.06C293.7,192.59,293.08,192.33,293.07,192.77Zm3.57,1.77c.41-.53-.36-.81-.58-.31.3.29.17.22.58.32ZM167.09,118.31a1.9,1.9,0,0,0-.31-2.18A1.39,1.39,0,0,0,167.09,118.31Zm.73-1.61.35.2c.21-.27.12-.42.19-.62C168.13,116.2,168,116.37,167.82,116.7Zm10.45,3c.58.63,1.28-.28,1.28-.93C178.92,118.21,178.38,119.12,178.27,119.72ZM68.88,58l.16-.28C68.54,57.28,68.41,58.35,68.88,58Zm142.28,77.05.23.12.16-.28-.24-.12c0,.09-.09.18-.14.28Zm-30.65-18.3c.56.52,1.28-.22,1.28-.93-.4-.43-.62,0-1-.17A3,3,0,0,0,180.51,116.76Zm14,5.34c.56-.72-.21-1.23-.7-.93C193.45,121.93,194,122.2,194.53,122.1Zm3.56-1c.28.21.53.23.69-.16a.61.61,0,0,0-.15-.24.63.63,0,0,0-.23-.16Zm1.2-1.34.23.13c0-.13.12-.11.19-.08s.1-.19.16-.28c-.12,0-.09-.12,0-.2l-.24-.13c0,.13-.12.11-.19.07l-.15.28c.11,0,.08.12,0,.21Zm3.94-.56c.21.19.36.07.54.11.21-.26.13-.41.2-.62-.44-.16-.65,0-.74.51ZM201,117.62c.33.31.56,0,.77-.3-.23-.13.06-.47-.31-.54a.91.91,0,0,0-.35.35.93.93,0,0,0-.11.49ZM81.24,49.88c.23.39.69-.44.24-.42ZM58,36.56c.07-.39.17-.79-.39-.94-.33.49.19.66.38.94ZM92.82,52.78l.23.13.16-.28L93,52.5l-.16.28Zm27.93,6.78a.62.62,0,0,0,.92-.58.59.59,0,0,0-.93.58Zm-17-11.92c0,.07.11.39.28.34C104.32,47.87,103.81,47,103.7,47.64Zm24.06,11c.28.2.53.22.69-.17-.29-.21-.54-.22-.7.17Zm7.12,1.91c.28-.77.53-1.52-.35-1.83-.72.93-.54,1.85.34,1.83Zm-13.16-7.42c.24.17.43.09.58-.23-.26-.16-.46-.08-.61.23Zm17.95,8.06.23.13c0-.09.1-.19.16-.28l-.23-.13C139.77,61,139.73,61.13,139.67,61.23Zm-.47-3.53a.76.76,0,0,0-.33-.38.75.75,0,0,0-.49-.07c-.62.87.44,1.31.82.44Zm.07-.14.23.12a2.54,2.54,0,0,0,.16-.28l-.23-.13c-.05.09-.1.19-.16.28Zm2.25.87.34.19.31-.56c-.28-.22-.48,0-.66.37Zm2.58-1.12.24.12.15-.28-.23-.13Zm4.46,1c.28.2.53.22.69-.17a.61.61,0,0,0-.15-.24.65.65,0,0,0-.24-.15c-.09.17-.2.35-.3.54Z"/></g></g></svg>