<svg width="1440" height="1024" viewBox="0 0 1440 1024" fill="none" xmlns="http://www.w3.org/2000/svg">
<rect width="1440" height="1024" fill="white"/>
<path d="M927.381 256.359V442.217H904.301C895.441 407.34 886.593 372.467 877.758 337.598L877.173 337.697V442.142H851.64V256.173H877.26C885.165 288.495 893.054 320.846 900.925 353.226L901.423 353.163V256.669C903.827 255.9 923.831 255.739 927.381 256.359Z" fill="#F5F5F5"/>
<path d="M677.604 451V637.044H654.561C645.743 602.316 636.924 567.546 628.106 532.735H627.471V636.982H602V451.025H627.546L651.211 547.978H651.871V451.05L677.604 451Z" fill="#F5F5F5"/>
<path d="M312.379 485.573C312.507 479.51 311.524 473.474 309.477 467.762C306.612 460.221 301.381 455.049 293.559 452.879C289.632 451.8 285.961 452.09 281.889 452C267.951 451.789 257 454.5 240.5 455L237 454.5V653.5L240.425 652C254 647.5 266.5 642.5 280 637.5C283.551 637.5 282.5 637.199 285.513 637.199C298.08 636.231 306.6 629.348 310.225 617.354C311.702 612.307 312.428 607.071 312.379 601.813C312.429 563.067 312.429 524.32 312.379 485.573ZM283.097 597.088C283.04 599.557 282.664 602.008 281.976 604.381C281.64 605.854 280.847 607.185 279.709 608.185C278.571 609.185 277.146 609.802 275.636 609.949C272.398 610.346 269.122 610.346 265.46 610.557V476.73C269.11 476.73 272.672 476.494 276.184 476.73C277.546 476.866 278.829 477.426 279.853 478.33C280.877 479.234 281.59 480.436 281.889 481.765C282.43 483.973 282.846 486.209 283.134 488.463C283.168 488.876 283.168 489.29 283.134 489.703C283.134 525.506 283.122 561.301 283.097 597.088Z" fill="#F5F5F5"/>
<path d="M1010.97 273.487C1008.05 265.065 1002.31 259.546 993.629 257.45C989.956 256.574 986.196 256.116 982.419 256.085C968.719 255.924 954.943 256.011 941.217 256.023C940.246 256.023 939.287 256.122 938.191 256.184V442.365H941.579C954.507 442.365 967.448 442.365 980.389 442.365C983.176 442.37 985.96 442.187 988.723 441.819C999.77 440.256 1007.31 434.377 1010.94 423.698C1012.71 418.218 1013.55 412.485 1013.43 406.732C1013.43 367.869 1013.43 329.007 1013.43 290.144C1013.55 284.493 1012.72 278.862 1010.97 273.487V273.487ZM984.313 394.329C984.313 397.802 984.239 401.262 984.052 404.722C983.964 406.205 983.692 407.672 983.242 409.088C982.856 410.648 981.99 412.049 980.763 413.092C979.536 414.136 978.011 414.77 976.403 414.905C973.277 415.215 970.102 414.967 966.776 414.967V281.474C970.189 281.474 973.452 281.288 976.74 281.474C978.363 281.534 979.912 282.162 981.117 283.246C982.322 284.33 983.105 285.801 983.329 287.402C983.991 290.799 984.325 294.25 984.325 297.709C984.367 329.932 984.363 362.143 984.313 394.341V394.329Z" fill="#F5F5F5"/>
<path d="M661.553 440.381C659.224 435.42 659.125 430.036 659.125 424.654C659.125 404.329 659.125 384.005 659.125 363.681C659.122 361.608 659.001 359.538 658.764 357.479C658.538 354.447 657.55 351.52 655.892 348.967C654.234 346.414 651.957 344.317 649.273 342.869C648.675 342.534 648.102 342.162 647.168 341.628C654.043 337.908 657.219 332.165 658.477 325.232C658.903 322.774 659.115 320.284 659.112 317.79C659.17 306.693 659.17 295.593 659.112 284.488C659.173 280.22 658.602 275.965 657.418 271.862C655.102 264.346 650.194 259.372 642.472 257.462C639.101 256.623 635.646 256.169 632.172 256.11C617.138 255.961 602.092 256.048 587.059 256.11C586.299 256.11 585.539 256.234 584.755 256.309V442.154C589.151 442.724 610.736 442.551 613.078 441.881V400.542C613.078 393.696 613.078 386.899 613.078 380.016C613.078 373.132 613.003 366.236 613.078 359.439C616.676 359.27 620.281 359.294 623.876 359.513C628.198 360.01 630.104 362.279 630.503 366.62C630.677 368.394 630.702 370.193 630.702 371.979C630.702 390.211 630.702 408.455 630.702 426.7C630.709 429.473 630.87 432.243 631.188 434.997C631.499 437.478 631.873 440.12 633.679 442.179H661.416C661.517 441.956 661.592 441.723 661.641 441.484C661.682 441.114 661.652 440.74 661.553 440.381V440.381ZM630.776 319.737C630.77 321.914 630.486 324.081 629.93 326.187C629.542 327.952 628.557 329.531 627.14 330.66C625.723 331.788 623.96 332.399 622.145 332.388C619.281 332.562 616.416 332.388 613.339 332.388V281.288C617.25 281.288 620.999 280.867 624.723 281.723C626.015 281.931 627.214 282.521 628.165 283.417C629.116 284.313 629.774 285.472 630.055 286.745C630.512 288.668 630.754 290.636 630.776 292.612C630.851 301.674 630.851 310.716 630.776 319.737V319.737Z" fill="#F5F5F5"/>
<path d="M956.615 637H928.535V555.688H909.327V636.976H881V451.176H909.154C909.154 452.291 909.278 453.431 909.278 454.559C909.278 476.95 909.278 499.34 909.278 521.731V525.374H928.411C928.411 521.198 928.411 517.083 928.411 512.981C928.411 508.879 928.411 504.851 928.411 500.798V451.028C937.879 450.966 947.159 451.028 956.378 451.028C957.086 453.37 957.224 633.579 956.615 637Z" fill="#F5F5F5"/>
<path d="M313.661 441.457C311.593 442.044 289.539 442.232 285.254 441.632V359.502H265.781V441.769H237.6C236.974 439.656 236.386 257.14 237 252.5C239.118 251.9 261.797 252.875 265.719 253.5L265.719 329.049H285.166V254.235H313.347C313.986 256.336 314.275 435.516 313.661 441.457Z" fill="#F5F5F5"/>
<path d="M1040.99 543.436C1040.99 525.641 1040.99 507.846 1040.99 490.051C1041.04 483.85 1040.08 477.682 1038.15 471.785C1034.5 460.897 1027.04 454.341 1015.71 452.127C1008.71 450.86 1001.56 450.66 994.496 451.534C980.358 453.083 971.318 460.639 967.374 474.204C965.688 480.376 964.892 486.754 965.012 493.148C965.012 526.706 965.012 560.264 965.012 593.821C965.012 595.66 965.012 597.45 965.121 599.325C965.34 605.814 966.692 612.216 969.115 618.245C973.107 627.512 979.986 633.402 989.907 635.628C997.74 637.246 1005.8 637.435 1013.71 636.185C1025.42 634.54 1033.45 628.141 1037.58 617.035C1039.89 610.55 1041.03 603.711 1040.95 596.833C1041.03 579.038 1040.99 561.231 1040.99 543.436ZM1012.62 595.454C1012.64 598.058 1012.35 600.655 1011.78 603.196C1010.72 607.648 1007.77 609.862 1003.49 609.934C999.22 610.007 995.58 607.841 994.46 603.607C993.693 600.521 993.312 597.351 993.327 594.171C993.23 569.239 993.327 544.319 993.327 519.387C993.327 510.496 993.242 501.604 993.327 492.773C993.333 489.879 993.659 486.995 994.301 484.172C995.36 479.793 998.257 477.773 1002.82 477.7C1007.39 477.628 1010.53 479.576 1011.71 484.015C1012.37 486.633 1012.7 489.323 1012.68 492.023C1012.77 509.322 1012.68 526.621 1012.68 543.908C1012.68 561.195 1012.7 578.264 1012.62 595.454Z" fill="#F5F5F5"/>
<path d="M1125.99 543.467C1125.99 533.885 1125.99 524.308 1125.99 514.735C1125.99 505.552 1125.99 496.358 1125.86 487.175C1125.77 481.362 1124.65 475.61 1122.56 470.178C1118.7 460.246 1111.45 454.306 1101.01 452.201C1093.83 450.849 1086.47 450.637 1079.22 451.572C1065.91 453.096 1056.98 460.04 1052.81 472.828C1050.85 479.121 1049.91 485.682 1050.01 492.269C1050.01 526.409 1050.01 560.549 1050.01 594.689C1050.01 595.899 1050.01 597.012 1050.07 598.161C1050.48 605.238 1051.42 612.219 1054.37 618.728C1056.14 622.996 1058.94 626.767 1062.53 629.71C1066.11 632.652 1070.37 634.676 1074.92 635.604C1082.36 637.2 1090.04 637.43 1097.57 636.281C1112.3 634.285 1120.7 626.41 1124.15 612.025C1125.43 606.562 1126.05 600.965 1126 595.355C1125.95 578.039 1125.94 560.743 1125.99 543.467ZM1097.7 596.492C1097.65 599.096 1097.24 601.68 1096.48 604.174C1096.06 605.841 1095.09 607.318 1093.71 608.362C1092.34 609.406 1090.65 609.955 1088.92 609.92C1085.05 610.077 1081.74 608.831 1080.06 605.081C1079.32 603.304 1078.82 601.443 1078.56 599.541C1078.37 597.906 1078.31 596.26 1078.38 594.616C1078.38 577.51 1078.38 560.408 1078.38 543.31C1078.38 526.3 1078.38 509.29 1078.38 492.293C1078.35 489.593 1078.62 486.9 1079.19 484.26C1080.23 479.845 1083.1 477.776 1087.57 477.655C1092.31 477.534 1095.3 479.433 1096.57 483.837C1097.26 486.249 1097.63 488.743 1097.65 491.253C1097.75 526.336 1097.77 561.416 1097.7 596.492Z" fill="#F5F5F5"/>
<path d="M591.637 637.172H575.948C574.494 631.661 573.015 626.126 571.4 619.989C570.784 621.044 570.402 621.633 570.082 622.247C567.73 626.795 564.511 630.843 560.604 634.165C550.004 643.309 531.776 641.824 523.247 628.875C519.58 623.147 517.457 616.573 517.085 609.789C516.998 608.562 517.011 607.236 517.011 605.959C517.011 567.501 517.011 529.043 517.011 490.585C516.885 484.196 517.873 477.834 519.932 471.781C523.802 461.029 531.233 454.217 542.597 452.143C551.337 450.489 560.326 450.631 569.009 452.56C580.484 455.138 586.695 462.846 589.148 473.966C590.27 479.848 590.811 485.825 590.762 491.812C590.886 497.691 590.762 503.583 590.762 509.462C590.762 510.039 590.652 510.604 590.602 511.132C588.199 511.77 566.187 511.819 563.204 511.132V508.321C563.204 502.245 563.204 496.157 563.204 490.082C563.196 488.017 562.961 485.959 562.502 483.945C562.215 482.276 561.332 480.766 560.016 479.692C558.701 478.619 557.041 478.054 555.341 478.102C551.04 477.869 548.119 479.33 546.948 483.086C546.124 485.897 545.709 488.811 545.715 491.739C545.58 504.786 545.653 517.833 545.653 530.88C545.653 552.973 545.653 575.066 545.653 597.098C545.653 599.841 546.01 602.572 546.714 605.223C547.092 607.026 548.092 608.641 549.539 609.788C550.985 610.936 552.789 611.543 554.638 611.507C559.05 611.654 562.637 609.654 564.067 605.813C564.79 603.884 565.169 601.844 565.188 599.786C565.275 585.168 565.188 570.561 565.188 555.943C565.188 555.268 565.041 554.606 564.942 553.636H552.691V525.786C554.676 525.161 586.486 524.915 591.477 525.492C592.057 527.677 592.217 633.171 591.637 637.172Z" fill="#F5F5F5"/>
<path d="M872.906 557.763C872.906 571.777 872.966 585.791 872.906 599.805C872.912 605.132 872.128 610.429 870.577 615.524C866.958 627.337 859.211 634.677 846.795 636.248C838.956 637.433 830.97 637.216 823.206 635.608C813.216 633.286 806.543 627.144 802.971 617.543C801.263 612.712 800.299 607.648 800.111 602.526C800.015 600.688 800.015 598.898 800.015 597.012C800.015 561.068 800.015 525.12 800.015 489.168C799.898 483.948 800.495 478.736 801.789 473.679C805.337 460.765 814.097 453.123 827.381 451.599C834.665 450.653 842.05 450.828 849.28 452.119C862.058 454.598 869.383 461.926 871.724 474.658C872.451 478.454 872.855 482.305 872.931 486.169C873.087 497.185 872.931 508.199 872.931 519.215C872.931 519.88 872.846 520.545 872.786 521.392H845.927C845.927 520.315 845.794 519.3 845.794 518.272C845.794 508.599 845.794 498.925 845.794 489.252C845.796 487.42 845.586 485.594 845.167 483.811C844.854 482.082 843.933 480.522 842.572 479.413C841.211 478.304 839.499 477.72 837.746 477.765C836.688 477.697 835.626 477.725 834.573 477.85C833.303 477.908 832.085 478.374 831.1 479.18C830.115 479.986 829.416 481.088 829.106 482.324C828.534 484.565 828.23 486.866 828.201 489.18C828.153 525.309 828.153 561.447 828.201 597.592C828.207 599.811 828.507 602.018 829.095 604.158C829.488 605.879 830.477 607.405 831.886 608.465C833.295 609.525 835.033 610.051 836.793 609.949C840.666 609.949 843.573 608.172 844.756 604.472C845.416 602.362 845.762 600.166 845.782 597.955C845.866 585.005 845.782 572.055 845.782 559.105V555.623H872.689C872.802 556.331 872.874 557.046 872.906 557.763V557.763Z" fill="#F5F5F5"/>
<path d="M468.817 601.959C468.604 607.809 467.27 613.563 464.889 618.91C460.279 629.388 452.178 635.448 440.988 637.164C433.384 638.383 425.625 638.268 418.06 636.823C405.107 634.28 396.969 625.871 394.792 612.765C394.322 609.986 394.07 607.174 394.038 604.356C393.953 592.491 394.038 580.627 394.038 568.762C394.038 568.178 394.111 567.606 394.172 566.681H421.576V569.845C421.576 579.288 421.576 588.719 421.576 598.15C421.555 600.386 421.8 602.617 422.306 604.795C423.668 610.125 428.837 612.583 433.994 610.599C435.009 610.237 435.921 609.635 436.654 608.845C437.386 608.054 437.918 607.099 438.203 606.06C438.905 603.943 439.314 601.74 439.419 599.513C439.419 593.428 439.419 587.259 438.933 581.162C438.446 576.683 436.765 572.418 434.067 568.811C431.245 564.734 428.29 560.755 425.273 556.824C420.299 550.338 415.202 543.962 410.191 537.5C404.304 529.894 399.475 521.68 397.395 512.213C396.503 508.232 395.917 504.188 395.644 500.117C395.133 491.964 394.829 483.786 396.422 475.694C399.061 462.223 407.369 454.009 420.968 451.904C429.033 450.608 437.262 450.706 445.294 452.195C457.64 454.556 464.414 462.004 465.801 474.611C466.143 477.8 466.322 481.004 466.336 484.212C466.409 492.572 466.336 500.944 466.336 509.304V512.882C457.372 513.028 448.602 512.943 439.504 512.943V509.499C439.504 501.821 439.504 494.13 439.504 486.451C439.502 484.608 439.29 482.771 438.872 480.975C438.057 477.641 435.685 475.974 431.975 475.84C428.265 475.706 425.614 477.312 424.519 480.634C424.254 481.37 424.071 482.134 423.972 482.91C422.877 494.398 423.644 505.435 431.27 515.036C438.252 523.895 445.087 532.864 451.862 541.881C455.195 546.298 458.418 550.825 461.35 555.51C466.031 563.084 468.601 571.773 468.793 580.675C469.061 587.766 469.069 594.861 468.817 601.959Z" fill="#F5F5F5"/>
<path d="M791.813 607.125C791.316 609.978 790.568 612.784 789.579 615.51C785.417 627.09 777.181 634.132 764.868 636.08C757.203 637.373 749.366 637.303 741.727 635.873C727.867 633.236 719.483 624.379 717.629 610.561C717.263 607.978 717.062 605.376 717.027 602.769C716.966 591.359 717.027 579.949 717.027 568.527C717.027 567.777 717.101 567.026 717.138 566.107H744.673C744.673 567.087 744.783 568.103 744.783 569.119C744.783 578.109 744.783 587.1 744.783 596.102C744.771 598.422 744.968 600.738 745.373 603.023C746.416 608.492 750.283 611.069 755.894 610.162C757.074 610.035 758.197 609.593 759.14 608.883C760.084 608.173 760.812 607.222 761.246 606.133C762.066 604.376 762.573 602.493 762.744 600.567C762.867 594.19 762.854 587.813 762.559 581.449C762.195 576.886 760.588 572.505 757.907 568.768C755.812 565.614 753.594 562.545 751.253 559.561C745.508 552.204 739.652 544.932 733.858 537.611C727.585 529.674 722.38 521.156 720.354 511.174C719.427 506.529 718.861 501.82 718.66 497.09C718.353 490.144 718.108 483.175 719.397 476.266C720.02 472.541 721.264 468.943 723.08 465.618C724.811 462.453 727.204 459.686 730.101 457.5C732.998 455.314 736.333 453.759 739.886 452.937C750.123 450.426 760.821 450.355 771.091 452.732C782.14 455.152 787.738 462.629 789.407 473.301C789.835 476.073 790.06 478.871 790.082 481.674C790.168 491.245 790.082 500.829 790.082 510.399C790.082 511.053 789.972 511.706 789.911 512.517H763.002V509.347C763.002 501.893 763.002 494.452 763.002 487.011C763.016 484.886 762.781 482.766 762.301 480.694C761.454 477.379 758.999 475.855 755.231 475.77C751.462 475.685 749.031 477.234 747.951 480.464C747.504 481.627 747.251 482.852 747.202 484.094C747.276 489.394 747.276 494.718 747.742 499.994C748.168 503.464 749.431 506.783 751.425 509.673C753.524 512.928 755.709 516.159 758.079 519.232C764.02 526.927 770.097 534.514 776.063 542.222C778.395 545.214 780.638 548.272 782.791 551.393C788.558 559.64 791.905 569.295 792.464 579.295C793.127 588.685 793.434 597.965 791.813 607.125Z" fill="#F5F5F5"/>
<path d="M397.027 413.218C396.564 416.167 395.852 419.071 394.898 421.9C390.401 435.023 381.11 442.489 367.309 443.99C360.179 444.887 352.953 444.716 345.874 443.481C332.397 440.926 323.766 431.86 321.748 418.192C321.327 415.349 321.098 412.482 321.063 409.609C320.988 397.702 321.063 385.807 321.063 373.913C321.063 373.318 321.126 372.735 321.188 371.792H349.236V375.03C349.236 384.257 349.236 393.473 349.236 402.701C349.215 405.176 349.432 407.646 349.884 410.08C351.067 415.847 355.975 418.564 361.642 416.815C362.661 416.542 363.596 416.024 364.365 415.306C365.134 414.588 365.713 413.691 366.051 412.697C366.858 410.673 367.358 408.542 367.534 406.372C367.633 400.17 367.534 393.894 367.247 387.668C366.953 383.385 365.526 379.256 363.112 375.699C360.932 372.276 358.615 368.915 356.137 365.69C350.133 357.901 343.993 350.224 337.94 342.484C332.21 335.154 327.502 327.266 324.999 318.224C323.525 312.764 322.726 307.145 322.62 301.493C322.421 294.163 322.109 286.82 323.504 279.552C324.246 275.242 325.824 271.118 328.15 267.409C330.199 264.219 332.9 261.496 336.079 259.418C339.258 257.341 342.842 255.956 346.596 255.354C355.812 253.549 365.292 253.549 374.508 255.354C386.403 257.735 392.917 265.028 394.574 277.071C394.981 280.015 395.201 282.98 395.234 285.951C395.321 295.477 395.234 304.99 395.234 314.478C395.234 315.16 395.234 315.843 395.147 316.476C392.893 317.133 371.208 317.257 367.745 316.587V313.473C367.745 305.945 367.745 298.404 367.745 290.876C367.758 288.698 367.524 286.526 367.048 284.401C366.226 280.941 363.81 279.366 359.961 279.304C355.851 279.242 353.459 280.755 352.375 284.203C352.021 285.238 351.799 286.312 351.715 287.403C351.491 293.046 351.155 298.702 352.213 304.308C352.982 308.21 354.514 311.923 356.722 315.235C358.79 318.386 360.965 321.465 363.249 324.475C369.352 332.425 375.592 340.289 381.683 348.251C384.174 351.559 386.582 354.961 388.907 358.459C393.71 365.688 396.641 373.988 397.439 382.62C398.422 392.852 398.684 403.023 397.027 413.218Z" fill="#F5F5F5"/>
<path d="M822.696 256.296C817.888 255.726 791.134 255.912 788.805 256.532C781.208 318.323 773.606 380.193 766 442.141H791.458C792.704 430.458 793.949 418.985 795.195 407.413H815.722C816.967 419.084 818.212 430.631 819.532 442.141H846.934C838.855 380.019 830.775 318.071 822.696 256.296ZM798.047 379.221C800.351 357.33 802.655 335.563 804.947 313.796C807.986 335.501 810.341 357.206 812.707 379.221H798.047Z" fill="#F5F5F5"/>
<path d="M555.773 256.21H521.932C514.297 318.299 506.699 380.14 499.088 442.179H524.547C525.792 430.533 527.038 419.036 528.283 407.526H548.835C550.08 419.197 551.326 430.682 552.571 442.179H579.973C571.989 380.09 563.893 318.237 555.773 256.21ZM531.186 379.235C533.353 357.257 535.782 335.465 538.659 313.636C541.05 335.428 543.442 357.232 545.858 379.235H531.186Z" fill="#F5F5F5"/>
<path d="M389.764 609.001V636.982H324V451H388.02C388.655 453.059 388.842 473.797 388.195 477.952H352.423V526.744H380.597V555.024H352.448V608.914C364.841 609.05 377.221 608.889 389.764 609.001Z" fill="#F5F5F5"/>
<path d="M472.876 441.867C470.535 442.488 411.273 442.674 407.113 442.141C406.552 439.995 406.402 259.929 407 256.246H471.145V282.999H435.386V331.791C444.628 331.891 453.919 331.792 463.373 331.866V360.256H435.374V413.924H472.826C472.938 423.412 472.851 432.664 472.876 441.867Z" fill="#F5F5F5"/>
<path d="M740.258 256.322V282.876C732.462 283.236 724.739 282.876 716.718 283.112C716.643 284.116 716.518 285.059 716.506 286.002C716.506 291.546 716.506 297.164 716.506 302.646V442.192H688.208V283.087H664.543V256.495C666.673 255.925 735.961 255.727 740.258 256.322Z" fill="#F5F5F5"/>
<path d="M1205.13 624.087V654L1157.5 637.044H1141V451H1169.07V608.319C1173 610.5 1175.5 611.5 1179.5 613.5C1183.5 615.5 1188 617.5 1194.5 620L1205.13 624.087Z" fill="#F5F5F5"/>
<path d="M507.037 452H479V637.932H507.037V452Z" fill="#F5F5F5"/>
<mask id="mask0_72_1155" style="mask-type:luminance" maskUnits="userSpaceOnUse" x="172" y="166" width="1106" height="691">
<path d="M1278 166.495H172V856.504H1278V166.495Z" fill="white"/>
</mask>
<g mask="url(#mask0_72_1155)">
<path d="M312 452H287V637H312V452Z" fill="url(#paint0_linear_72_1155)"/>
<path d="M312 254H287V442H312V254Z" fill="url(#paint1_linear_72_1155)"/>
<path d="M1132 637H1156V451H1132V637Z" fill="url(#paint2_linear_72_1155)"/>
<path d="M1132 442H1156V254H1132V442Z" fill="url(#paint3_linear_72_1155)"/>
<path d="M1277.12 435.104L1160.47 442.033H288.137L165.332 435.104L166.488 238" stroke="black" stroke-width="1.8"/>
<path d="M166.102 247.468L288.907 254.398H1161.25L1277.89 247.468" stroke="black" stroke-width="1.8"/>
<path d="M167 464.089L287.495 451H1159.83L1277.63 462.934" stroke="black" stroke-width="1.8"/>
<path d="M164.563 682.097L285.827 637.056H1158.17L1275.2 678.247" stroke="black" stroke-width="1.8"/>
<path d="M116.057 865.684L367.548 657.844" stroke="#1D1D1B" stroke-miterlimit="10"/>
<path d="M358.326 865.684L509.221 657.844" stroke="#1D1D1B" stroke-miterlimit="10"/>
<path d="M600.595 865.696L650.894 657.844" stroke="#1D1D1B" stroke-miterlimit="10"/>
<path d="M842.864 865.696L792.567 657.844" stroke="#1D1D1B" stroke-miterlimit="10"/>
<path d="M1085.1 865.696L934.209 657.844" stroke="#1D1D1B" stroke-miterlimit="10"/>
<path d="M1327.37 865.684L1075.88 657.844" stroke="#1D1D1B" stroke-miterlimit="10"/>
<path d="M165.718 717.899L289.292 655.534H1163.55L1278.66 708.66" stroke="black" stroke-width="1.8"/>
</g>
<rect x="139" y="96" width="1164" height="831" stroke="white" stroke-width="50"/>
<path d="M629.588 580.976C629.971 584.95 644.826 582.548 652.2 590.503C654.964 593.478 659.436 601.257 660.133 603.169C660.356 603.833 660.769 604.417 661.321 604.848C661.874 605.237 662.529 605.456 663.205 605.477C663.522 605.476 663.837 605.432 664.141 605.345C665.692 604.848 666.264 601.571 666.308 601.314C667.068 596.704 665.837 592.805 666.063 590.063C666.691 582.12 679.687 583.46 690.472 570.65C692.557 568.178 695.446 564.122 699.378 564.141C700.817 564.141 702.557 564.7 706.319 564.713C707.99 564.713 709.133 564.537 709.686 564.581C713.272 564.895 715.49 566.713 722.713 567.241C733.228 568.008 736.362 564.726 740.382 567.7C740.382 567.7 745.118 571.241 748.793 572.675C751.016 573.549 750.928 572.951 752.298 573.681C754.76 574.989 757.838 582.057 757.838 582.057C760.696 588.572 762.737 589.019 762.059 590.66C760.903 593.465 755.149 591.585 750.602 596.22C749.873 596.962 748.146 598.735 748.667 600.37C748.922 600.976 749.342 601.498 749.88 601.875C750.418 602.252 751.051 602.469 751.707 602.502C752.085 602.507 752.46 602.441 752.813 602.307C753.592 602.043 757.693 600.647 758.591 601.59C759.351 602.395 757.26 604.364 756.745 608.873C756.38 612.074 757.21 613.011 757.662 613.356C757.976 613.579 758.334 613.733 758.711 613.809C758.77 613.875 758.845 613.927 758.927 613.96C759.01 613.992 759.099 614.005 759.188 613.998C760.07 613.957 760.914 613.63 761.594 613.067C764.062 610.973 769.357 602.477 774.32 599.565C780.224 596.106 785.82 600.452 788.766 596.572C790.111 594.805 790.506 591.868 789.275 590.113C787.014 586.893 781.656 590.522 774.772 587.799C772.065 586.73 769.496 583.277 764.339 576.36C762.825 574.328 760.897 571.511 761.826 570.165C761.937 570.017 762.073 569.889 762.228 569.788C764.157 568.348 764.898 565.442 765.049 564.983C766.116 561.657 776.92 557.758 780.086 556.481C782.064 555.682 798.452 548.438 805.688 534.98C806.63 533.225 809.023 528.383 811.14 528.735C812.717 528.993 812.679 531.879 815.179 533.005C816.186 533.391 817.278 533.498 818.34 533.315C819.403 533.131 820.396 532.663 821.215 531.961C824.073 529.364 822.327 524.729 824.06 524.031C825.794 523.333 827.729 528.295 832.458 529.691C837.735 531.219 843.067 527.219 843.909 526.546C849.562 522.144 850.862 514.636 851.308 512.051C852.244 506.624 851.088 503.995 853.482 500.913C855.228 498.668 856.76 498.882 859.763 496.958C860.177 496.694 869.524 490.531 869.436 481.374C869.373 474.727 864.373 470.086 863.481 469.256C858.796 464.917 855.649 466.627 853.544 463.64C848.915 457.087 862.074 446.031 858.262 435.888C855.956 429.731 848.337 426.763 843.482 426.09C830.819 424.348 817.729 435.693 812.333 447.358C806.492 459.999 811.768 468.583 804.438 474.633C797.811 480.11 786.97 478.481 786.562 476.909C786.292 475.846 790.783 474.972 792.529 470.621C793.331 468.451 793.382 466.075 792.673 463.873C791.417 459.816 788.031 457.54 786.618 456.622C774.508 448.761 743.535 448.415 730.502 434.963C715.885 419.87 720.289 384.622 710.132 376.327C709.504 375.843 706.828 373.767 707.186 371.629C707.632 368.95 712.355 369.114 715.666 366.076C721.256 360.97 721.319 348.204 715.873 343.801C711.068 339.909 704.108 344.286 702.123 341.286C699.203 336.846 713.976 326.822 711.344 317.735C709.742 312.175 701.803 307.578 695.252 309.408C689.687 310.962 685.987 316.798 685.654 321.546C685.459 324.344 686.414 327.067 685.798 327.287C685.183 327.507 684.272 324.646 682.03 322.816C678.701 320.08 673.236 320.3 670.271 321.558C659.794 325.96 655.309 349.549 663.94 359.775C666.735 363.095 670.849 364.932 670.372 367.648C669.932 370.164 666.245 369.925 661.691 372.774C652.269 378.679 653.708 388.577 644.638 392.187C644.324 392.313 643.953 392.426 643.953 392.426C642.398 392.953 640.801 393.349 639.179 393.608C637.119 393.973 627.905 395.577 627.245 399.054C626.912 400.734 628.709 402.469 632.308 405.941C636.076 409.544 636.987 409.261 638.105 410.972C640.542 414.669 638.4 419.575 635.863 427.417C633.978 433.171 632.892 439.158 631.077 444.925C626.554 459.244 625.423 496.492 644.474 519.805C651.434 528.314 661.936 541.187 670.29 546.633C671.641 547.526 674.687 549.381 676.703 553.098C677.237 554.085 680.202 558.877 679.36 564.141C677.84 573.7 664.574 580.598 657.966 577.586C652.163 574.945 651.139 567.027 646.66 567.436C644.342 567.65 641.635 570.172 641.792 571.693C641.814 572.353 641.932 573.006 642.144 573.63C642.314 574.084 642.416 574.561 642.446 575.045C642.425 575.126 642.4 575.206 642.37 575.284C642.018 576.127 637.697 575.479 634.927 576.215C632.408 576.882 629.418 579.209 629.588 580.976Z" fill="#E96262"/>
<defs>
<linearGradient id="paint0_linear_72_1155" x1="287" y1="545.04" x2="312" y2="545.04" gradientUnits="userSpaceOnUse">
<stop stop-color="#F0F0F0"/>
<stop offset="1" stop-color="white" stop-opacity="0"/>
</linearGradient>
<linearGradient id="paint1_linear_72_1155" x1="287" y1="348.55" x2="312" y2="348.55" gradientUnits="userSpaceOnUse">
<stop stop-color="#F0F0F0"/>
<stop offset="1" stop-color="white" stop-opacity="0"/>
</linearGradient>
<linearGradient id="paint2_linear_72_1155" x1="1156" y1="543.456" x2="1132" y2="543.456" gradientUnits="userSpaceOnUse">
<stop stop-color="#F0F0F0"/>
<stop offset="1" stop-color="white" stop-opacity="0"/>
</linearGradient>
<linearGradient id="paint3_linear_72_1155" x1="1156" y1="347.45" x2="1132" y2="347.45" gradientUnits="userSpaceOnUse">
<stop stop-color="#FAFAFA"/>
<stop offset="1" stop-color="white" stop-opacity="0"/>
</linearGradient>
</defs>
</svg>
