<svg width="1440" height="1024" viewBox="0 0 1440 1024" fill="none" xmlns="http://www.w3.org/2000/svg">
<rect width="1440" height="1024" fill="white"/>
<mask id="mask0_72_2050" style="mask-type:luminance" maskUnits="userSpaceOnUse" x="232" y="165" width="978" height="694">
<path d="M1209.01 165H232V859H1209.01V165Z" fill="white"/>
</mask>
<g mask="url(#mask0_72_2050)">
<path d="M313 464H288V637H313V464Z" fill="url(#paint0_linear_72_2050)"/>
<path d="M313 255H288V431H313V255Z" fill="url(#paint1_linear_72_2050)"/>
<path d="M1131 637H1156V464H1131V637Z" fill="url(#paint2_linear_72_2050)"/>
<path d="M1131 431H1156V255H1131V431Z" fill="url(#paint3_linear_72_2050)"/>
<path d="M1161.29 255.268H294.052V451.319H1161.29V255.268Z" fill="white"/>
<path d="M1275.84 249.117L1141.3 257.48V452.856L1275.84 444.494V249.117Z" fill="white"/>
<path d="M1276.19 423.82L1159.71 430.739H288.628L166 423.82L167.154 227" stroke="black" stroke-width="1.6"/>
<path d="M167.196 248.348L289.824 255.268H1160.91L1277.38 248.348" stroke="black" stroke-width="1.6"/>
<path d="M166.573 477.106L286.894 464.036H1157.98L1275.61 475.953" stroke="black" stroke-width="1.6"/>
<path d="M165.658 682.352L286.749 637.375H1157.83L1274.69 678.507" stroke="black" stroke-width="1.6"/>
<path d="M117.222 865.674L368.352 658.134" stroke="#1D1D1B" stroke-width="0.8" stroke-miterlimit="10"/>
<path d="M359.143 865.674L509.82 658.134" stroke="#1D1D1B" stroke-width="0.8" stroke-miterlimit="10"/>
<path d="M601.064 865.686L651.29 658.134" stroke="#1D1D1B" stroke-width="0.8" stroke-miterlimit="10"/>
<path d="M842.984 865.686L792.759 658.134" stroke="#1D1D1B" stroke-width="0.8" stroke-miterlimit="10"/>
<path d="M1084.87 865.686L934.197 658.134" stroke="#1D1D1B" stroke-width="0.8" stroke-miterlimit="10"/>
<path d="M1326.79 865.674L1075.66 658.134" stroke="#1D1D1B" stroke-width="0.8" stroke-miterlimit="10"/>
<path d="M166.812 718.102L290.208 655.827H1163.21L1278.15 708.876" stroke="black" stroke-width="1.6"/>
<path d="M850.836 428.369H835.169V444.035H850.836V428.369Z" fill="#E96262"/>
<path d="M852.925 459.354H837.258V475.02H852.925V459.354Z" fill="#E96262"/>
<path d="M864.414 483.724H848.747V499.39H864.414V483.724Z" fill="#E96262"/>
<path d="M858.146 444.036H842.48V459.702H858.146V444.036Z" fill="#E96262"/>
<path d="M825.073 451.694H809.406V467.361H825.073V451.694Z" fill="#E96262"/>
<path d="M814.977 514.36H799.311V530.026H814.977V514.36Z" fill="#E96262"/>
<path d="M717.497 515.405H701.83V531.072H717.497V515.405Z" fill="#E96262"/>
<path d="M694.171 415.487H678.504V431.154H694.171V415.487Z" fill="#E96262"/>
<path d="M702.178 446.473H686.512V462.139H702.178V446.473Z" fill="#E96262"/>
<path d="M738.037 457.961H722.371V473.628H738.037V457.961Z" fill="#E96262"/>
<path d="M699.393 339.593H683.727V355.259H699.393V339.593Z" fill="#E96262"/>
<path d="M708.445 359.785H692.778V375.452H708.445V359.785Z" fill="#E96262"/>
<path d="M676.764 463.183H661.097V478.85H676.764V463.183Z" fill="#E96262"/>
<path d="M651.698 472.583H636.031V488.249H651.698V472.583Z" fill="#E96262"/>
<path d="M728.289 554.397H712.623V570.064H728.289V554.397Z" fill="#E96262"/>
<path d="M688.252 565.538H672.586V581.204H688.252V565.538Z" fill="#E96262"/>
<path d="M649.26 495.561H633.594V511.228H649.26V495.561Z" fill="#E96262"/>
<path d="M670.845 594.782H655.179V610.449H670.845V594.782Z" fill="#E96262"/>
<path d="M699.045 520.278H683.378V535.945H699.045V520.278Z" fill="#E96262"/>
<path d="M761.363 487.205H745.696V502.872H761.363V487.205Z" fill="#E96262"/>
<path d="M763.452 510.879H747.785V526.545H763.452V510.879Z" fill="#E96262"/>
<path d="M803.14 532.812H787.473V548.478H803.14V532.812Z" fill="#E96262"/>
<path d="M779.118 493.82H763.452V509.487H779.118V493.82Z" fill="#E96262"/>
<path d="M678.853 494.865H663.186V510.531H678.853V494.865Z" fill="#E96262"/>
<path d="M668.06 516.797H652.394V532.464H668.06V516.797Z" fill="#E96262"/>
<path d="M658.66 392.162H642.994V407.829H658.66V392.162Z" fill="#E96262"/>
<path d="M654.134 406.784H638.468V422.451H654.134V406.784Z" fill="#E96262"/>
<path d="M644.735 445.428H629.068V461.095H644.735V445.428Z" fill="#E96262"/>
<path d="M693.823 532.115H678.157V547.782H693.823V532.115Z" fill="#E96262"/>
<path d="M651.698 569.02H636.031V584.687H651.698V569.02Z" fill="#E96262"/>
<path d="M682.682 537.686H667.016V553.353H682.682V537.686Z" fill="#E96262"/>
<path d="M725.504 466.665H709.838V482.332H725.504V466.665Z" fill="#E96262"/>
<path d="M844.917 518.538H829.251V534.205H844.917V518.538Z" fill="#E96262"/>
<path d="M862.324 436.027H846.658V451.694H862.324V436.027Z" fill="#60C9EB"/>
<path d="M837.259 433.939H821.592V449.605H837.259V433.939Z" fill="#FFE600"/>
<path d="M849.791 444.384H834.125V460.05H849.791V444.384Z" fill="#FFE600"/>
<path d="M821.592 464.576H805.925V480.243H821.592V464.576Z" fill="#FFE600"/>
<path d="M825.073 521.324H809.406V536.99H825.073V521.324Z" fill="#60C9EB"/>
<path d="M781.903 514.36H766.237V530.026H781.903V514.36Z" fill="#60C9EB"/>
<path d="M768.673 570.063H753.007V585.729H768.673V570.063Z" fill="#60C9EB"/>
<path d="M788.17 543.256H772.503V558.922H788.17V543.256Z" fill="#60C9EB"/>
<path d="M760.666 520.975H745V536.642H760.666V520.975Z" fill="#60C9EB"/>
<path d="M751.266 538.73H735.6V554.396H751.266V538.73Z" fill="#60C9EB"/>
<path d="M773.896 501.827H758.229V517.494H773.896V501.827Z" fill="#60C9EB"/>
<path d="M681.638 515.405H665.971V531.072H681.638V515.405Z" fill="#60C9EB"/>
<path d="M657.964 515.405H642.297V531.072H657.964V515.405Z" fill="#60C9EB"/>
<path d="M643.69 579.115H628.023V594.782H643.69V579.115Z" fill="#60C9EB"/>
<path d="M686.512 478.85H670.845V494.517H686.512V478.85Z" fill="#60C9EB"/>
<path d="M661.097 415.487H645.431V431.154H661.097V415.487Z" fill="#60C9EB"/>
<path d="M712.623 469.102H696.956V484.768H712.623V469.102Z" fill="#60C9EB"/>
<path d="M643.69 463.183H628.023V478.85H643.69V463.183Z" fill="#60C9EB"/>
<path d="M644.735 480.939H629.068V496.605H644.735V480.939Z" fill="#60C9EB"/>
<path d="M694.171 553.352H678.504V569.019H694.171V553.352Z" fill="#60C9EB"/>
<path d="M728.289 487.205H712.623V502.872H728.289V487.205Z" fill="#60C9EB"/>
<path d="M809.407 501.479H793.74V517.146H809.407V501.479Z" fill="#60C9EB"/>
<path d="M709.141 502.523H693.475V518.19H709.141V502.523Z" fill="#60C9EB"/>
<path d="M694.867 501.479H679.2V517.146H694.867V501.479Z" fill="#60C9EB"/>
<path d="M688.601 402.606H672.935V418.273H688.601V402.606Z" fill="#60C9EB"/>
<path d="M665.623 384.851H649.957V400.518H665.623V384.851Z" fill="#60C9EB"/>
<path d="M669.453 406.784H653.787V422.451H669.453V406.784Z" fill="#60C9EB"/>
<path d="M711.926 433.243H696.26V448.909H711.926V433.243Z" fill="#60C9EB"/>
<path d="M701.83 375.45H686.164V391.117H701.83V375.45Z" fill="#60C9EB"/>
<path d="M731.423 431.851H715.756V447.517H731.423V431.851Z" fill="#60C9EB"/>
<path d="M689.297 347.6H673.63V363.266H689.297V347.6Z" fill="#60C9EB"/>
<path d="M673.63 334.37H657.964V350.037H673.63V334.37Z" fill="#60C9EB"/>
<path d="M671.194 450.302H655.527V465.968H671.194V450.302Z" fill="#60C9EB"/>
<path d="M712.275 553.352H696.608V569.019H712.275V553.352Z" fill="#60C9EB"/>
<path d="M755.793 474.324H740.126V489.991H755.793V474.324Z" fill="#60C9EB"/>
<path d="M743.26 493.472H727.593V509.139H743.26V493.472Z" fill="#60C9EB"/>
<path d="M850.14 512.271H834.473V527.938H850.14V512.271Z" fill="#60C9EB"/>
<path d="M826.466 444.036H810.799V459.702H826.466V444.036Z" fill="#E9AD62"/>
<path d="M829.25 483.027H813.584V498.694H829.25V483.027Z" fill="#E9AD62"/>
<path d="M728.985 484.072H713.319V499.738H728.985V484.072Z" fill="#E9AD62"/>
<path d="M708.445 384.155H692.778V399.821H708.445V384.155Z" fill="#E9AD62"/>
<path d="M691.038 431.851H675.371V447.517H691.038V431.851Z" fill="#E9AD62"/>
<path d="M700.089 363.962H684.423V379.629H700.089V363.962Z" fill="#E9AD62"/>
<path d="M741.518 522.02H725.852V537.687H741.518V522.02Z" fill="#E9AD62"/>
<path d="M775.636 460.05H759.97V475.716H775.636V460.05Z" fill="#E9AD62"/>
<path d="M831.688 513.316H816.021V528.983H831.688V513.316Z" fill="#E9AD62"/>
<path d="M731.423 514.36H715.756V530.026H731.423V514.36Z" fill="#E9AD62"/>
<path d="M710.882 414.442H695.215V430.109H710.882V414.442Z" fill="#E9AD62"/>
<path d="M716.452 355.606H700.785V371.273H716.452V355.606Z" fill="#E9AD62"/>
<path d="M693.475 462.138H677.808V477.805H693.475V462.138Z" fill="#E9AD62"/>
<path d="M662.142 480.939H646.475V496.605H662.142V480.939Z" fill="#E9AD62"/>
<path d="M712.971 314.178H697.304V329.844H712.971V314.178Z" fill="#60C9EB"/>
<path d="M745.696 554.397H730.03V570.064H745.696V554.397Z" fill="#E9AD62"/>
<path d="M772.504 589.908H756.837V605.574H772.504V589.908Z" fill="#E9AD62"/>
<path d="M721.326 348.992H705.66V364.659H721.326V348.992Z" fill="#60C9EB"/>
<path d="M772.504 549.523H756.837V565.189H772.504V549.523Z" fill="#E9AD62"/>
<path d="M790.607 587.819H774.94V603.485H790.607V587.819Z" fill="#E9AD62"/>
<path d="M778.074 486.161H762.407V501.828H778.074V486.161Z" fill="#E9AD62"/>
<path d="M834.125 452.043H818.458V467.709H834.125V452.043Z" fill="#60C9EB"/>
<path d="M854.665 472.235H838.999V487.902H854.665V472.235Z" fill="#60C9EB"/>
<path d="M873.117 475.717H857.45V491.383H873.117V475.717Z" fill="#60C9EB"/>
<path d="M839.347 466.316H823.681V481.983H839.347V466.316Z" fill="#E9AD62"/>
<path d="M821.243 490.687H805.577V506.353H821.243V490.687Z" fill="#E96262"/>
<path d="M720.978 491.731H705.312V507.397H720.978V491.731Z" fill="#E96262"/>
<path d="M769.37 538.034H753.704V553.7H769.37V538.034Z" fill="#E96262"/>
<path d="M793.392 507.746H777.726V523.412H793.392V507.746Z" fill="#E96262"/>
<path d="M700.438 391.814H684.771V407.48H700.438V391.814Z" fill="#E96262"/>
<path d="M683.03 439.51H667.364V455.176H683.03V439.51Z" fill="#E96262"/>
<path d="M721.326 442.294H705.66V457.961H721.326V442.294Z" fill="#E96262"/>
<path d="M733.511 529.679H717.845V545.345H733.511V529.679Z" fill="#E96262"/>
<path d="M751.963 545.345H736.297V561.012H751.963V545.345Z" fill="#E96262"/>
<path d="M772.504 601.396H756.837V617.062H772.504V601.396Z" fill="#E96262"/>
<path d="M767.63 463.531H751.963V479.198H767.63V463.531Z" fill="#E96262"/>
<path d="M813.933 475.368H798.266V491.035H813.933V475.368Z" fill="#E96262"/>
<path d="M673.63 487.205H657.964V502.872H673.63V487.205Z" fill="#E96262"/>
<path d="M693.126 376.496H677.46V392.162H693.126V376.496Z" fill="#E96262"/>
<path d="M701.83 311.392H686.164V327.059H701.83V311.392Z" fill="#E96262"/>
<path d="M675.719 424.192H660.052V439.858H675.719V424.192Z" fill="#E96262"/>
<path d="M723.763 416.532H708.097V432.198H723.763V416.532Z" fill="#E96262"/>
<path d="M717.149 386.94H701.482V402.606H717.149V386.94Z" fill="#E96262"/>
<path d="M677.808 349.688H662.142V365.354H677.808V349.688Z" fill="#E96262"/>
<path d="M760.318 448.213H744.652V463.88H760.318V448.213Z" fill="#E96262"/>
<path d="M849.791 486.161H834.125V501.828H849.791V486.161Z" fill="#FFE600"/>
<path d="M866.502 467.361H850.836V483.028H866.502V467.361Z" fill="#FFE600"/>
<path d="M834.125 477.805H818.458V493.472H834.125V477.805Z" fill="#FFE600"/>
<path d="M733.859 478.85H718.192V494.517H733.859V478.85Z" fill="#FFE600"/>
<path d="M706.008 458.309H690.341V473.976H706.008V458.309Z" fill="#FFE600"/>
<path d="M713.318 373.71H697.652V389.377H713.318V373.71Z" fill="#FFE600"/>
<path d="M719.934 399.822H704.267V415.488H719.934V399.822Z" fill="#FFE600"/>
<path d="M708.097 310H692.43V325.666H708.097V310Z" fill="#FFE600"/>
<path d="M709.489 323.925H693.822V339.592H709.489V323.925Z" fill="#E96262"/>
<path d="M695.911 426.628H680.245V442.295H695.911V426.628Z" fill="#FFE600"/>
<path d="M700.785 356.303H685.119V371.969H700.785V356.303Z" fill="#FFE600"/>
<path d="M746.393 516.797H730.726V532.464H746.393V516.797Z" fill="#FFE600"/>
<path d="M758.229 561.012H742.563V576.678H758.229V561.012Z" fill="#FFE600"/>
<path d="M779.814 582.945H764.148V598.612H779.814V582.945Z" fill="#FFE600"/>
<path d="M764.148 590.952H748.481V606.619H764.148V590.952Z" fill="#FFE600"/>
<path d="M778.074 452.391H762.407V468.057H778.074V452.391Z" fill="#FFE600"/>
<path d="M807.318 521.671H791.651V537.338H807.318V521.671Z" fill="#FFE600"/>
<path d="M822.636 501.131H806.969V516.797H822.636V501.131Z" fill="#FFE600"/>
<path d="M725.504 502.176H709.838V517.842H725.504V502.176Z" fill="#FFE600"/>
<path d="M750.918 498.694H735.252V514.361H750.918V498.694Z" fill="#FFE600"/>
<path d="M778.77 524.108H763.103V539.775H778.77V524.108Z" fill="#FFE600"/>
<path d="M709.489 481.983H693.822V497.649H709.489V481.983Z" fill="#FFE600"/>
<path d="M701.83 402.258H686.164V417.924H701.83V402.258Z" fill="#FFE600"/>
<path d="M704.963 328.103H689.297V343.77H704.963V328.103Z" fill="#FFE600"/>
<path d="M716.452 343.422H700.785V359.088H716.452V343.422Z" fill="#FFE600"/>
<path d="M684.423 449.954H668.756V465.621H684.423V449.954Z" fill="#FFE600"/>
<path d="M661.097 459.702H645.431V475.368H661.097V459.702Z" fill="#FFE600"/>
<path d="M734.904 540.123H719.237V555.79H734.904V540.123Z" fill="#FFE600"/>
<path d="M769.022 473.976H753.355V489.642H769.022V473.976Z" fill="#FFE600"/>
<path d="M856.058 502.176H840.392V517.842H856.058V502.176Z" fill="#FFE600"/>
<path d="M796.873 493.82H781.207V509.487H796.873V493.82Z" fill="#FFE600"/>
<path d="M696.608 494.865H680.942V510.531H696.608V494.865Z" fill="#FFE600"/>
<path d="M668.06 497.649H652.394V513.316H668.06V497.649Z" fill="#FFE600"/>
<path d="M676.068 394.947H660.401V410.614H676.068V394.947Z" fill="#FFE600"/>
<path d="M685.468 337.504H669.801V353.17H685.468V337.504Z" fill="#FFE600"/>
<path d="M658.66 442.643H642.994V458.31H658.66V442.643Z" fill="#FFE600"/>
<path d="M648.564 453.087H632.897V468.754H648.564V453.087Z" fill="#FFE600"/>
<path d="M709.141 532.812H693.475V548.478H709.141V532.812Z" fill="#FFE600"/>
<path d="M698.349 544.648H682.682V560.315H698.349V544.648Z" fill="#FFE600"/>
<path d="M673.282 580.16H657.616V595.826H673.282V580.16Z" fill="#FFE600"/>
<path d="M743.26 466.665H727.593V482.332H743.26V466.665Z" fill="#FFE600"/>
<path d="M790.607 470.146H774.94V485.812H790.607V470.146Z" fill="#FFE600"/>
<path d="M690.341 471.19H674.675V486.857H690.341V471.19Z" fill="#FFE600"/>
<path d="M672.585 370.925H656.919V386.591H672.585V370.925Z" fill="#FFE600"/>
<path d="M677.808 320.444H662.142V336.11H677.808V320.444Z" fill="#FFE600"/>
<path d="M652.046 421.405H636.379V437.072H652.046V421.405Z" fill="#FFE600"/>
<path d="M702.874 509.138H687.208V524.804H702.874V509.138Z" fill="#FFE600"/>
<path d="M683.378 508.442H667.712V524.109H683.378V508.442Z" fill="#FFE600"/>
<path d="M678.504 527.59H662.838V543.256H678.504V527.59Z" fill="#FFE600"/>
<path d="M736.992 442.991H721.326V458.657H736.992V442.991Z" fill="#FFE600"/>
<path d="M842.132 498.694H826.466V514.361H842.132V498.694Z" fill="#E9AD62"/>
<path d="M790.607 530.027H774.94V545.693H790.607V530.027Z" fill="#E9AD62"/>
<path d="M798.266 480.59H782.599V496.257H798.266V480.59Z" fill="#E9AD62"/>
<path d="M698 481.635H682.334V497.302H698V481.635Z" fill="#E9AD62"/>
<path d="M668.06 525.501H652.394V541.167H668.06V525.501Z" fill="#E9AD62"/>
<path d="M661.793 579.115H646.127V594.782H661.793V579.115Z" fill="#E9AD62"/>
<path d="M680.942 385.199H665.275V400.866H680.942V385.199Z" fill="#E9AD62"/>
<path d="M642.994 395.295H627.327V410.962H642.994V395.295Z" fill="#E9AD62"/>
<path d="M682.334 322.882H666.667V338.548H682.334V322.882Z" fill="#E9AD62"/>
<path d="M660.052 429.413H644.386V445.08H660.052V429.413Z" fill="#E9AD62"/>
<path d="M649.26 431.851H633.594V447.517H649.26V431.851Z" fill="#E9AD62"/>
<path d="M710.533 519.583H694.867V535.249H710.533V519.583Z" fill="#E9AD62"/>
<path d="M656.572 504.612H640.905V520.279H656.572V504.612Z" fill="#E9AD62"/>
<path d="M744.652 453.436H728.985V469.102H744.652V453.436Z" fill="#E9AD62"/>
<path d="M742.563 435.332H726.896V450.998H742.563V435.332Z" fill="#E9AD62"/>
<path d="M810.799 485.812H795.133V501.479H810.799V485.812Z" fill="#E9AD62"/>
<path d="M712.971 456.22H697.304V471.886H712.971V456.22Z" fill="#E9AD62"/>
<path d="M700.089 322.185H684.423V337.851H700.089V322.185Z" fill="#E9AD62"/>
<path d="M672.585 434.635H656.919V450.302H672.585V434.635Z" fill="#E9AD62"/>
<path d="M681.638 366.748H665.971V382.414H681.638V366.748Z" fill="#E9AD62"/>
<path d="M723.067 536.99H707.4V552.656H723.067V536.99Z" fill="#E9AD62"/>
<path d="M792.696 460.05H777.03V475.716H792.696V460.05Z" fill="#E9AD62"/>
</g>
<defs>
<linearGradient id="paint0_linear_72_2050" x1="288" y1="551.005" x2="313" y2="551.005" gradientUnits="userSpaceOnUse">
<stop stop-color="#FAFAFA"/>
<stop offset="1" stop-color="white"/>
</linearGradient>
<linearGradient id="paint1_linear_72_2050" x1="288" y1="343.515" x2="313" y2="343.515" gradientUnits="userSpaceOnUse">
<stop stop-color="#FAFAFA"/>
<stop offset="1" stop-color="white"/>
</linearGradient>
<linearGradient id="paint2_linear_72_2050" x1="1156" y1="549.994" x2="1131" y2="549.994" gradientUnits="userSpaceOnUse">
<stop stop-color="#FAFAFA"/>
<stop offset="1" stop-color="white"/>
</linearGradient>
<linearGradient id="paint3_linear_72_2050" x1="1156" y1="342.485" x2="1131" y2="342.485" gradientUnits="userSpaceOnUse">
<stop stop-color="#FAFAFA"/>
<stop offset="1" stop-color="white"/>
</linearGradient>
</defs>
</svg>
