<svg xmlns="http://www.w3.org/2000/svg" viewBox="0 0 300 300"><defs><style>.cls-1{fill:#fff;}</style></defs><g id="Слой_2" data-name="Слой 2"><g id="Слой_1-2" data-name="Слой 1"><path class="cls-1" d="M125.07,299.08a4,4,0,0,0,2.37.92H0V0H187.39c-5.67,0-11.49,4-12.83,8.59-2.59,8.94,12,18.8,9.08,23.17-2,2.95-8.81-1.36-13.54,2.47-5.37,4.33-5.3,16.89.2,21.91,3.26,3,7.91,2.83,8.35,5.46.36,2.1-2.28,4.15-2.9,4.62-10,8.16-5.67,42.83-20.06,57.68-12.84,13.23-43.34,13.57-55.27,21.3-1.39.9-4.73,3.14-6,7.13A10.14,10.14,0,0,0,94.6,159c1.72,4.28,6.14,5.14,5.87,6.19-.4,1.54-11.08,3.14-17.6-2.24-7.22-5.95-2-14.4-7.78-26.83-5.31-11.47-18.21-22.63-30.68-20.92-4.78.66-12.28,3.58-14.55,9.64-3.76,10,9.2,20.85,4.64,27.29-2.07,2.94-5.17,1.26-9.78,5.53-.88.81-5.81,5.38-5.87,11.92-.09,9,9.12,15.07,9.53,15.33,2.95,1.89,4.46,1.68,6.18,3.89,2.36,3,1.22,5.61,2.14,10.95.44,2.54,1.72,9.93,7.29,14.26.83.66,6.08,4.6,11.28,3.09,4.66-1.37,6.56-6.25,8.27-5.56s0,5.24,2.8,7.8a5.9,5.9,0,0,0,6,1c2.46-1.1,2.42-3.94,4-4.2,2.08-.34,4.44,4.42,5.37,6.14,7.12,13.24,23.26,20.37,25.21,21.15,3.12,1.26,13.76,5.09,14.81,8.37.15.45.88,3.31,2.78,4.72a1.76,1.76,0,0,1,.4.37c.91,1.33-1,4.1-2.48,6.1-5.08,6.8-7.61,10.2-10.27,11.25-6.78,2.68-12.06-.89-14.29,2.27-1.21,1.73-.82,4.62.5,6.36,2.9,3.81,8.42-.46,14.23,2.94C117.42,288.67,122.63,297,125.07,299.08Z"/><path class="cls-1" d="M300,0V300H127.44a.73.73,0,0,0,.25,0,.54.54,0,0,0,.22-.15,2.77,2.77,0,0,0,1-.44c.44-.34,1.26-1.27.9-4.41-.51-4.44-2.57-6.38-1.82-7.17s4.93.45,5.69.71a2.91,2.91,0,0,0,1.09.19,3.46,3.46,0,0,0,3-2.1c.51-1.61-1.19-3.35-1.91-4.08-4.48-4.56-10.14-2.71-11.28-5.47-.67-1.61,1.34-2.05,4.16-8.46,0,0,3-6.95,5.45-8.24,1.35-.72,1.26-.13,3.45-1a45.15,45.15,0,0,0,8.29-4.89c4-2.93,7,.3,17.4-.45,7.11-.52,9.3-2.31,12.83-2.62.55,0,1.67.13,3.32.13,3.7,0,5.42-.56,6.83-.56,3.88,0,6.72,4,8.78,6.4,10.62,12.6,23.42,11.28,24,19.09.22,2.7-1,6.54-.25,11.07.05.25.61,3.48,2.14,4a3.58,3.58,0,0,0,.92.13,3.45,3.45,0,0,0,1.86-.62,3.59,3.59,0,0,0,1.17-1.65c.68-1.88,5.09-9.54,7.81-12.46,7.26-7.83,21.89-5.46,22.27-9.37.17-1.74-2.78-4-5.26-4.69-2.73-.72-7-.08-7.33-.91a2.17,2.17,0,0,1-.07-.24,5.14,5.14,0,0,1,.29-1.39,6.45,6.45,0,0,0,.35-1.9c.16-1.5-2.51-4-4.79-4.19-4.41-.4-5.42,7.38-11.14,10-6.51,3-19.57-3.82-21.07-13.22-.83-5.18,2.09-9.89,2.62-10.86a17.36,17.36,0,0,1,6.31-6.36c8.23-5.36,18.57-18,25.43-26.39,18.76-22.93,17.65-59.57,13.19-73.65-1.78-5.68-2.85-11.57-4.71-17.22-2.5-7.72-4.61-12.54-2.21-16.18,1.1-1.68,2-1.41,5.71-5,3.55-3.41,5.32-5.12,5-6.77-.65-3.42-9.73-5-11.76-5.36a28.3,28.3,0,0,1-4.7-1.16s-.36-.11-.67-.24c-8.94-3.55-7.52-13.28-16.8-19.09-4.48-2.8-8.11-2.57-8.55-5-.47-2.68,3.58-4.48,6.34-7.75,8.5-10.06,4.08-33.26-6.24-37.59-2.92-1.24-8.3-1.45-11.58,1.24-2.21,1.8-3.11,4.61-3.71,4.4s.33-2.9.14-5.65c-.33-4.67-4-10.41-9.45-11.94a11.39,11.39,0,0,0-3-.4Z"/></g></g></svg>