<svg width="579" height="551" viewBox="0 0 579 551" fill="none" xmlns="http://www.w3.org/2000/svg">
<ellipse cx="522.266" cy="201.689" rx="55.4561" ry="55.8962" fill="#FFE600"/>
<ellipse cx="522.266" cy="55.8962" rx="55.4561" ry="55.8962" fill="#60C9EB"/>
<ellipse cx="522.266" cy="348.035" rx="55.4561" ry="55.8962" fill="#E9AD62"/>
<ellipse cx="522.266" cy="494.104" rx="55.4561" ry="55.8962" fill="#E96262" stroke="black" stroke-width="2"/>
<path d="M4.29562 490.448C4.98657 497.615 31.7744 493.283 45.072 507.629C50.0558 512.993 58.1205 527.021 59.3777 530.468C59.7787 531.666 60.5233 532.719 61.5185 533.496C62.5162 534.198 63.6975 534.593 64.9165 534.63C65.4874 534.63 66.0555 534.55 66.6042 534.392C69.4019 533.496 70.4327 527.588 70.512 527.123C71.8825 518.81 69.6624 511.779 70.0702 506.835C71.2029 492.512 94.638 494.927 114.086 471.827C117.847 467.37 123.057 460.056 130.147 460.09C132.741 460.09 135.879 461.099 142.664 461.122C145.676 461.122 147.738 460.804 148.735 460.884C155.202 461.451 159.201 464.728 172.226 465.68C191.187 467.064 196.839 461.144 204.089 466.508C204.089 466.508 212.629 472.893 219.255 475.479C223.265 477.055 223.106 475.978 225.575 477.293C230.016 479.652 235.566 492.398 235.566 492.398C240.719 504.147 244.401 504.952 243.177 507.912C241.093 512.97 230.718 509.579 222.517 517.937C221.203 519.275 218.088 522.473 219.029 525.422C219.488 526.514 220.246 527.455 221.216 528.135C222.186 528.815 223.328 529.207 224.511 529.266C225.191 529.275 225.868 529.156 226.504 528.914C227.909 528.438 235.305 525.921 236.925 527.622C238.295 529.073 234.524 532.623 233.595 540.754C232.938 546.526 234.433 548.216 235.249 548.84C235.816 549.24 236.46 549.518 237.14 549.656C237.248 549.775 237.381 549.868 237.531 549.927C237.68 549.986 237.841 550.01 238.001 549.996C239.59 549.922 241.113 549.333 242.339 548.318C246.791 544.542 256.339 529.221 265.287 523.97C275.934 517.733 286.026 525.569 291.339 518.572C293.763 515.385 294.476 510.089 292.256 506.925C288.179 501.119 278.517 507.663 266.103 502.752C261.221 500.824 256.588 494.598 247.289 482.124C244.559 478.461 241.082 473.381 242.758 470.954C242.958 470.686 243.203 470.456 243.483 470.273C246.96 467.676 248.297 462.437 248.569 461.609C250.494 455.61 269.976 448.579 275.685 446.277C279.253 444.837 308.805 431.773 321.853 407.504C323.552 404.34 327.868 395.608 331.685 396.243C334.528 396.708 334.46 401.914 338.968 403.943C340.783 404.64 342.753 404.833 344.669 404.502C346.585 404.17 348.376 403.327 349.853 402.061C355.007 397.377 351.858 389.02 354.984 387.761C358.11 386.502 361.599 395.449 370.128 397.967C379.642 400.723 389.259 393.51 390.776 392.297C400.971 384.359 403.315 370.818 404.119 366.157C405.807 356.371 403.723 351.63 408.038 346.073C411.187 342.025 413.951 342.411 419.365 338.94C420.113 338.464 436.967 327.35 436.808 310.839C436.695 298.852 427.679 290.483 426.071 288.986C417.621 281.161 411.946 284.246 408.152 278.859C399.804 267.042 423.534 247.106 416.658 228.814C412.501 217.712 398.762 212.359 390.006 211.146C367.171 208.004 343.566 228.462 333.837 249.499C323.303 272.293 332.817 287.773 319.599 298.682C307.649 308.559 288.099 305.622 287.363 302.787C286.876 300.871 294.975 299.294 298.123 291.447C299.571 287.535 299.663 283.249 298.384 279.279C296.119 271.964 290.014 267.859 287.465 266.203C265.627 252.028 209.775 251.404 186.272 227.147C159.914 199.93 167.854 136.367 149.539 121.409C148.406 120.536 143.581 116.794 144.227 112.938C145.031 108.107 153.549 108.402 159.518 102.924C169.599 93.7159 169.712 70.6949 159.892 62.7567C151.227 55.737 138.677 63.6299 135.097 58.2205C129.83 50.2142 156.471 32.1376 151.725 15.7508C148.837 5.72589 134.52 -2.56394 122.706 0.736116C112.67 3.53719 105.999 14.0611 105.398 22.6231C105.047 27.6695 106.769 32.5799 105.659 32.9768C104.549 33.3737 102.906 28.2139 98.8629 24.9138C92.8596 19.9807 83.0054 20.3777 77.6591 22.6457C58.7661 30.584 50.6788 73.1218 66.2418 91.5612C71.2822 97.549 78.7012 100.86 77.8404 105.759C77.0475 110.296 70.3987 109.865 62.1868 115.002C45.1967 125.65 47.7905 143.5 31.4346 150.01C30.8683 150.236 30.2 150.441 30.2 150.441C27.3951 151.391 24.5156 152.104 21.5916 152.573C17.8764 153.23 1.26007 156.122 0.0707703 162.393C-0.529572 165.421 2.7099 168.551 9.20013 174.811C15.9962 181.309 17.6385 180.799 19.6547 183.883C24.0495 190.551 20.1871 199.397 15.6111 213.538C12.213 223.915 10.2535 234.711 6.98007 245.11C-1.1752 270.932 -3.21402 338.101 31.1401 380.14C43.6902 395.484 62.6286 418.697 77.6932 428.518C80.1284 430.128 85.6219 433.474 89.2578 440.176C90.2206 441.956 95.5667 450.598 94.049 460.09C91.3079 477.327 67.3857 489.767 55.47 484.335C45.004 479.572 43.1578 465.295 35.0818 466.032C30.9022 466.418 26.0204 470.965 26.3035 473.71C26.3418 474.899 26.5555 476.076 26.9378 477.202C27.245 478.021 27.4283 478.881 27.4816 479.754C27.4441 479.9 27.3987 480.044 27.3456 480.185C26.7113 481.704 18.9185 480.536 13.9234 481.863C9.38135 483.065 3.98981 487.261 4.29562 490.448Z" fill="#E96262"/>
</svg>
