<svg xmlns="http://www.w3.org/2000/svg" viewBox="0 0 373.01 375.37"><defs><style>.cls-1{fill:#e96262;fill-rule:evenodd;}</style></defs><g id="Слой_2" data-name="Слой 2"><g id="Слой_1-2" data-name="Слой 1"><path class="cls-1" d="M226.55,92.52c-.25-.24-.38.1-.55.36a.54.54,0,0,0,.55-.36Z"/><path class="cls-1" d="M180.65,102.89c1.18-2.1,1.94-4,.38-5C179.14,99.25,179.49,102.32,180.65,102.89Z"/><path class="cls-1" d="M180.35,105.13c-.24-.21-.62.66-.14.59l.18-.34C180.25,105.33,180.3,105.24,180.35,105.13Z"/><path class="cls-1" d="M178.58,122.78a3.55,3.55,0,0,0-.43-.23,10.69,10.69,0,0,0-1.12,5.08C178.79,126.89,177.9,124.34,178.58,122.78Z"/><path class="cls-1" d="M177.79,128.25c0-.78-.82.69,0,0Z"/><path class="cls-1" d="M169.11,123.77c-1.33,2-1.43,4.45.37,4.35C170.62,126.72,171.15,123.88,169.11,123.77Z"/><path class="cls-1" d="M176.77,129.45c.29-.17.69.12.92-.37C177.56,128.38,177.06,129.07,176.77,129.45Z"/><path class="cls-1" d="M136.16,114.69l-.28-.15-.18.34a1.51,1.51,0,0,1,.28.15C136.05,114.91,136.1,114.8,136.16,114.69Z"/><path class="cls-1" d="M136.45,115.5a.47.47,0,0,0,0,.33.18.18,0,1,0,0-.33Z"/><path class="cls-1" d="M137.07,116.71c-.33.19-.84.24-.74.69.36.18.68,0,.93-.37a.18.18,0,0,1-.1,0,.12.12,0,0,1-.07-.07.42.42,0,0,1,0-.1A.43.43,0,0,1,137.07,116.71Z"/><path class="cls-1" d="M139.57,130.53c-.31.52,0,.77.33,1.06C140.13,131.1,140.05,130.73,139.57,130.53Z"/><path class="cls-1" d="M66.5,120.52l-.28-.16c-.25.33,0,.43.24.57C66.5,120.78,66.41,120.69,66.5,120.52Z"/><path class="cls-1" d="M72.56,169.3a2.16,2.16,0,0,0,.89.88,2.08,2.08,0,0,0,1.22.26c.38-.41,0-.54.32-.92-.87-.07-1.24-.46-2.24-.56l0,.21Z"/><path class="cls-1" d="M32.68,195.4c-.13-.9-1.61-.92-2.25-.56a2.37,2.37,0,0,0-2.53-.71c1.21,1.06,2.76,2,4.45,1.54l.16-.14Z"/><path class="cls-1" d="M30.75,321.47c-.29,1.78-2.79,2.86-3.76,3.88-1.13,1.18-1.17,2-2.25,3.15a20.51,20.51,0,0,1-4.26,3.15c-4.7,2.6-10.82,2.36-15.9,2.77-1.68.14-3.28.76-4.16-.07s-.38-3.29,1-5.15,5.64-2.81,8.37-4.66c2-1.37,3.53-3,5.1-4s4.05-1.28,5.91-1.83c3.15-.94,5.75-1.36,8.83-.48.08.06.15.12,0,.25C29.63,319.9,31,320.18,30.75,321.47Zm-8.73,1c-.68-.42-1.24-.37-1.63.65C21.06,323.51,21.61,323.29,22,322.43Z"/><path class="cls-1" d="M272.87,170.43l.09.16c.57-2.38,3.15-5.05,3.72-7.82.16-.79-.18-3.29-.82-3.52-1-.34-2.41,1.73-2.93,3-1,2.59-.41,6.14-.26,8.17Z"/><path class="cls-1" d="M102.86,194.34l.11.06c-.14.17-.3.17-.41.48a2.93,2.93,0,0,0,1.61.52c.29-.39-.19-.57.26-.74,1,.56,1.91.51,2.93,1.07l-.09.05,0,.1-.22.4a.35.35,0,0,0,.22.12.37.37,0,0,0,.25,0,.38.38,0,0,0,.16-.19.36.36,0,0,0,0-.25l.07-.14-.11-.06c1.11,0,2.07.67,3.07.77.37,0,.85-.28,1.15-.24,1.62.15,2.77,1.15,4.47,1.71,2,.67,4.39.23,6.3,1.31,2.28,1.31,3.18,3.69,5.65,5.16l-.13.11,0,.16c-.05.08-.1.16-.18.08-.21.47.55.64.7,0l-.22-.12.13-.1,0-.17c.72.37,1.11,1.82,2,.89.41.16-.15.7.44.76,1.37-.52,2.22,1.45,3.42,1,.35.18.08.6.63.7.38.22.56-.6.93-.37.12,1.61,2.42-.28,2.78.8.31-.06.17-.84.66-.69-.09,1,1.77,1,2.44,1.14.5-.5-.12-.71.33-.88.83-.15.32.66,1,.88.26.11.43-.21.6-.55.89.67,2.28.93,2.6,2.46.34,0,.89-.43,1,.21s-.91-.11-1.15.78c.93,1.25,2.2.39,3.08-.25.51.29.44.81,1,1.08.44-.37.29-.78.77-1.16,1.25-.28,2.29-1.66,3.66-1.35.11-1.16,1.57-.94,2-1.87s-.43-2.13-.87-3.26-.95-2.23-1.22-3.11a20.27,20.27,0,0,0-.71-3c-1.41-3-5.76-5.93-8.82-7.94-1.23-.81-2.31-.46-3.19-.85-1.92-.79-3.2-2.8-4.11-4,.95-1,2,0,3.13.13.55.07,1.12-.32,1.57-.2,1.62.42,1.87,1.53,2.54,3.11-.15-.07-.34.3-.23.41a13.71,13.71,0,0,1,2,1.24,1.07,1.07,0,0,0,.16-.61c.35.31.9.56,1.09.94-.23-.15-.42-.08-.56.23.58.3.81.74,1.51,1,.34-.12.07-.49.52-.41.1.32-.51.46-.15.8.81.52,2.1,0,2,1.62.3.34.47,0,.62-.36.36.39.35.92.75,1.29a1.16,1.16,0,0,1,.45-.12,1,1,0,0,1,.46.1c.76.65,1,2,2,1.63.46,0-.15.48.3.52s.64-.14,1-.18c.62,1.17,2.11.59,3.11,1s1.74,1.33,2.67,1.79c.44-.45,1.09.14,1.61,0,.11.34-.1,1.15.49,1,.48.12.16-1,.59-.56.85,1.09,2.85.44,3.61,2,.33.13.46-.75.82-.43.43.12,1,1,1.77,1.3a2.59,2.59,0,0,0,.39,1.43c.51.8,3,2.57,3.68,1.83,0-.62-.63-1-.43-1.63.27,0,.49-.2.72-.51,1.61,1.2,2.89.59,4.39,1.32,1.83-.69,1.44-3.73.55-4.77s-1.92-.69-2.65-1.07a2.47,2.47,0,0,1-1.06-1.46,2.52,2.52,0,0,1,.2-1.79c1.4-2.21,2.91.95,3.91,1.41.7.34,1.58-.21,2.39.95,1.18-.42,2.62.21,3.78-.76,2.19-1.84,1.2-2.93.37-4.71-.71-1.52-1.58-3-2.1-4.47-.69-2-.92-4.15-2-5.78-.41-.65-1.23-1.09-1.7-2a6.34,6.34,0,0,1-.37-2.83c.64.52.61,1.31,1.54,1.71,1-.4,3.18-.45,3.86.16.44.39.31,1.41.76,1.82s1.42.19,2.18.3c2.86-2.78,1.25-5.69.93-8.44-.06-.6.14-1.33,0-1.92-.53-2.87-2.72-4.87-4.14-7.66a23.48,23.48,0,0,0-3-5c-.47-.47-1.07-.52-1.39-.93-.2-.24-.15-.79-.35-1.23-.48-1.11-.71-1.8-1.14-2.73a15.81,15.81,0,0,0-1.87-3.29,11.39,11.39,0,0,1-1.38-.92c-.25-.25-.57-1.16-1.18-1.87s-1.32-1.17-1.55-1.71c-.55-1.27-.05-2.58,1.14-2.36,1.62.28,2.7,3.16,3,3.89.5,1.3,1.36,2.19,1.75,3.23v.09l0,.16-.34-.17c-.06.45.22,1.18.72,1.08.06-.09.1-.18.15-.27l.07-.13.08-.14a17.68,17.68,0,0,1,5.15,8.21l-.11-.06-.08.14a.51.51,0,0,0-.25.25.61.61,0,0,0-.07.35.63.63,0,0,0,.15.32.57.57,0,0,0,.3.19,1,1,0,0,0,.17-.6l.11.06.07-.14c.33.23.23.61.38.91l-.14.08v.17l-.23-.12-.22.4.34.19c.07-.13.14-.28.22-.41l.07.13h.15a.66.66,0,0,1,.23.21.67.67,0,0,1,.07.31l-.14.08,0,.17a2.53,2.53,0,0,0-.23-.12,3.43,3.43,0,0,0,1.3,2.45l.22-.41.07.13h.15c.66.48.44,1.31,1,1.82l-.09.05-.09,0c-.28.39-.24.64.16.79l.22-.41.07.09.09,0c.41.62,0,1.55.24,2.24.73.71,1.13-.24,1.61.52-.44.28-.44,1.32.41.57-.89.78.42.61.1,1.47.27.33.83.32,1,.87-.11-.2-.53.55-.29.55.65-.06.68.6,1.09.94-.14.47-.48,0-.6.55,1.27.16.82,1.37,1.76,2.16-.1.52-.42-.09-.52.43.71.83,1.5,1.63,1,2.66,1.19-.18,2.49.09,2.9-1.59.15-.62-1.13-3.41-1.23-4.16l.11,0,.08-.13c.21.07.38-.09.52-.42a.4.4,0,0,0-.22-.12.37.37,0,0,0-.25,0,.42.42,0,0,0-.16.19.39.39,0,0,0,0,.26l-.12-.07-.07.14c-1.54-1.58-3.46-3-3.45-5.2a1.81,1.81,0,0,1,2.29.36c-.16.45-1,.06-.78.63.09,1.05.69-.2,1.23.14.49.7-.59.57-.55,1.29.41.19.58-.76,1-.51-.07.37.44.53.2,1-.13.66-.61-.37-.75.3,1.38,0,2.11,1.45,2.82,2.58.19.08.28-.3.49-.09.19,1.22,1.7,1.33,1.9,2.42.43.19.54,0,.79.43a1.92,1.92,0,0,1,.13,1.11c1.91.36.83,2.06,2.8,2.91.24.29-.51.12-.3.54.73.05.75.67,1,1.22-1.42.67-4.74-2.86-5.58-.75-.21.51,0,1,.75,1.3L202,184l.12.06c-.14.17-.3.18-.41.48l.45.25a1,1,0,0,0,.16-.6l.12.06.07-.13c.32-.08,1.16-.2,1.23.14-.26-.09-.37.63-.07.66.27.32.36-.2.53-.42.43.15,0,.64.44.76.79.18,2.05-.12,2.61,0,.16,0,.33.43.5.43.51,0,.86-.44,1.33-.32a2.32,2.32,0,0,0,.5.44c.58.4,1.46.14,1.62,1,.71-.46.89-.39,1.46.26a2.35,2.35,0,0,1,1.56-.72c1.69-1.08,2-3.67,3.29-5.77a8,8,0,0,0,.77-1.15c.46-1.35-.33-2.66.09-3.64l.11.06.08-.13c1.62.72,2.33-2.5,2.73-3.43s1.2-1.64,1.45-2.36c.3-.95-.23-2.1-.29-3.49,0-.38.21-.79.18-1.12-.18-2.07-1.6-3.65-.5-5.53-1.43-4.69-3-9.32-2.63-14.75.17-.52.45-.43.63-.88-.69-.53-.38-1.47-.17-2.36l.15-.07.12-.15c.85.9-.47,2.66.58,3.48l.52-.95.06.11h.15a32.91,32.91,0,0,1,.51,6.57l-.12-.06-.07.14a4.83,4.83,0,0,1-.69-2.48c-.11,0-.23-.12-.31,0-.54,1.27,0,3.05,1,3l.14-.27,0,.09.09-.05c.7,1.13.33,2.7.78,3.93l-.11-.06-.07.14-.34-.19c-.57.59.23,1.62.72,1.11l.12.06.07-.14a.42.42,0,0,1,.08.39l-.13.11,0,.17-.22-.13a1,1,0,0,0-.18.62l-.11-.07-.07.14c-.08.13-.19.11-.27.21.56.85,0,1.76,1.15,2.19-.4,1.28.55,2,.62,3.15.2.16.32-.06.48-.09l-.07.13.11.06c.62.2-.23,1,.57.83.4-.44-.3-.43,0-.85,1.17.88,1.18,3.13,1,4.91l-.11-.06-.08.14a.7.7,0,0,0-.19-.28.73.73,0,0,0-.3-.16l-.07-.13h-.15c0-.29,0-.58-.35-.71-.29.43-.38.79.09.92l.08.13h.14c-.1.5-.17,1,.35,1.23.23-.23.65-.34.56-.75l.11.06.08-.13c.26.46.88,1.34.34,1.77.1-.19-.21-.3-.3,0a4.1,4.1,0,0,1,.43,2.16c-.45.26-.77-.93-1.27-.34-.21.93.27,1.59.47,2.35a4.06,4.06,0,0,1,1.76.26,7,7,0,0,1,1.57.85c1.09.06,1.82-1.66,2.95-1.38l.09-.05.08-.05c0,.57.87.23.67-.16a.43.43,0,0,0-.2-.07.5.5,0,0,0-.21,0l.08-.14-.12-.06c.14-.16.3-.17.41-.48s-.55-.19-.12-.59c2.65-3.75-.15-7.51,1.33-11.55a14.41,14.41,0,0,1,2.2-4.06c-.13,1.68-.6,3.49.35,4.74,1-1.74.31-3.74,1.08-5.71.13.68.08.8.87.82-.85,1.54,1.18,3.81.76,5.32-.47,1.72-.24,4.08-.89,5.65-.17.41-.62.79-.77,1.16-.57,1.34-.31,2.72-.61,4-.09.39-.42.82-.48,1.15s.21.75,0,1.25c-.59,1.94-1.62,3-2.16,4.81-.38,1.3,0,2.24,0,3.17,0,.65-.36,1.13-.29,1.6a14.76,14.76,0,0,0,1.88,4.87c.75,1.21,2.22,2.69,1.64,4.22a2.77,2.77,0,0,1-2.3,1.55c-.93-.11-1.15-1.54-2.15-2.22-1.38-.92-2-.39-3.36.29-1.15,3.2-2.26,7.14.7,8.62,1.27-1.71,2.83-2,4.12-3.55,2.2-.76,4.47-1.13,6.29-3.78,1.07-.22,2-1.13,3.14-.94.59-.92,1.36-.75,2-1,.22-.09.37-.43.6-.56.49-.28,1.13-.11,1.46-.26a6.34,6.34,0,0,0,1.89-1.6c.42-.83-.13-2.25,0-3.18,0-.22.32-.45.38-.68.17-.66,0-1.53.16-2.18.33-1.44,1.35-3,.79-4.13a1.69,1.69,0,0,1-.76-.76c.37-.94,1.15-2,2.19-2.14-.36.5.23.62.57.83-.21.72-.12,1.32.72,1.62.88-.72,1.64-2.9,1.84-4.44.12-.9-.42-2.24-.14-2.71s1.13-.2,1.38-.66c.1,1.21-.62,2.73.4,3.56.58-1,1.58-.87,2.27-1.76,1.42-1.81,1-2.88,1.27-4.74s.92-3.21.75-4.33c-.32-2.32-2-4.48-2.49-6.42-1,.48-.46,1.47-.53,2.34-.11,1.28-.81,2.95-.82,3.93-1-1.19.34-3.31-.23-4.67.82-1,0-1.16.72-1.88-.81-1.16.38-3.12.49-4.65,3.48-1.57,3-5.7,4.34-9,.25-3.24-.82-6.52,1.68-10.31l-.07.13.11.07a.37.37,0,0,0,.19.45l.37-.68a3.65,3.65,0,0,0-.34-.18l.09,0,0-.1a4,4,0,0,1,.67-.7,3.22,3.22,0,0,1,3.91,3,32.11,32.11,0,0,1-.48,9.74c1.08,1.76,1.65,4.94,2.95,6.88,1.09,1.58,3.05,3,4.69,1.31.68-.7.77-1.5,1.33-1.91a6.21,6.21,0,0,1,.93-.37c2.44-.48,3.46,2.35,4.37,3.76.6.94,1.51,1.68,2,2.49.13.24.1.63.28.86.88,1.13,1.86,1.86,2.3,3,.22,1-.49,2.08-.19,3.05.12.41.76.76.94,1.21.26.64-.09,1.43.54,1.69-.46.81,0,1.74-.05,2.78,0,.3-.33.56-.33.87s.3.74.23,1.18c-.09.73-.73,1.48-.88,2.15-.42,1.91.51,2.86,1.78,4a2,2,0,0,0,1.25-1.77c1.31-.66,1.47-2.31,2.53-3.55-.67-.34-.23-1.07.29-1.6-.16,0-.59.09-.27-.32-.39-1.15.5-2.46,1-4,.47-1.39.42-2.92.71-4,.48-1.75,1.61-2.13,2.07-3.27.31.66.71-.18,1.09-.63.05-.53-.73.29-.38-.37.19-.71.62-.25.81-1-.56,0-.58.09-.42-.57l.11.06.08-.14a.3.3,0,0,0,.11.06,1.71,1.71,0,0,0,.23.13A1,1,0,0,0,300,157l-.23-.11-.12-.06-.07.13c-.22-.19.38-.72.22-.93l.11.06L300,156c.31.17.62-.49.56-.75l-.11-.06.08,0,0-.09c.42-.58.62-1.81.29-2.14.75.41.63-1.38,1.23-.91.9.89-.28,2.71-.79,4.13a33.67,33.67,0,0,0-2,6.63c-.23,1.47-.09,2.62-.2,3.57-.22,2-1.09,3.8-2.31,4-.27,1.68-1.3,3.34-1.83,5-.13.39,0,.76-.19,1.13s-.7.91-.92,1.42a6.17,6.17,0,0,0,0,.86c-.58,2.08-1.88,4-2.09,5.7,0,.38.18.73.13,1.11s-.4.79-.48,1.15,0,1.2-.13,1.86c-.27,2-.28,2.45.56,3.8a9.7,9.7,0,0,1,1.49,2.59c.33,1.45-.06,2.23.07,3.89-1.93,2.82,1.89,2.05,2.67,2.86.21-.34.45-.44.75-.3,5.27,2.74,7.21,6.8,2.95,13.34a9.58,9.58,0,0,0-3,2.38c2.2,1.67,6.19,4.49,9.3,3.28,1.42.8,2.89,1.11,4,2.33.78.86,1.16,2.38,2.67,2.86.22.38,0,1,.08,1.45.22.78.88,1,1.26,1.72.2.35.16.92.34,1.25.88,1.52,2.21,2.71,2.4,4.44a8,8,0,0,1,1.54,2.25,4.16,4.16,0,0,0,1.52-1.46c.69-1.11,1.62-2.25,2.38-3.27,1.14-1.54,3-4,3.39-5.7,1.41-5.7,2.87-12.27,6-18,.17-.58.52,0,.73-.5.09-.29-.39-.35,0-.73,1-.69.32-1.39,1.36-2.24l.07.13h.16c.24,1-.62,1.92-.92,3-.26.92,0,2-.31,3-.13.46-.45.84-.55,1.29-.22,1-.12,2.1-.46,3.25-.1.35-.47.74-.59,1.08-.25.73-.21,1.51-.47,2.2a58.64,58.64,0,0,1-5.56,10.49c-1.07,1.72-1.76,3.42-2.76,5.34s-2.93,4.51-3.31,6.09c-.25,1,.3,2.09.24,2.77-.11,1.48-1.88,4.54-1.55,5.81s2,2.06,2.94,1.58c1.28.54,1.86,1.62,2.79,2.38.36.3.94.24,1.32.53s.41,1.07.69,1.42.93.94,1.39,1.46a15.74,15.74,0,0,0,1.33,1.6c.58.4,2.63.66,3.29-.15a7.73,7.73,0,0,0,.46-1.67c1.09-3.41,2-6.59,4.79-9.33l.08,0,.09,0c-.29.72.86.06.07-.14l0-.1-.08,0c.35-1.11,1-.71,1.44-1.34-.22-.38.21-.63.28-1.07.1-.64-.33-1.11-.34-1.77a8.66,8.66,0,0,1,1.26-4.75c.56-.79,2.46-2.31,3.92-1a5.69,5.69,0,0,1,.92,2.59,6.09,6.09,0,0,1-1.76,4.31c-1,.84-2.55.55-3.43,1.47-1.73,1.83-1,4.06-1.82,5.51s-2.9,2-3.45,3.91c-.3,1.1.82,2.24.87,3.25,0,.42-.37.85-.36,1.23a3.5,3.5,0,0,0,1.25,2.26c.18.12.69,0,.82.09.81.33,1.82,1.65,2.75,2.19.25.14.6.05.75.23.44.48.44,1.75,1.15,2.19a4.67,4.67,0,0,0,.41,4.08c.5,1,1.05,2.25,1.59,3.49.74,1.71,1.6,2.35,2.51,4a16.11,16.11,0,0,0,1,1.94c1.19.8,3.21-.89,4.67-.8a3.07,3.07,0,0,1,1.39.4c1.88,1.27-1.87,3.52-2.51,4.07-1.44-.27-3,1-4.44,1.45a7.57,7.57,0,0,0-2.38.63,11.55,11.55,0,0,0-1.64,1.4c-.1,1,.8,1.66,1.29,2.45a1.21,1.21,0,0,1,.48-.61c1.37,0,2.55-.6,4-.64a31.26,31.26,0,0,1,6.29.77c.8.14,2.35.25,2.7.41a2.9,2.9,0,0,0,.41.58c.19,0,.65-.4.93-.38.44,0,.95.6,1.43.6s.47-.37.87-.24a42.14,42.14,0,0,0,7.64.45c-.11,0-.2,0-.26.2.74.35.55-.08.85-.23a3.69,3.69,0,0,1,1.5-.59c.75,0,4.06,1.11,3.24,2.1-1.59,1.89-5.11-.39-7.11-.88-1.21-.29-2.38.17-3.4.09a36.35,36.35,0,0,0-3.84-.48c-.49,0-1,.4-1.42.45a12.42,12.42,0,0,1-1.76-.25c-.35,0-.77.24-1.15.25-.81,0-1.57-.36-2.3-.35-.38,0-.81.34-1.23.38a16.41,16.41,0,0,1-2.87-.34c-1.73-.24-3.23-.94-4.68-.25.34,1.25-.21,2.84-.64,4.39-2.6,1.4-2.27,6.12-.16,7.27.67-.26,1.69-.59,2.25.17.83-.65,1.87-.35,2.71-1,.36-.13.17.19.57.31.82-2,5.52-2.13,4.53,0a4,4,0,0,1-2.27,1.22c-1.5.05-3.1-1.34-4.27-.21a7.8,7.8,0,0,0-.32,6,5.29,5.29,0,0,0,.87,1.88c.28.3,1,.36,1.36.74s.3.65.56.83c1.73,1.18,4.84,1.34,5.75,2.58,1.06.31,4.57.29,5.29,2.35a3.19,3.19,0,0,1-.36,2.24c-.62.84-2,.58-2.83.38-1.07-.24-2.65-.09-3.52-.51-1.55-.73-2.09-2.83-3.53-3.47-.69-.31-1.56,0-2.13-.1-1.61-.37-2.71-1.42-3.86-1.22s-1.62,1.33-3.05,1.86a4.57,4.57,0,0,1-2.74-.08c-1.27-.36-1.45-1.3-2.26-1.74a9.43,9.43,0,0,0-2.66-.22,4.59,4.59,0,0,0-2.4.12c-2,.66-3.19,5.2-2.52,6.51.23.45.82.47,1.05.75a6.2,6.2,0,0,1,1,2.47c.1.57-.28,1.45-.06,2.25a15,15,0,0,0,.9,1.56,5.73,5.73,0,0,0,2.19,2.41c.22.61.13,1.35.76,1.81a3,3,0,0,1-1,1.9c-1.43.39-2-.92-3.07-1.32a4.38,4.38,0,0,0-2.09.09c-.69.12-1.53.64-2,.68s-.49-.29-.75-.23c-.47.13-.92.7-1.38.66-.65.92-1.61.93-2.35,1.89-.5.66-.57,1.59-1.06,2.23s-1.5.69-1.82,1.46c-.17,1.07,1.55,2.08,1.93,3.15.28.78-.12,1.87,1,1.41.9,1.92,2,.56,3.07.27.21-.06.48.23.75.22.65,0,1.14-.34,1.57-.2a3.78,3.78,0,0,1,2.19,2.41c.37-.36-.31-.29.07-.65,1,.61,1.77,1.38,2.61.52a4,4,0,0,1-.35-2,3.86,3.86,0,0,1,.68-1.88c1.4-.3,2.41-.05,2.71,1.48.16.79-.4,1.36.06,1.79s2.28-.15,3.22,0c3.44.5,4.71,4.24,4.58,6.86a3.7,3.7,0,0,1-.7,1.55c-.84,1.25-2.47,3.55-3.41,4.11-.79.46-1.53.27-2.5.58-.8.25-1.57.81-2.17.74a5.65,5.65,0,0,1-2.79-1.32c-.82-.72-1.07-2.9-2.36-3.19-1-.24-2.94,1.7-4.55,1.4-.89-.17-1.36-.89-2.18-.84-1.32.1-3.3,1.54-4.39,2.18-.15.27-.3.54-.44.82-3.46,1.81-7.17,2.41-10.84,3.26-1.36-1-2.62.2-3.67-.76a17.91,17.91,0,0,1-5.64-.08c-.55-.13-.86-.53-1.2-.48a27.36,27.36,0,0,0-3.87,1.22,11.88,11.88,0,0,1-5.16-.16c-.36-.12-.68-.51-1-.55-.84-.1-1.55.7-2.29.69a4.61,4.61,0,0,1-2-.57c-.38-.25-.33-.82-.79-.95-.88-.25-3.1,1.05-4,1.69a10.37,10.37,0,0,0-2,2.6,50.83,50.83,0,0,1-4.14,4.43c-.93,1-1.52,2.17-2.56,2.82a14.84,14.84,0,0,1-3.06,1.33,20.21,20.21,0,0,1-2.31.5c-.48,0-.88-.28-1.35-.21a14.93,14.93,0,0,0-1.75.81c-.74.23-1.46.24-1.83.41-.75.33-1.16.94-1.63.86-1.61-.26-2.22-2.08-2.58-3.32.27-.42.12-.68.48-1.14-.05-.3,0-.63-.28-.86,1.21-2.59-.21-4-.28-5.94,0-.64.35-1.63.39-2.59,0-.55-.19-1.12-.12-1.65a15.74,15.74,0,0,0,.53-3.39,23.76,23.76,0,0,0-.75-4.26c-.21-.75-.61-2.62-1.11-3-1.61-1.42-3.59.16-4.7,1.13-.44.39-.86,1.09-1.33,1.38-.76.44-2.82.82-3.78.24a2.51,2.51,0,0,1-1.07-2.33c.57-2.23,3.49-2.77,5.17-3.87,2.42-1.58,2-4.27.73-5.91-.13-.18-.52-.21-.67-.37-1.11-1.11-1.74-2.84-3.17-3.29a8.44,8.44,0,0,0-.2-1.51c-.33-.32-.53,0-.86-.29.09-1.49-1.65-2.24-1.83-3.62-.4,0-.73.36-1.12.45-1-.36-1.66-1.55-2.59-1.93-1.33-.54-3-.24-4.27-.74-1.89-.72-3.46-2.46-4.71-3.42-.6-.45-1.24-.39-2.06-.77-.65-.29-1.16-.91-1.85-1.17a18.23,18.23,0,0,0-3-.59c-2-3-4.74-.95-7.08-1.2-1.83-.2-4.08.32-5.9.13-.33.38-.74.37-1.09.63-1.86-.12-3.19-.63-4.68-.25-1.07.27-1.75,1.26-2.75,1.84-.69.39-1.55.26-2.12.95-.69-.18-1.31.44-1.91.55-.27.05-.52-.25-.75-.23s-.42.31-.63.36-.6-.16-.82-.09a8.69,8.69,0,0,0-3.39,1.67c-1.65,1.28-2.28.81-4.14.91-.5,0-1,.25-1.46.26A10,10,0,0,1,182,328c-1-.11-2.29-.07-3.07-.26-1.56-.4-2.67-1.61-4.09-2.39-.74-.4-1.65-.31-2.14-1.17-6.43-1.11-11.74,3.46-17.77,4.23a6.77,6.77,0,0,1-5.76.39c-3-1.29-3.24-5.43-.41-8.11.79-.74,3.44-2.33,3.77-1.29,1-1.05,2.35-.67,3.43-1.47.38.2.69.08,1.09.42,1.91-.72,4-.26,5.92-1.2,1.09.79,1.9.11,2.8-.06.71.76,1.52.17,2.52,1a29.94,29.94,0,0,1,4.9-.68c.85,0,1.75-.81,2.6-1a30.75,30.75,0,0,1,3.07-.25c.83-.15,1.55-.6,2.28-.7s1.53.13,2.43.09a26.44,26.44,0,0,0,4.6-.67c1.37-.31,2.68-.48,3.77-.76a4.56,4.56,0,0,0,3.23-3c2.24-6.13-7.84-6.86-11-7.17-.23.38-.52.46-.75.83-2.72.56-6.62,1.73-9.86.45a10.68,10.68,0,0,1-3.27-1.78c-.84-.83-1.06-2.51-2.57-2.79a25.27,25.27,0,0,1-2.76.78c-.31,0-.57-.29-.86-.29-1.63,0-3.31,1.08-4.63,1.53-.66.22-1.38.06-2,.29-1.18.4-1.81,1.41-3,2.23a15.1,15.1,0,0,1-4.1,1.64,20,20,0,0,0-4.48.72c-1.51.43-3.13,1-4.48,1.26s-2.72.17-3.85.37c-2.15.37-4.27,0-6.54,1-1.2-.54-2,.35-3,.66-.54.17-1.1,0-1.69.14-1.59.41-3.27,1-5.07,1.28a22.31,22.31,0,0,0-5.14,1.44,17.38,17.38,0,0,1-2.27,1.22c-.6.15-1.3-.11-2.1.09-.31.08-.59.46-.89.58-1.63.63-3.47.72-4.85,1.4-1,.5-2.22,1.7-3.43,2a16.58,16.58,0,0,0-2.09.09c-1.24.35-3,1.46-4.73,2-.3.09-.67.05-1,.17-2.17.82-4.53,2.21-6.72.57-1.2-.91-1.62-2.63,0-4.76,1.71-2.32,4.78-2,7.41-2.64,1-.24,1.83-.63,2.66-.85s1.8-.23,2.73-.45c1.37-.32,2.86-1.14,4.32-1.51s2.69-.31,4.07-.78c.23-.08.47-.41.7-.49,1.54-.55,3.16-.53,4.75-.94,1.32-.34,2.62-1,3.87-1.22.57-.09,1.14.15,1.72.06.75-.13,1.51-.39,2.32-.5a26.22,26.22,0,0,0,3.39-.62c.92-.26,1.87-1.08,2.83-1.44a33.2,33.2,0,0,0,3.69-1.69,12.53,12.53,0,0,1,1.23-.38c1.33-.62,2.52-1.85,3.64-2.41,1.34-.66,3.12-.66,4.14-2a8.51,8.51,0,0,0,.55-1.28c1.88-3.33,4.64-4.78,6.94-6.58.29.29.47-.06.75.23,1.82-1.16,3.86-1.15,5.78-1.78.26-.28.57.75.94.16.33-.38-.14-.43,0-.72,1.72.08,1.86-1.59,2.44-2.89.34-.77,1.21-1.71,1.59-2.64.21-.52.09-.83.36-1.21.74-1,3-2,3.65-2.41.38-.22.63-.66.85-.76.7-.34,1.36-.16,1.9-.55a9.26,9.26,0,0,0,2.66-4.87c.2-2.6-2.58-3.16-4.6-3.36-.62-.07-1.28.15-1.79.07-.29,0-.42-.35-.68-.36-.84,0-1.64.35-2.39.11-.34-.12-.53-.47-.83-.63-1.06-.56-3.15-.75-4.46-1.19-.88-.28-2,.58-2.83.39-.27.62-.71.53-1,1-1.44.39-2.48.11-3.84.9s-2.62,2.57-4,2.77c-2.19.28-3.86-2.66-5.83-3.51-.46-.2-1.07,0-1.57-.33-1.12-.6-1.8-2.52-2.91-3.49-.83-.75-1.29-1.45-2.22-1.56a19.44,19.44,0,0,0-4.75.41c-.22.07-.28.4-.52.42-1.85.17-2.95-.54-4.09-2.4a13.28,13.28,0,0,1,1.06-2.22c1.83-.73,3.66-1.6,5.48-2.29a4,4,0,0,0,1.72.14,4.12,4.12,0,0,0,1.61-.62,2,2,0,0,0,1,.35c2-.61,3.71-2.27,5.82-2.11,1-1.2,3.15-.71,4.46-2.31.41-.49,1.06-2,.81-2.55-.35-.72-3.81-1.62-4.47-1.71-.45-.06-.87.24-1.27.19-.56-.1-.9-.62-1.58-.86-1.74-.61-3.52-.26-5.32-.41-1.49-.16-2.91-.75-4.31-.93a28.85,28.85,0,0,1-3.13-.14c-.72-.18-1.16-.65-1.76-.78s-1.18,0-1.72,0a26.86,26.86,0,0,1-3.45-.64c-1.67-.4-3.59,0-5.27-.23-.84-.09-1.55-.6-2.37-.75-.64-.14-1.36.05-2-.05s-1.43-.52-2.14-.62c-2-.29-4.62.8-6.91.1-2.08-.61-3.73-1.6-5.3-1.8s-2.7.54-3.73.42c-1.59-.16-5.1-1.4-4.36-2.71.46-.81,4.44-.82,5.12-.56.94.37,1.52,1.45,2.48,1.87,2.61,1.16,5.93-1.5,8.19-.3.66.36,1,1.28,1.55,1.72a12,12,0,0,0,3.51,0c1.58-.09,2.69.64,4.31.93,1.14.21,2.76-.36,3.56.7a12,12,0,0,1,5.69.78c4.72-.14,9.64,1.43,14.18,1.55.52.15.15.64.76.76.33.16.51-.47.87-.25a8,8,0,0,0,4.5.33c.77,1,2.14.67,3.06.77.19.17-.33.62.23.65.47.32.69-.57,1.12-.45-.07,1.65,1.73.49,2.58.88s.43,1.69,1.47,1.32c.67-.62-.33-.57,0-1.06,1.29.88,2.33-.05,3.47-.75.58-.33,1.3-.44,1.87-.74a20.1,20.1,0,0,0,2.26-1.75c.95-.74,1.87-1.08,2.31-1.56a7.7,7.7,0,0,0,1.72-3.44c0-.85-.59-.93-1.13-1.67s-.85-2.36-2-2.82c.09-.28.6-.73.14-.8-1,.61-1.68-.44-2.4-1,1.21-.45,2.58.71,4.16,1.2.1.59-.85.7-.55,1.29a3,3,0,0,1,1.54-.13,2.94,2.94,0,0,1,1.39.66c.28-1,1.53-.48,2.08-1.16a2.53,2.53,0,0,0-.06-2.83,13.85,13.85,0,0,0-2-1.1c-4.87-3-10.45-6.75-15.45-8.37-.14-.3.29-.82,0-1.06a21.77,21.77,0,0,0-3.38-5.33,15.81,15.81,0,0,0-2-2.29,19.12,19.12,0,0,0-2.81-1.53,33.45,33.45,0,0,1-3.88-2.79c-2.77-2.22-4.32-5.73-7.43-7-.31-.13-.72-.09-1-.21-2-.74-3.81-2.11-6.2-2.82-1.79-.54-4.44-1.05-5.93-2-1.21-.76-2.24-2.19-3.72-2.55-.71-.17-1.65-.47-2.55-.68-1.42-.32-3-.28-4.34-.59-1.83-.41-3.49-1.22-5.18-1.75-.88-.28-2.21-.42-3.26-.72-1.9-.54-3.84-1.28-5.67-1.66s-3.33-.37-4.71-1a5.52,5.52,0,0,1-2.64-2.13c.81-.36,1.25.17,1.6-.53.94-1.81-4-1.6-3.2-3.49.55-1.39,2.58.08,3.36.24,1.24.3,2.58-.15,3.56.18,2,.67,2.91,3.77,5.68,3.77.38,0,.86-.43,1.12-.44,1.47-.09,1.64,1.08,2.55,1.73a26.57,26.57,0,0,0,4.1,1.87c1.35.64,2.73,1.07,3.94,1.6Zm163.36-59.13a.39.39,0,0,0-.21,0,.48.48,0,0,0-.17.12c-.68,1.92.76,2.95.53,4.66.94-1.57.42-3.48-.15-4.81Zm.35,6.32c-.55,1.22-1.5,3.5-.71,4.53a6.44,6.44,0,0,0,.71-4.53Zm2.88,4.9a2.54,2.54,0,0,0,.4,2.49,2.16,2.16,0,0,0-.4-2.49Zm27.86,17.18c-.16-.14-.26,0-.41-.05.05,1.11-.82,2.59-.31,3.52.83-1,.6-2.43.72-3.47ZM268,161.23c-.41,2.27,1.54,4.19,3.63,5.12,1-1.42-.37-1.83-1.48-2.91s-1.15-1.65-2.15-2.22Zm21.19,16-.23-.12c0,.09-.09.17-.14.26l.22.13ZM220.78,145.5a1.56,1.56,0,0,0,.21,2,1.53,1.53,0,0,0-.21-2Zm-.06,5.74c-.22-.38-.66.44-.22.41l.22-.41Zm.8,1-.35-.18c-.15.2,0,.29-.11.47l.23.12c.09-.14.15-.28.23-.41Zm.34,1.24c-.33.56-.6,1.09,0,1.25.37-.57.49-1.05,0-1.26ZM257.13,175l-.23-.12-.15.27a1.55,1.55,0,0,1,.22.12Zm13.95,8.94c-.47,1.23.52,2,.77,2.88s-.12,2.43,1.08,2.86C276.42,187.22,274.45,184,271.08,183.93Zm-35.4-15.13-.34-.18-.21.4.33.19Zm17.1,9.61-.33-.18a4.1,4.1,0,0,0-.23.4l.33.19Zm-27.65-12.52-.33-.19-.23.41.34.18ZM236,172.66l-.23-.12a1.82,1.82,0,0,1-.15.27l.23.12a1.53,1.53,0,0,0,.16-.25Zm-10.21-3.26c-.32-.18-.85.79-.51.95.57.37.8-.69.53-.91Zm-48.52-23.46c-.33.45.11.59.44.77a.68.68,0,0,0-.09-.44.72.72,0,0,0-.33-.29Zm49.63,29c-.21-.19-.32.07-.45.26a.43.43,0,0,0,.27-.06.39.39,0,0,0,.18-.2Zm-43.4-19.47c-.26.43,0,.62.28.86C184.15,155.87,183.87,155.66,183.54,155.47ZM336.4,248.39l-.34-.18-.22.4c.24.16.42.09.56-.22Zm-135-70.46c0,.08-.09.18-.15.27.48.43.6-.61.15-.27Zm-6.39.22c-.37-.35-.78.41-.3.54.2-.38.34-.17.31-.55Zm5.46,5.23c-.17.51-.1.93.38.9C201.35,183.73,200.87,183.25,200.45,183.38Zm-7.76-2.64-.08.14c-.06-.62-.63.42-.07.14l.11.06.08-.14c.17,1.18.17,3.71-1.13,4.47.2.52.29,1.54,1.1,1.48l-.08.13.11.06.34.18.15-.27-.33-.18,0-.1-.09,0c.23-.41.05-.65.1-1,.28-.21.33.57.83.62,2.41-1.11,2.32-5-.27-5.41.06-.36-.37-.64-.63-.14Zm32.86,20.6c-.63-.51-1.1.52-.82.95s.87-.58.83-.93Zm-.55,1.27c-.13.23-.25.45-.37.69.34.31.53,0,.74-.31a.64.64,0,0,0-.14-.22.74.74,0,0,0-.22-.14Zm-44.06-5.08-.22-.12-.15.27.22.12Zm-38.05-10.26c.05-.17-.23-.27-.34-.18-.26.24.25.54.34.18Zm8.59,25c-.92,1.05.31,1.2,0,2.25.4.49.51-.45.87-.25.63.5,0,1.46.43,2.16.73,1.11,2.72,1.19,3.82,1a2.62,2.62,0,0,0,2.65,1.06c.17-1.46-1.26-1.39-2.41-2-1.86-.94-3.69-3.45-5.31-4.24Zm.55,6.25c.43,1.42,3,1.41,4.21,1.92.18-.74-.45-1.16-.09-2-1.35.24-2.8-.14-4.13.06Zm-31.11-17.9a.44.44,0,0,0,.82.1c-.08-.31-.66-.66-.84-.09Zm124.57,67.1c-.17-.14-.27,0-.41-.05,0,.12,0,.2,0,.34l.23.11ZM132.1,207.37c.19-.24-.4-.48-.41-.05l.22.12c.05-.12.11-.1.19-.07ZM97.31,192.73c.18.83,2,1.16,2.67,1.28C100,193.24,98.08,192.77,97.31,192.73Zm-1.69-.38c-.22-.38-1.37-1.2-1.73-.58a2.81,2.81,0,0,0,1.73.58Zm-2.7-1.46c-.38.34.7.93.78.43,0-.2-.55-.68-.78-.43Zm145.94,79.88c-.23.33-.09.53.23.65.22-.34.08-.54-.23-.65ZM89.13,190.07c-.17-.14-.26,0-.42,0-.18.24.42.47.42,0Zm-3.45-1.7c-.4.52.35.79.56.3-.3-.28-.17-.21-.56-.3Zm125.64,72.92a1.81,1.81,0,0,0,.31,2.1,1.33,1.33,0,0,0-.31-2.09Zm-.7,1.55-.33-.19c-.21.26-.13.41-.16.6.19.09.36-.08.49-.4ZM200.5,260c-.56-.61-1.23.28-1.23.91.61.56,1.14-.33,1.23-.9Zm106.08,59c-.05.09-.1.19-.15.27.49.44.61-.6.15-.26Zm-138-73.63-.23-.12-.14.27.22.12a1.17,1.17,0,0,0,.15-.27Zm29.74,17.5c-.55-.5-1.25.21-1.23.91.38.41.59,0,.93.16a2.91,2.91,0,0,0,.3-1.06Zm-13.61-5.07c-.53.7.22,1.19.68.9.38-.75-.1-1-.65-.9Zm-3.42,1c-.27-.2-.51-.21-.67.17a.79.79,0,0,0,.14.23,1.14,1.14,0,0,0,.23.15,5.33,5.33,0,0,0,.31-.57Zm-1.15,1.31-.23-.12c0,.12-.11.1-.18.07l-.15.27c.11,0,.07.12,0,.2l.22.12c.05-.13.12-.1.19-.07l.15-.28c-.1,0-.07-.12,0-.21Zm-3.81.57c-.2-.19-.35-.07-.53-.11-.2.25-.11.39-.16.6.43.13.63-.05.7-.51Zm2.22,1.55c-.34-.32-.54,0-.75.29.23.13-.05.45.3.52a.84.84,0,0,0,.35-.35.8.8,0,0,0,.11-.48ZM294.67,327c-.22-.38-.66.42-.22.4Zm22.57,12.7c-.07.38-.16.78.38.91C317.92,340.09,317.41,339.94,317.24,339.65Zm-33.75-15.46-.23-.13a2.34,2.34,0,0,1-.15.27l.23.13Zm-27-6.4a.63.63,0,0,0-.3-.07.67.67,0,0,0-.31.1.58.58,0,0,0-.21.23.56.56,0,0,0-.06.31.57.57,0,0,0,.31.1.56.56,0,0,0,.31-.09.47.47,0,0,0,.21-.25.5.5,0,0,0,0-.32ZM273,329.21c0-.06-.11-.37-.26-.32-.37.11.14.91.25.33ZM249.71,318.7c-.27-.19-.51-.21-.67.17C249.3,319.06,249.53,319.07,249.71,318.7Zm-6.89-1.8c-.28.74-.5,1.47.35,1.77.65-.92.48-1.8-.37-1.78ZM255.56,324c-.23-.16-.42-.09-.56.22C255.25,324.36,255.43,324.29,255.56,324Zm-17.42-7.68-.22-.12-.15.26.23.13c.06-.08.1-.17.16-.25Zm.48,3.41a.66.66,0,0,0,.32.36.69.69,0,0,0,.47.07c.61-.84-.42-1.26-.78-.41Zm-.07.14-.23-.12c0,.08-.1.18-.14.26l.22.13Zm-2.18-.83-.33-.18-.3.53c.29.22.47,0,.64-.34Zm-2.5,1.1-.22-.12-.15.27.23.12Zm-4.31-.93c-.27-.19-.51-.21-.67.16a.76.76,0,0,0,.15.23.87.87,0,0,0,.23.16Z"/><path class="cls-1" d="M132.53,88.22l.1-.17c.25-.54,0-.86,0-1.31h-.18l-.09-.17c-1,.32-.55-.75,0-.65,0,.65.08.36.08.36l.26,0c-.11-.66.2-1.49.08-2.15h-.19l-.09-.16c-.25.6-.56.93-1,.53.16-.28.31-.56.46-.85l.28.16,0-.21.15-.13c.13-.22.26-.45.37-.68-.2-.76-.78.71-1.38-.11h-.19l-.09-.16c-.89,2.43.43,4,.1,6.18h.19l.09.15a1.9,1.9,0,0,1,.7-.93c.25.08.16.29.33.4Z"/><path class="cls-1" d="M131.49,80.43l-.09.17c-.67.3-1.1.05-1.41-.76s0-1.94-.21-3a10.24,10.24,0,0,0-1-2.26c-1.14-2-1-3.4-.29-5.84.3-1,.29-1.84.82-2.18.76-.47,1.61.27,2,1.06a12.79,12.79,0,0,1,.67,7.15c-.28,1.8-.45,2.71-.63,3.82.47.48.36,1.18.26,1.88Zm-.78-3.26c-.28.42-.34.75.06.9.28-.41.34-.75-.05-.89Z"/><path class="cls-1" d="M152.11,107.14l-.08.16c0-1.65-.84-3.59-.76-5.65.09-1.73.58-7.38,3.31-7.4,1.51,0,2.16,2.85,2.08,4.19-.15,3-3.48,6.06-3.06,8.63l-.18-.06-.19.08-.69-.39c-.1.18-.2.34-.29.51Zm1.69-10.47a1.32,1.32,0,0,0,.25,1.89C155,98.06,154.56,96.51,153.8,96.67Zm-.59,7.11c-.4-.25-.83.34-.74.7C152.88,104.85,153.3,104.17,153.21,103.78Z"/><path class="cls-1" d="M153.5,107.44l-.17.13c0,.18,0,1,.24.57s.51-.82-.06-.9Z"/><path class="cls-1" d="M49.22,92.35l-.27.5c-.59-.24-.53-.75-.85-1.11.12-.65.51.12.65-.53a.21.21,0,0,1-.11,0,.19.19,0,0,1-.07-.08.17.17,0,0,1,0-.1.14.14,0,0,1,0-.11c-.42-.29.09.68-.42.43s.12-.39.23-.75c-.31-.45-.37-1-.9-1.36l-.12,0,0-.12-.28.51c-.5-.46-1.13-.87-.93-1.61l.42.22.09-.16.14.07c-.22-.79-1.44-1.19-1.42-2.08-.54-.12-.82.54-1.17-.2-.37-.36.06-.55.32-.92-.48-.16-.42-.54-.66-.8-.36-.53-.4.53-.71.29s-.24-1,.37-.68c-1.15-.91-.94-1.8-1.85-3l-.11,0,0-.12-.27.51c-.55-.49-1.18-1-1.09-1.69l.7.38.1-.16.14.07c-.81-1-.75-6-3.88-5.59-1.88.2-1,2.65.13,3.78s2.14,2.81,3.35,4.23c.33.39.78.6,1.08,1C42.91,84.94,43.93,87,45,88.73c.55.88,1.37,1.24,2.07,2.21.58.81,1,1.73,1.52,2.58A21.73,21.73,0,0,1,50.52,97a31.94,31.94,0,0,0,1.24,3.73c.49.85,1.39,1.3,2,2,1.47,1.52,2.15,3.37,3.64,5a26.72,26.72,0,0,1,2.47,3.51c.77,1.21,1,2.7,1.75,3.8s1.73,1.67,2.39,2.62,1.09,2,2,2.63c-.12-1-.37-2.16-1.24-2.42.44-1.66-1.72-2.45-2.79-3.92.2-.46.42-.87.79-.45-.67-1.32-2.61-2.35-2.38-4.35-.87.51-1.58-.33-1.5-1.25l-.11.06,0-.12c-.6-.17-.83-.84-.34-1.06l.1-.17.13.08a1,1,0,0,0-.23-.56c-.36-.54-.4.52-.72.28a4.11,4.11,0,0,1-1.51-2.57l-.12,0,0-.13c-.44-.22-.92-1.12-.39-1.3l0-.2.15-.14a2.67,2.67,0,0,0-.74-1.28H55l-.09-.16c-1.46.73-3.11-2.42-2.88-3.75l.27.16,0-.21.16-.12c.09-.22-.17-.3-.33-.41h-.19l-.09-.16-.19.34c-1.61-.51-1.61-2.8-2.32-4.1l-.11.06Z"/><path class="cls-1" d="M69.7,117.65l-.09.17c-2.36-1.8-3.6-5-5.29-7-.54-.66-1.77-1.37-1-2.5,1.77.08,2.24,1.68,3.19,2.83a15.8,15.8,0,0,1,3.33,6.61Zm-2.31-4.77c-.32,0-.19.3-.28.51.31,0,.18-.29.26-.51Z"/><path class="cls-1" d="M190.28,31.31l.09-.17c.56.43.87-1.77.13-1.24l-.15-.08-.09.17a1.56,1.56,0,0,1,.78-1.77c-1.1,0-.34-1.87-.35-3l.18.07.2-.07c.83-.08.54-1.86.86-2.6-.24-.16-.44,0-.56.36l-.09-.17h-.19c-.22-2.12.64-4.13,1-6.47s-.44-4.36.24-6.45c.19-.6.73-1.13.91-1.69.88-2.61-.91-5,1.2-7.88a1.07,1.07,0,0,0,.39-.07.87.87,0,0,0,.32-.22c2.5,1.13.43,4,0,5.93a15,15,0,0,0,.11,2.48,24.08,24.08,0,0,1-.79,5.47c-.25,1-.89,2-1.15,3.1a37.46,37.46,0,0,0-.2,4.05c-.11.89-.68,1.95-.81,2.84s0,1.79-.12,2.56c-.09.4-.52.81-.63,1.18-.54,1.7.44,3.58-.9,5-.82-.21-.44-.89-.52-1.37Zm2.09-12.87c-.27-.47-.83.54-.29.51C192.17,18.78,192.27,18.61,192.37,18.44Zm-.51,1.26c.06.24-.3.65.15.74.23-.36.17-.6-.15-.74Z"/><path class="cls-1" d="M146.49,47.84l-.09.17-.28-.16c-.33,1.07.18,1.79.16,2.72.13,0,.24,0,.32-.26l.15.07.09-.17c.65,2,.24,4.5,0,7-.16,1.77-.12,3.83-1.22,5.25-1.7-.11-1.55-2.13-1.66-3.31-.28-3.14.6-5.6.3-8.58-.14-1.48.07-2.94-.08-4.21-.18-1.74-.74-3.57-1.07-5.39a34,34,0,0,1-.59-5.59c0-1.07.46-2.19.25-3.15s-1-1.35-1.19-2.17a11.68,11.68,0,0,1,.7-6c4,0,1.87,4.76,2,7.41.08,1.27.93,2.47,1.25,3.74,1,4.06.65,8.67,1.14,12.64Zm-3.07-20.47c-.4-.37-.41.23-.41.42.16.09.28-.22.4-.41Zm.37,4.36-.28-.15-.18.34.27.15Zm.52,6.41c0,.45-.24,1,.24,1.23.35-.58.27-1-.25-1.22Zm1.13,7c-.43,0-.63,1,0,1.07.35-.49-.14-.64,0-1.07Zm.54,7.72c-1,.52-.66,2.72-.76,3.75.9-1,.41-2.55.75-3.74Z"/><path class="cls-1" d="M78.3,130a4,4,0,0,0,2.42,4.59C81.34,133,80.22,131,78.3,130Z"/></g></g></svg>