<svg width="246" height="246" viewBox="0 0 246 246" fill="none" xmlns="http://www.w3.org/2000/svg">
<g clip-path="url(#clip0_5_143548)">
<rect width="246" height="246" fill="white"/>
<rect width="246" height="61.5" fill="#E96262"/>
<rect y="61.5" width="246" height="61.5" fill="#E9AD62"/>
<rect y="123" width="246" height="61.5" fill="#60C9EB"/>
<rect y="184.5" width="246" height="61.5" fill="#FFE600"/>
<path d="M111.706 150.733L111.465 149.625C113.179 149.2 114.917 148.881 116.67 148.67C118.535 147.866 120.475 147.246 122.46 146.818L122.657 147.923C120.687 148.335 118.762 148.944 116.912 149.739C115.157 149.956 113.418 150.288 111.706 150.733Z" fill="white" fill-opacity="0.8" stroke="white" stroke-opacity="0.8" stroke-width="2.75943" stroke-miterlimit="10" stroke-linejoin="round"/>
<path d="M116.916 149.844C118.791 149.033 120.744 148.415 122.745 148C122.678 147.587 122.606 147.173 122.53 146.753C120.521 147.181 118.559 147.805 116.672 148.617C114.918 148.827 113.178 149.146 111.463 149.572L111.403 149.568L111.679 150.803C113.402 150.371 115.152 150.051 116.916 149.844ZM116.676 148.737C118.522 147.949 120.441 147.34 122.404 146.92L122.582 147.897C120.631 148.314 118.727 148.923 116.897 149.717C115.162 149.919 113.443 150.232 111.749 150.655L111.538 149.686C113.235 149.265 114.956 148.949 116.692 148.738L116.676 148.737Z" fill="white" fill-opacity="0.8" stroke="white" stroke-opacity="0.8" stroke-width="2.75943" stroke-miterlimit="10" stroke-linejoin="round"/>
<path d="M120.997 153.44C119.668 152.016 118.167 150.763 116.53 149.709L117.056 148.738C118.717 149.825 120.243 151.106 121.6 152.556C121.397 152.826 121.197 153.136 120.997 153.44Z" fill="white" fill-opacity="0.8" stroke="white" stroke-opacity="0.8" stroke-width="2.75943" stroke-miterlimit="10" stroke-linejoin="round"/>
<path d="M121.677 152.551C120.288 151.062 118.722 149.749 117.013 148.643L116.425 149.731C118.096 150.803 119.627 152.08 120.98 153.532C121.226 153.193 121.443 152.874 121.677 152.551ZM117.077 148.833C118.701 149.901 120.195 151.155 121.528 152.568C121.348 152.819 121.167 153.091 120.992 153.348C119.687 151.953 118.217 150.722 116.614 149.683L117.077 148.833Z" fill="white" fill-opacity="0.8" stroke="white" stroke-opacity="0.8" stroke-width="2.75943" stroke-miterlimit="10" stroke-linejoin="round"/>
<path d="M0.518398 143.793L0.277869 142.685C1.99119 142.26 3.7294 141.941 5.48209 141.73C7.34785 140.926 9.28707 140.306 11.2728 139.878L11.4698 140.983C9.49914 141.395 7.57459 142.004 5.72479 142.799C3.96953 143.016 2.2304 143.348 0.518398 143.793Z" fill="white" fill-opacity="0.8" stroke="white" stroke-opacity="0.8" stroke-width="2.75943" stroke-miterlimit="10" stroke-linejoin="round"/>
<path d="M5.72635 142.904C7.60149 142.093 9.55444 141.475 11.5549 141.06C11.4886 140.646 11.4168 140.232 11.3399 139.812C9.33118 140.24 7.36948 140.865 5.48286 141.676C3.72838 141.887 1.98849 142.206 0.273332 142.631L0.213597 142.628L0.489397 143.863C2.21268 143.431 3.96194 143.111 5.72635 142.904ZM5.48609 141.797C7.33283 141.008 9.25113 140.4 11.2146 139.979L11.3923 140.957C9.44145 141.373 7.53715 141.983 5.70728 142.777C3.97286 142.979 2.25305 143.292 0.558873 143.714L0.347879 142.745C2.04515 142.325 3.76651 142.008 5.50229 141.798L5.48609 141.797Z" fill="white" fill-opacity="0.8" stroke="white" stroke-opacity="0.8" stroke-width="2.75943" stroke-miterlimit="10" stroke-linejoin="round"/>
<path d="M9.80963 146.5C8.48061 145.076 6.97993 143.823 5.34213 142.769L5.86835 141.798C7.52984 142.885 9.0553 144.166 10.4121 145.616C10.2092 145.887 10.0092 146.196 9.80963 146.5Z" fill="white" fill-opacity="0.8" stroke="white" stroke-opacity="0.8" stroke-width="2.75943" stroke-miterlimit="10" stroke-linejoin="round"/>
<path d="M10.487 145.611C9.09871 144.122 7.53238 142.81 5.82335 141.704L5.23505 142.791C6.90648 143.863 8.437 145.14 9.79077 146.593C10.0363 146.253 10.2534 145.934 10.487 145.611ZM5.88772 141.893C7.51146 142.961 9.00506 144.215 10.3384 145.628C10.1586 145.879 9.97732 146.151 9.8026 146.408C8.49714 145.013 7.02686 143.782 5.42392 142.743L5.88772 141.893Z" fill="white" fill-opacity="0.8" stroke="white" stroke-opacity="0.8" stroke-width="2.75943" stroke-miterlimit="10" stroke-linejoin="round"/>
<path d="M81.9348 154.758L81.7901 153.639C83.8789 153.417 85.9868 153.449 88.068 153.733C89.2256 153.604 90.3898 153.539 91.5546 153.54C92.1442 153.529 92.7101 153.572 93.3036 153.598C93.8972 153.624 94.503 153.648 95.0894 153.743L95.0567 154.898C93.9029 154.748 92.6893 154.746 91.5565 154.699C90.9761 154.704 90.3864 154.734 89.8178 154.757L88.9648 154.802C88.6803 154.823 88.368 154.882 88.1077 154.901L86.5752 154.715L85.027 154.657L84.2551 154.636L83.4852 154.679C82.9545 154.691 82.4418 154.71 81.9348 154.758Z" fill="white" stroke="white" stroke-width="2.75943" stroke-miterlimit="10" stroke-linejoin="round"/>
<path d="M88.0873 154.947C88.375 154.911 88.678 154.858 88.9563 154.847L89.8092 154.803C90.3854 154.781 90.9844 154.745 91.5707 154.749C92.7247 154.79 93.944 154.801 95.113 154.954L95.1553 153.663C94.5731 153.584 93.9554 153.561 93.3605 153.524C92.7656 153.486 92.1841 153.459 91.587 153.468C90.4115 153.465 89.237 153.53 88.069 153.663C85.9838 153.377 83.8714 153.346 81.7787 153.57L81.7063 153.578L81.8686 154.835C82.3818 154.776 82.8927 154.764 83.4131 154.727L84.1922 154.678C84.4521 154.679 84.7087 154.695 84.9641 154.699L86.5321 154.758L88.0873 154.947ZM88.0622 153.803C89.2065 153.672 90.3576 153.607 91.5094 153.609C92.096 153.594 92.6575 153.64 93.2481 153.661C93.8387 153.682 94.4323 153.708 94.9994 153.783L94.9735 154.798L94.1103 154.706L93.2284 154.666L91.5034 154.605C90.9259 154.614 90.3453 154.639 89.7842 154.663L88.9433 154.706C88.6543 154.731 88.3741 154.769 88.091 154.802L86.5733 154.621L85.0372 154.561L84.2774 154.539L83.5122 154.579L81.9932 154.677L81.8706 153.693C83.9273 153.486 86.0014 153.526 88.0485 153.812L88.0622 153.803Z" fill="white" stroke="white" stroke-width="2.75943" stroke-miterlimit="10" stroke-linejoin="round"/>
<path d="M91.9364 159.724C90.7246 157.88 89.2897 156.192 87.6645 154.699C87.9361 154.427 88.2107 154.159 88.4928 153.893C88.9302 154.28 89.3439 154.693 89.7315 155.13C90.1092 155.534 90.5093 155.964 90.87 156.392C91.2307 156.821 91.5608 157.282 91.8911 157.724L92.374 158.372L92.8199 159.064L91.9364 159.724Z" fill="white" stroke="white" stroke-width="2.75943" stroke-miterlimit="10" stroke-linejoin="round"/>
<path d="M92.9271 159.094L92.4723 158.389C92.3217 158.156 92.1542 157.946 91.9823 157.72C91.6549 157.283 91.2976 156.819 90.9388 156.364C90.58 155.908 90.178 155.506 89.7796 155.069C89.3805 154.625 88.9572 154.203 88.5113 153.806C88.1909 154.103 87.881 154.407 87.5832 154.709C89.2362 156.224 90.6944 157.938 91.9247 159.812C92.2488 159.571 92.588 159.333 92.9271 159.094ZM88.5083 154.002C88.9335 154.383 89.3372 154.787 89.7171 155.213C90.0949 155.618 90.468 156.025 90.8228 156.445C91.1777 156.864 91.4959 157.307 91.8232 157.745C92.1506 158.165 92.4562 158.602 92.7388 159.054L91.9535 159.625C90.7642 157.824 89.3617 156.173 87.7766 154.708L88.5083 154.002Z" fill="white" stroke="white" stroke-width="2.75943" stroke-miterlimit="10" stroke-linejoin="round"/>
<path d="M144.049 160.785L143.631 159.732C145.541 158.996 147.51 158.425 149.516 158.023C151.56 157.05 153.667 156.216 155.824 155.527L156.225 156.596C154.064 157.283 151.953 158.118 149.907 159.096C147.909 159.488 145.949 160.053 144.049 160.785Z" fill="white" stroke="white" stroke-width="2.75943" stroke-miterlimit="10" stroke-linejoin="round"/>
<path d="M149.92 159.162C151.99 158.171 154.127 157.328 156.316 156.639L155.848 155.436C153.668 156.131 151.538 156.975 149.473 157.96C147.464 158.357 145.493 158.929 143.582 159.668L143.517 159.664L143.988 160.841C145.913 160.112 147.898 159.55 149.92 159.162ZM149.536 158.089C151.56 157.124 153.646 156.296 155.782 155.612L156.137 156.551C153.998 157.233 151.91 158.061 149.885 159.029C147.91 159.419 145.971 159.976 144.09 160.694L143.723 159.77C145.61 159.046 147.554 158.484 149.536 158.089Z" fill="white" stroke="white" stroke-width="2.75943" stroke-miterlimit="10" stroke-linejoin="round"/>
<path d="M155.24 162.271C153.404 161.052 151.474 159.983 149.467 159.073L149.975 158.046C152.01 158.98 153.966 160.077 155.825 161.325L155.24 162.271Z" fill="white" stroke="white" stroke-width="2.75943" stroke-miterlimit="10" stroke-linejoin="round"/>
<path d="M155.921 161.304C154.024 160.025 152.025 158.903 149.944 157.952L149.374 159.111C151.424 160.03 153.394 161.118 155.264 162.365L155.921 161.304ZM150.009 158.136C152 159.052 153.916 160.124 155.739 161.341L155.226 162.177C153.422 160.984 151.527 159.935 149.558 159.041L150.009 158.136Z" fill="white" stroke="white" stroke-width="2.75943" stroke-miterlimit="10" stroke-linejoin="round"/>
<path d="M26.2628 153.423L25.8442 152.37C27.754 151.635 29.723 151.063 31.7297 150.661C33.7733 149.688 35.8807 148.854 38.037 148.166L38.438 149.234C36.2768 149.921 34.1658 150.756 32.1199 151.734C30.1223 152.127 28.1625 152.692 26.2628 153.423Z" fill="white" stroke="white" stroke-width="2.75943" stroke-miterlimit="10" stroke-linejoin="round"/>
<path d="M32.1335 151.8C34.2032 150.809 36.3406 149.966 38.5296 149.278L38.0607 148.074C35.8811 148.77 33.7514 149.613 31.6864 150.598C29.6768 150.995 27.7058 151.567 25.7955 152.307L25.7302 152.302L26.2009 153.479C28.1265 152.75 30.1114 152.188 32.1335 151.8ZM31.749 150.727C33.773 149.762 35.8596 148.935 37.9948 148.25L38.3497 149.19C36.2116 149.871 34.1229 150.699 32.0984 151.667C30.1229 152.057 28.1842 152.614 26.303 153.333L25.9364 152.408C27.8229 151.685 29.7673 151.122 31.749 150.727Z" fill="white" stroke="white" stroke-width="2.75943" stroke-miterlimit="10" stroke-linejoin="round"/>
<path d="M37.4534 154.909C35.6174 153.69 33.6868 152.621 31.6799 151.711L32.1878 150.685C34.223 151.619 36.1792 152.715 38.038 153.963L37.4534 154.909Z" fill="white" stroke="white" stroke-width="2.75943" stroke-miterlimit="10" stroke-linejoin="round"/>
<path d="M38.1343 153.942C36.2373 152.663 34.2382 151.542 32.1575 150.59L31.5867 151.749C33.6373 152.668 35.6074 153.756 37.4768 155.003L38.1343 153.942ZM32.2222 150.774C34.2136 151.69 36.1294 152.762 37.9517 153.98L37.4395 154.815C35.6355 153.622 33.7401 152.573 31.7712 151.679L32.2222 150.774Z" fill="white" stroke="white" stroke-width="2.75943" stroke-miterlimit="10" stroke-linejoin="round"/>
<path d="M204.22 161.054L204.018 159.947C204.964 159.78 205.924 159.633 206.882 159.476C207.84 159.319 208.815 159.258 209.784 159.149C211.855 158.398 213.968 157.768 216.112 157.261L216.417 158.362C215.309 158.602 214.226 158.911 213.165 159.228C212.104 159.545 211.049 159.916 210.036 160.266C209.057 160.338 208.082 160.487 207.112 160.596C206.143 160.705 205.179 160.902 204.22 161.054Z" fill="white" stroke="white" stroke-width="2.75943" stroke-miterlimit="10" stroke-linejoin="round"/>
<path d="M210.047 160.331C211.104 159.976 212.156 159.578 213.219 159.282L214.849 158.813C215.381 158.666 215.954 158.546 216.515 158.412L216.178 157.177C214.011 157.688 211.875 158.323 209.78 159.078C208.806 159.188 207.836 159.297 206.878 159.405C205.92 159.514 204.96 159.704 204.014 159.871L203.943 159.879L204.177 161.125C205.14 160.961 206.114 160.797 207.096 160.653C208.077 160.509 209.053 160.41 210.047 160.331ZM209.795 159.214C211.849 158.474 213.942 157.85 216.065 157.344L216.333 158.311C214.195 158.812 212.089 159.441 210.027 160.196C209.054 160.273 208.094 160.414 207.136 160.522C206.177 160.63 205.223 160.826 204.275 160.976L204.099 159.998L206.926 159.542C207.879 159.435 208.836 159.311 209.795 159.214Z" fill="white" stroke="white" stroke-width="2.75943" stroke-miterlimit="10" stroke-linejoin="round"/>
<path d="M214.956 163.933C214.129 163.253 213.259 162.643 212.369 161.993C211.479 161.342 210.588 160.785 209.615 160.182L210.215 159.231C212.093 160.386 213.897 161.657 215.617 163.036L214.956 163.933Z" fill="white" stroke="white" stroke-width="2.75943" stroke-miterlimit="10" stroke-linejoin="round"/>
<path d="M215.711 163.026C214.853 162.317 213.962 161.666 213.044 161.013C212.126 160.36 211.17 159.761 210.196 159.141L209.521 160.21C210.49 160.825 211.429 161.426 212.334 162.059C213.239 162.691 214.124 163.343 214.97 164.037L215.711 163.026ZM210.238 159.323C212.076 160.457 213.843 161.702 215.528 163.053L214.948 163.842C214.132 163.172 213.281 162.577 212.408 161.935C211.535 161.293 210.629 160.748 209.707 160.156L210.238 159.323Z" fill="white" stroke="white" stroke-width="2.75943" stroke-miterlimit="10" stroke-linejoin="round"/>
<path d="M172.453 153.028L172.062 151.972C172.875 151.625 173.739 151.348 174.556 151.039C175.373 150.731 176.228 150.513 177.112 150.258C177.966 149.718 178.845 149.277 179.747 148.751C180.649 148.224 181.564 147.824 182.5 147.36L182.98 148.401C182.029 148.837 181.108 149.329 180.199 149.79C179.291 150.25 178.412 150.767 177.552 151.313C175.822 151.791 174.12 152.364 172.453 153.028Z" fill="white" fill-opacity="0.8" stroke="white" stroke-opacity="0.8" stroke-width="2.75943" stroke-miterlimit="10" stroke-linejoin="round"/>
<path d="M177.569 151.418C178.438 150.889 179.332 150.39 180.244 149.875C181.156 149.36 182.103 148.902 183.063 148.478L182.559 147.315C181.611 147.8 180.683 148.227 179.773 148.709C178.863 149.191 177.974 149.686 177.115 150.232C176.257 150.493 175.392 150.711 174.559 151.018C173.726 151.325 172.885 151.582 172.066 151.923L172.01 151.947L172.447 153.132C174.122 152.469 175.832 151.897 177.569 151.418ZM177.156 150.365C177.998 149.83 178.856 149.382 179.763 148.867C180.669 148.351 181.568 147.956 182.493 147.491L182.893 148.406C181.954 148.843 181.038 149.325 180.141 149.781C179.244 150.237 178.375 150.76 177.528 151.29C175.825 151.755 174.149 152.313 172.507 152.961L172.168 152.028C173.79 151.378 175.447 150.817 177.129 150.347L177.156 150.365Z" fill="white" fill-opacity="0.8" stroke="white" stroke-opacity="0.8" stroke-width="2.75943" stroke-miterlimit="10" stroke-linejoin="round"/>
<path d="M182.548 154.167C180.8 153.117 178.992 152.17 177.133 151.331L177.513 150.263C178.478 150.707 179.415 151.171 180.324 151.633C181.234 152.095 182.134 152.622 183.001 153.142C182.848 153.492 182.695 153.827 182.548 154.167Z" fill="white" fill-opacity="0.8" stroke="white" stroke-opacity="0.8" stroke-width="2.75943" stroke-miterlimit="10" stroke-linejoin="round"/>
<path d="M183.075 153.141C182.192 152.599 181.284 152.11 180.345 151.597C179.406 151.083 178.457 150.646 177.476 150.196L177.052 151.37C178.947 152.222 180.79 153.186 182.572 154.256C182.738 153.879 182.893 153.506 183.075 153.141ZM177.547 150.369C178.485 150.806 179.406 151.264 180.294 151.714C181.183 152.163 182.066 152.689 182.929 153.192L182.535 154.073C180.818 153.049 179.045 152.122 177.226 151.293L177.547 150.369Z" fill="white" fill-opacity="0.8" stroke="white" stroke-opacity="0.8" stroke-width="2.75943" stroke-miterlimit="10" stroke-linejoin="round"/>
<path d="M54.6647 145.667L54.2737 144.61C55.0875 144.264 55.9515 143.986 56.7683 143.678C57.5851 143.37 58.4399 143.152 59.3242 142.897C60.1777 142.357 61.0576 141.916 61.9594 141.389C62.8611 140.863 63.7766 140.463 64.7126 139.999L65.192 141.039C64.2414 141.475 63.32 141.968 62.4115 142.428C61.5031 142.889 60.6238 143.406 59.7645 143.952C58.0344 144.43 56.332 145.002 54.6647 145.667Z" fill="white" fill-opacity="0.8" stroke="white" stroke-opacity="0.8" stroke-width="2.75943" stroke-miterlimit="10" stroke-linejoin="round"/>
<path d="M59.7796 144.056C60.6488 143.528 61.5433 143.028 62.4552 142.513C63.3672 141.998 64.3137 141.54 65.2744 141.116L64.7701 139.953C63.8218 140.439 62.8937 140.865 61.9839 141.347C61.074 141.83 60.1853 142.324 59.326 142.87C58.4685 143.132 57.6028 143.349 56.7697 143.656C55.9366 143.963 55.0958 144.221 54.2769 144.561L54.2208 144.585L54.6581 145.771C56.3331 145.107 58.0428 144.535 59.7796 144.056ZM59.3665 143.004C60.2088 142.468 61.0673 142.02 61.9738 141.505C62.8803 140.99 63.7791 140.594 64.7042 140.129L65.1043 141.045C64.1646 141.481 63.2493 141.964 62.3521 142.419C61.4549 142.875 60.5861 143.398 59.7387 143.928C58.036 144.393 56.36 144.951 54.7182 145.6L54.3794 144.666C56.0015 144.017 57.6575 143.456 59.3404 142.985L59.3665 143.004Z" fill="white" fill-opacity="0.8" stroke="white" stroke-opacity="0.8" stroke-width="2.75943" stroke-miterlimit="10" stroke-linejoin="round"/>
<path d="M64.7601 146.805C63.012 145.755 61.204 144.808 59.3455 143.969L59.725 142.902C60.6903 143.345 61.6269 143.809 62.5364 144.271C63.4458 144.734 64.3457 145.261 65.2133 145.78C65.0599 146.131 64.9074 146.465 64.7601 146.805Z" fill="white" fill-opacity="0.8" stroke="white" stroke-opacity="0.8" stroke-width="2.75943" stroke-miterlimit="10" stroke-linejoin="round"/>
<path d="M65.2869 145.78C64.4044 145.237 63.4967 144.748 62.5577 144.235C61.6187 143.722 60.6695 143.284 59.6883 142.834L59.2638 144.008C61.1591 144.861 63.0025 145.824 64.7843 146.894C64.9504 146.517 65.1053 146.145 65.2869 145.78ZM59.759 143.008C60.6974 143.444 61.6182 143.902 62.5066 144.352C63.395 144.802 64.2785 145.328 65.1417 145.831L64.7469 146.712C63.0298 145.688 61.2574 144.76 59.4379 143.932L59.759 143.008Z" fill="white" fill-opacity="0.8" stroke="white" stroke-opacity="0.8" stroke-width="2.75943" stroke-miterlimit="10" stroke-linejoin="round"/>
<path d="M234.579 153.235L234.276 152.15C235.115 151.872 235.999 151.666 236.839 151.426C237.678 151.186 238.548 151.039 239.45 150.858C240.345 150.39 241.259 150.023 242.201 149.572C243.143 149.122 244.088 148.799 245.059 148.413L245.451 149.489C244.468 149.846 243.509 150.261 242.566 150.645C241.622 151.029 240.703 151.472 239.802 151.945C238.039 152.279 236.295 152.71 234.579 153.235Z" fill="white" fill-opacity="0.8" stroke="white" stroke-opacity="0.8" stroke-width="2.75943" stroke-miterlimit="10" stroke-linejoin="round"/>
<path d="M239.808 152.052C240.717 151.596 241.65 151.172 242.601 150.734C243.552 150.296 244.533 149.917 245.526 149.573L245.119 148.373C244.134 148.779 243.174 149.128 242.227 149.533C241.281 149.939 240.354 150.359 239.453 150.832C238.577 151.022 237.696 151.168 236.841 151.405C235.985 151.643 235.126 151.83 234.282 152.102L234.224 152.121L234.562 153.339C236.286 152.816 238.037 152.386 239.808 152.052ZM239.483 150.969C240.366 150.504 241.258 150.129 242.204 149.69C243.15 149.251 244.078 148.931 245.039 148.543L245.362 149.489C244.39 149.846 243.438 150.252 242.506 150.632C241.574 151.012 240.666 151.462 239.777 151.921C238.042 152.244 236.326 152.662 234.636 153.173L234.376 152.215C236.046 151.701 237.742 151.278 239.458 150.948L239.483 150.969Z" fill="white" fill-opacity="0.8" stroke="white" stroke-opacity="0.8" stroke-width="2.75943" stroke-miterlimit="10" stroke-linejoin="round"/>
<path d="M244.545 155.2C242.889 154.01 241.165 152.918 239.382 151.929L239.848 150.896C240.774 151.418 241.669 151.957 242.537 152.492C243.406 153.028 244.259 153.627 245.081 154.216C244.899 154.553 244.72 154.874 244.545 155.2Z" fill="white" fill-opacity="0.8" stroke="white" stroke-opacity="0.8" stroke-width="2.75943" stroke-miterlimit="10" stroke-linejoin="round"/>
<path d="M245.158 154.222C244.323 153.609 243.458 153.047 242.565 152.458C241.671 151.869 240.761 151.355 239.82 150.826L239.301 151.961C241.119 152.967 242.877 154.079 244.565 155.291C244.762 154.929 244.946 154.571 245.158 154.222ZM239.877 151.005C240.776 151.517 241.656 152.049 242.504 152.57C243.353 153.092 244.19 153.689 245.009 154.261L244.543 155.106C242.916 153.945 241.226 152.874 239.48 151.899L239.877 151.005Z" fill="white" fill-opacity="0.8" stroke="white" stroke-opacity="0.8" stroke-width="2.75943" stroke-miterlimit="10" stroke-linejoin="round"/>
<path d="M111.706 91.8351L111.465 90.7278C113.179 90.3024 114.917 89.9832 116.67 89.7722C118.535 88.9689 120.475 88.3488 122.46 87.9207L122.657 89.0252C120.687 89.438 118.762 90.0465 116.912 90.8415C115.157 91.059 113.418 91.3909 111.706 91.8351Z" fill="white" fill-opacity="0.8" stroke="white" stroke-opacity="0.8" stroke-width="2.75943" stroke-miterlimit="10" stroke-linejoin="round"/>
<path d="M116.916 90.9467C118.791 90.1356 120.744 89.5178 122.745 89.103C122.678 88.6893 122.606 88.2752 122.53 87.8554C120.521 88.2832 118.559 88.9074 116.672 89.7191C114.918 89.9299 113.178 90.2489 111.463 90.6742L111.403 90.6704L111.679 91.9056C113.402 91.4739 115.152 91.1537 116.916 90.9467ZM116.676 89.8394C118.522 89.051 120.441 88.4424 122.404 88.0221L122.582 88.9997C120.631 89.416 118.727 90.0258 116.897 90.8199C115.162 91.0214 113.443 91.3345 111.749 91.7571L111.538 90.7882C113.235 90.3679 114.956 90.0514 116.692 89.8405L116.676 89.8394Z" fill="white" fill-opacity="0.8" stroke="white" stroke-opacity="0.8" stroke-width="2.75943" stroke-miterlimit="10" stroke-linejoin="round"/>
<path d="M120.997 94.5421C119.668 93.1185 118.167 91.8653 116.53 90.8114L117.056 89.8405C118.717 90.9271 120.243 92.2087 121.6 93.658C121.397 93.9289 121.197 94.2382 120.997 94.5421Z" fill="white" fill-opacity="0.8" stroke="white" stroke-opacity="0.8" stroke-width="2.75943" stroke-miterlimit="10" stroke-linejoin="round"/>
<path d="M121.677 93.653C120.288 92.1642 118.722 90.8519 117.013 89.7459L116.425 90.833C118.096 91.905 119.627 93.1822 120.98 94.6349C121.226 94.2957 121.443 93.9766 121.677 93.653ZM117.077 89.9357C118.701 91.0035 120.195 92.257 121.528 93.6708C121.348 93.9214 121.167 94.1937 120.992 94.45C119.687 93.0552 118.217 91.8245 116.614 90.785L117.077 89.9357Z" fill="white" fill-opacity="0.8" stroke="white" stroke-opacity="0.8" stroke-width="2.75943" stroke-miterlimit="10" stroke-linejoin="round"/>
<path d="M0.518398 84.895L0.277869 83.7878C1.99119 83.3623 3.7294 83.0432 5.48209 82.8322C7.34785 82.0289 9.28707 81.4088 11.2728 80.9806L11.4698 82.0851C9.49914 82.498 7.57459 83.1064 5.72479 83.9014C3.96953 84.1189 2.2304 84.4509 0.518398 84.895Z" fill="white" fill-opacity="0.8" stroke="white" stroke-opacity="0.8" stroke-width="2.75943" stroke-miterlimit="10" stroke-linejoin="round"/>
<path d="M5.72635 84.0063C7.60149 83.1951 9.55444 82.5773 11.5549 82.1625C11.4886 81.7488 11.4168 81.3348 11.3399 80.9149C9.33118 81.3428 7.36948 81.967 5.48286 82.7786C3.72838 82.9895 1.98849 83.3085 0.273332 83.7338L0.213597 83.73L0.489397 84.9652C2.21268 84.5335 3.96194 84.2132 5.72635 84.0063ZM5.48609 82.899C7.33283 82.1106 9.25113 81.502 11.2146 81.0816L11.3923 82.0593C9.44145 82.4756 7.53715 83.0853 5.70728 83.8794C3.97286 84.081 2.25305 84.3941 0.558873 84.8167L0.347879 83.8478C2.04515 83.4275 3.76651 83.111 5.50229 82.9L5.48609 82.899Z" fill="white" fill-opacity="0.8" stroke="white" stroke-opacity="0.8" stroke-width="2.75943" stroke-miterlimit="10" stroke-linejoin="round"/>
<path d="M9.80963 87.6024C8.48061 86.1787 6.97993 84.9255 5.34213 83.8716L5.86835 82.9007C7.52984 83.9874 9.0553 85.269 10.4121 86.7182C10.2092 86.9891 10.0092 87.2985 9.80963 87.6024Z" fill="white" fill-opacity="0.8" stroke="white" stroke-opacity="0.8" stroke-width="2.75943" stroke-miterlimit="10" stroke-linejoin="round"/>
<path d="M10.487 86.7131C9.09871 85.2243 7.53238 83.912 5.82335 82.8061L5.23505 83.8931C6.90648 84.9651 8.437 86.2423 9.79077 87.695C10.0363 87.3558 10.2534 87.0367 10.487 86.7131ZM5.88772 82.9958C7.51146 84.0636 9.00506 85.3171 10.3384 86.731C10.1586 86.9815 9.97732 87.2538 9.8026 87.5101C8.49714 86.1153 7.02686 84.8846 5.42392 83.8452L5.88772 82.9958Z" fill="white" fill-opacity="0.8" stroke="white" stroke-opacity="0.8" stroke-width="2.75943" stroke-miterlimit="10" stroke-linejoin="round"/>
<path d="M81.9348 95.861L81.7901 94.7419C83.8789 94.5199 85.9868 94.5514 88.068 94.8356C89.2256 94.706 90.3898 94.6414 91.5546 94.6421C92.1442 94.6314 92.7101 94.6748 93.3036 94.7004C93.8972 94.726 94.503 94.7502 95.0894 94.8453L95.0567 96.001C93.9029 95.8505 92.6893 95.8488 91.5565 95.8014C90.9761 95.8062 90.3864 95.8365 89.8178 95.8596L88.9648 95.904C88.6803 95.9254 88.368 95.9843 88.1077 96.003L86.5752 95.8179L85.027 95.7597L84.2551 95.739L83.4852 95.7817C82.9545 95.7933 82.4418 95.8127 81.9348 95.861Z" fill="white" stroke="white" stroke-width="2.75943" stroke-miterlimit="10" stroke-linejoin="round"/>
<path d="M88.0873 96.0499C88.375 96.0134 88.678 95.9607 88.9563 95.9498L89.8092 95.9053C90.3854 95.8838 90.9844 95.8475 91.5707 95.8519C92.7247 95.8921 93.944 95.9031 95.113 96.0568L95.1553 94.7653C94.5731 94.6869 93.9554 94.6639 93.3605 94.6262C92.7656 94.5885 92.1841 94.5616 91.587 94.5707C90.4115 94.5679 89.237 94.6327 88.069 94.765C85.9838 94.479 83.8714 94.4481 81.7787 94.6728L81.7063 94.6806L81.8686 95.9375C82.3818 95.8787 82.8927 95.8669 83.4131 95.8295L84.1922 95.7809C84.4521 95.7818 84.7087 95.7978 84.9641 95.8016L86.5321 95.8601L88.0873 96.0499ZM88.0622 94.9056C89.2065 94.7745 90.3576 94.7096 91.5094 94.7114C92.096 94.6961 92.6575 94.7425 93.2481 94.7635C93.8387 94.7846 94.4323 94.8102 94.9994 94.8853L94.9735 95.9004L94.1103 95.8088L93.2284 95.7682L91.5034 95.7073C90.9259 95.7167 90.3453 95.7411 89.7842 95.7658L88.9433 95.8089C88.6543 95.8333 88.3741 95.8714 88.091 95.9049L86.5733 95.7232L85.0372 95.6637L84.2774 95.6416L83.5122 95.6813L81.9932 95.7793L81.8706 94.7951C83.9273 94.5885 86.0014 94.6286 88.0485 94.9144L88.0622 94.9056Z" fill="white" stroke="white" stroke-width="2.75943" stroke-miterlimit="10" stroke-linejoin="round"/>
<path d="M91.9364 100.827C90.7246 98.9823 89.2897 97.2947 87.6645 95.8019C87.9361 95.5295 88.2107 95.2616 88.4928 94.9953C88.9302 95.3824 89.3439 95.7954 89.7315 96.2322C90.1092 96.6369 90.5093 97.0661 90.87 97.4947C91.2307 97.9233 91.5608 98.3848 91.8911 98.8266L92.374 99.4746L92.8199 100.166L91.9364 100.827Z" fill="white" stroke="white" stroke-width="2.75943" stroke-miterlimit="10" stroke-linejoin="round"/>
<path d="M92.9271 100.197L92.4723 99.4917C92.3217 99.2582 92.1542 99.0486 91.9823 98.8223C91.6549 98.3851 91.2976 97.9218 90.9388 97.466C90.58 97.0102 90.178 96.6082 89.7796 96.1714C89.3805 95.7273 88.9572 95.3056 88.5113 94.9083C88.1909 95.2057 87.881 95.5093 87.5832 95.8116C89.2362 97.3263 90.6944 99.0405 91.9247 100.915C92.2488 100.673 92.588 100.435 92.9271 100.197ZM88.5083 95.1048C88.9335 95.4855 89.3372 95.8896 89.7171 96.3155C90.0949 96.7202 90.468 97.1279 90.8228 97.5473C91.1777 97.9668 91.4959 98.4099 91.8232 98.8471C92.1506 99.2675 92.4562 99.7045 92.7388 100.156L91.9535 100.728C90.7642 98.9263 89.3617 97.2752 87.7766 95.8101L88.5083 95.1048Z" fill="white" stroke="white" stroke-width="2.75943" stroke-miterlimit="10" stroke-linejoin="round"/>
<path d="M144.049 101.888L143.631 100.834C145.541 100.099 147.51 99.5271 149.516 99.1254C151.56 98.1521 153.667 97.3183 155.824 96.6298L156.225 97.6983C154.064 98.3851 151.953 99.2205 149.907 100.199C147.909 100.591 145.949 101.156 144.049 101.888Z" fill="white" stroke="white" stroke-width="2.75943" stroke-miterlimit="10" stroke-linejoin="round"/>
<path d="M149.92 100.264C151.99 99.2733 154.127 98.4303 156.316 97.7418L155.848 96.5381C153.668 97.2337 151.538 98.077 149.473 99.0621C147.464 99.4595 145.493 100.031 143.582 100.771L143.517 100.767L143.988 101.943C145.913 101.214 147.898 100.652 149.92 100.264ZM149.536 99.1916C151.56 98.2266 153.646 97.3989 155.782 96.714L156.137 97.6539C153.998 98.3353 151.91 99.163 149.885 100.131C147.91 100.521 145.971 101.079 144.09 101.797L143.723 100.873C145.61 100.149 147.554 99.5863 149.536 99.1916Z" fill="white" stroke="white" stroke-width="2.75943" stroke-miterlimit="10" stroke-linejoin="round"/>
<path d="M155.24 103.373C153.404 102.155 151.474 101.085 149.467 100.176L149.975 99.149C152.01 100.083 153.966 101.179 155.825 102.428L155.24 103.373Z" fill="white" stroke="white" stroke-width="2.75943" stroke-miterlimit="10" stroke-linejoin="round"/>
<path d="M155.921 102.406C154.024 101.127 152.025 100.006 149.944 99.0541L149.374 100.213C151.424 101.132 153.394 102.22 155.264 103.467L155.921 102.406ZM150.009 99.2384C152 100.154 153.916 101.226 155.739 102.444L155.226 103.279C153.422 102.086 151.527 101.038 149.558 100.143L150.009 99.2384Z" fill="white" stroke="white" stroke-width="2.75943" stroke-miterlimit="10" stroke-linejoin="round"/>
<path d="M26.2628 94.5259L25.8442 93.4727C27.754 92.7371 29.723 92.1654 31.7297 91.7637C33.7733 90.7904 35.8807 89.9566 38.037 89.2681L38.438 90.3366C36.2768 91.0234 34.1658 91.8588 32.1199 92.8368C30.1223 93.229 28.1625 93.7942 26.2628 94.5259Z" fill="white" stroke="white" stroke-width="2.75943" stroke-miterlimit="10" stroke-linejoin="round"/>
<path d="M32.1335 92.9027C34.2032 91.9116 36.3406 91.0686 38.5296 90.3801L38.0607 89.1764C35.8811 89.8721 33.7514 90.7153 31.6864 91.7004C29.6768 92.0978 27.7058 92.6695 25.7955 93.409L25.7302 93.4048L26.2009 94.5814C28.1265 93.8523 30.1114 93.2906 32.1335 92.9027ZM31.749 91.8299C33.773 90.8649 35.8596 90.0372 37.9948 89.3523L38.3497 90.2922C36.2116 90.9736 34.1229 91.8013 32.0984 92.7694C30.1229 93.1597 28.1842 93.7169 26.303 94.4351L25.9364 93.5109C27.8229 92.787 29.7673 92.2246 31.749 91.8299Z" fill="white" stroke="white" stroke-width="2.75943" stroke-miterlimit="10" stroke-linejoin="round"/>
<path d="M37.4534 96.0113C35.6174 94.7929 33.6868 93.7237 31.6799 92.8139L32.1878 91.7873C34.223 92.721 36.1792 93.8175 38.038 95.0659L37.4534 96.0113Z" fill="white" stroke="white" stroke-width="2.75943" stroke-miterlimit="10" stroke-linejoin="round"/>
<path d="M38.1343 95.0446C36.2373 93.7654 34.2382 92.6441 32.1575 91.6923L31.5867 92.8514C33.6373 93.7702 35.6074 94.8586 37.4768 96.1053L38.1343 95.0446ZM32.2222 91.8765C34.2136 92.7923 36.1294 93.8642 37.9517 95.082L37.4395 95.9173C35.6355 94.7245 33.7401 93.676 31.7712 92.7813L32.2222 91.8765Z" fill="white" stroke="white" stroke-width="2.75943" stroke-miterlimit="10" stroke-linejoin="round"/>
<path d="M204.22 102.156L204.018 101.05C204.964 100.882 205.924 100.736 206.882 100.578C207.84 100.421 208.815 100.36 209.784 100.251C211.855 99.5006 213.968 98.8705 216.112 98.364L216.417 99.4644C215.309 99.7045 214.226 100.013 213.165 100.33C212.104 100.647 211.049 101.019 210.036 101.369C209.057 101.441 208.082 101.589 207.112 101.698C206.143 101.808 205.179 102.004 204.22 102.156Z" fill="white" stroke="white" stroke-width="2.75943" stroke-miterlimit="10" stroke-linejoin="round"/>
<path d="M210.047 101.433C211.104 101.078 212.156 100.68 213.219 100.385L214.849 99.9157C215.381 99.768 215.954 99.6487 216.515 99.5142L216.178 98.28C214.011 98.7904 211.875 99.4252 209.78 100.181C208.806 100.291 207.836 100.4 206.878 100.508C205.92 100.616 204.96 100.806 204.014 100.973L203.943 100.981L204.177 102.227C205.14 102.064 206.114 101.899 207.096 101.755C208.077 101.612 209.053 101.513 210.047 101.433ZM209.795 100.316C211.849 99.5769 213.942 98.9526 216.065 98.4464L216.333 99.4139C214.195 99.9144 212.089 100.544 210.027 101.299C209.054 101.375 208.094 101.517 207.136 101.625C206.177 101.733 205.223 101.928 204.275 102.079L204.099 101.101L206.926 100.645C207.879 100.537 208.836 100.413 209.795 100.316Z" fill="white" stroke="white" stroke-width="2.75943" stroke-miterlimit="10" stroke-linejoin="round"/>
<path d="M214.956 105.035C214.129 104.355 213.259 103.746 212.369 103.095C211.479 102.444 210.588 101.887 209.615 101.284L210.215 100.333C212.093 101.489 213.897 102.76 215.617 104.138L214.956 105.035Z" fill="white" stroke="white" stroke-width="2.75943" stroke-miterlimit="10" stroke-linejoin="round"/>
<path d="M215.711 104.129C214.853 103.42 213.962 102.769 213.044 102.116C212.126 101.463 211.17 100.863 210.196 100.244L209.521 101.313C210.49 101.927 211.429 102.528 212.334 103.161C213.239 103.794 214.124 104.445 214.97 105.139L215.711 104.129ZM210.238 100.426C212.076 101.559 213.843 102.805 215.528 104.155L214.948 104.944C214.132 104.274 213.281 103.679 212.408 103.038C211.535 102.396 210.629 101.851 209.707 101.259L210.238 100.426Z" fill="white" stroke="white" stroke-width="2.75943" stroke-miterlimit="10" stroke-linejoin="round"/>
<path d="M172.453 94.131L172.062 93.0743C172.875 92.7278 173.739 92.45 174.556 92.142C175.373 91.8339 176.228 91.6156 177.112 91.361C177.966 90.8205 178.845 90.3798 179.747 89.8533C180.649 89.3268 181.564 88.927 182.5 88.4628L182.98 89.5032C182.029 89.9392 181.108 90.4318 180.199 90.8923C179.291 91.3528 178.412 91.8699 177.552 92.4155C175.822 92.8936 174.12 93.4662 172.453 94.131Z" fill="white" fill-opacity="0.8" stroke="white" stroke-opacity="0.8" stroke-width="2.75943" stroke-miterlimit="10" stroke-linejoin="round"/>
<path d="M177.569 92.5205C178.438 91.992 179.332 91.4923 180.244 90.9773C181.156 90.4624 182.103 90.0045 183.063 89.5801L182.559 88.4175C181.611 88.9028 180.683 89.3293 179.773 89.8116C178.863 90.2939 177.974 90.7885 177.115 91.334C176.257 91.5958 175.392 91.8136 174.559 92.1206C173.726 92.4276 172.885 92.6849 172.066 93.0256L172.01 93.0494L172.447 94.2349C174.122 93.5717 175.832 92.9993 177.569 92.5205ZM177.156 91.4678C177.998 90.932 178.856 90.4845 179.763 89.9693C180.669 89.454 181.568 89.0585 182.493 88.5935L182.893 89.509C181.954 89.9457 181.038 90.4278 180.141 90.8836C179.244 91.3394 178.375 91.8624 177.528 92.3924C175.825 92.8577 174.149 93.4156 172.507 94.0639L172.168 93.1305C173.79 92.481 175.447 91.9198 177.129 91.4496L177.156 91.4678Z" fill="white" fill-opacity="0.8" stroke="white" stroke-opacity="0.8" stroke-width="2.75943" stroke-miterlimit="10" stroke-linejoin="round"/>
<path d="M182.548 95.2692C180.8 94.2194 178.992 93.2724 177.133 92.4333L177.513 91.3657C178.478 91.8096 179.415 92.2733 180.324 92.7355C181.234 93.1977 182.134 93.7249 183.001 94.2445C182.848 94.595 182.695 94.9293 182.548 95.2692Z" fill="white" fill-opacity="0.8" stroke="white" stroke-opacity="0.8" stroke-width="2.75943" stroke-miterlimit="10" stroke-linejoin="round"/>
<path d="M183.075 94.244C182.192 93.7016 181.284 93.2124 180.345 92.6991C179.406 92.1859 178.457 91.7485 177.476 91.2981L177.052 92.4722C178.947 93.3249 180.79 94.2885 182.572 95.3584C182.738 94.9814 182.893 94.609 183.075 94.244ZM177.547 91.4719C178.485 91.9087 179.406 92.3662 180.294 92.8161C181.183 93.266 182.066 93.792 182.929 94.2949L182.535 95.1758C180.818 94.152 179.045 93.224 177.226 92.3959L177.547 91.4719Z" fill="white" fill-opacity="0.8" stroke="white" stroke-opacity="0.8" stroke-width="2.75943" stroke-miterlimit="10" stroke-linejoin="round"/>
<path d="M54.6647 86.7695L54.2737 85.7128C55.0875 85.3664 55.9515 85.0886 56.7683 84.7805C57.5851 84.4724 58.4399 84.2542 59.3242 83.9995C60.1777 83.4591 61.0576 83.0184 61.9594 82.4919C62.8611 81.9654 63.7766 81.5656 64.7126 81.1013L65.192 82.1418C64.2414 82.5778 63.32 83.0703 62.4115 83.5309C61.5031 83.9914 60.6238 84.5085 59.7645 85.054C58.0344 85.5321 56.332 86.1047 54.6647 86.7695Z" fill="white" fill-opacity="0.8" stroke="white" stroke-opacity="0.8" stroke-width="2.75943" stroke-miterlimit="10" stroke-linejoin="round"/>
<path d="M59.7796 85.1589C60.6488 84.6303 61.5433 84.1306 62.4552 83.6157C63.3672 83.1007 64.3137 82.6428 65.2744 82.2184L64.7701 81.0558C63.8218 81.5411 62.8937 81.9676 61.9839 82.4499C61.074 82.9322 60.1853 83.4268 59.326 83.9723C58.4685 84.2341 57.6028 84.4519 56.7697 84.7589C55.9366 85.0659 55.0958 85.3232 54.2769 85.6639L54.2208 85.6878L54.6581 86.8732C56.3331 86.21 58.0428 85.6376 59.7796 85.1589ZM59.3665 84.1061C60.2088 83.5704 61.0673 83.1228 61.9738 82.6076C62.8803 82.0923 63.7791 81.6968 64.7042 81.2318L65.1043 82.1473C64.1646 82.584 63.2493 83.0661 62.3521 83.5219C61.4549 83.9777 60.5861 84.5007 59.7387 85.0307C58.036 85.496 56.36 86.0539 54.7182 86.7022L54.3794 85.7688C56.0015 85.1193 57.6575 84.5581 59.3404 84.0879L59.3665 84.1061Z" fill="white" fill-opacity="0.8" stroke="white" stroke-opacity="0.8" stroke-width="2.75943" stroke-miterlimit="10" stroke-linejoin="round"/>
<path d="M64.7601 87.9076C63.012 86.8577 61.204 85.9108 59.3455 85.0717L59.725 84.004C60.6903 84.4479 61.6269 84.9117 62.5364 85.3739C63.4458 85.8361 64.3457 86.3633 65.2133 86.8828C65.0599 87.2333 64.9074 87.5676 64.7601 87.9076Z" fill="white" fill-opacity="0.8" stroke="white" stroke-opacity="0.8" stroke-width="2.75943" stroke-miterlimit="10" stroke-linejoin="round"/>
<path d="M65.2869 86.8823C64.4044 86.3399 63.4967 85.8507 62.5577 85.3375C61.6187 84.8242 60.6695 84.3868 59.6883 83.9364L59.2638 85.1105C61.1591 85.9632 63.0025 86.9268 64.7843 87.9967C64.9504 87.6197 65.1053 87.2473 65.2869 86.8823ZM59.759 84.1102C60.6974 84.547 61.6182 85.0045 62.5066 85.4544C63.395 85.9043 64.2785 86.4303 65.1417 86.9332L64.7469 87.8141C63.0298 86.7903 61.2574 85.8624 59.4379 85.0342L59.759 84.1102Z" fill="white" fill-opacity="0.8" stroke="white" stroke-opacity="0.8" stroke-width="2.75943" stroke-miterlimit="10" stroke-linejoin="round"/>
<path d="M234.579 94.3378L234.276 93.2525C235.115 92.9742 235.999 92.7684 236.839 92.5286C237.678 92.2888 238.548 92.1416 239.45 91.9606C240.345 91.4922 241.259 91.1254 242.201 90.6749C243.143 90.2244 244.088 89.9012 245.059 89.5156L245.451 90.592C244.468 90.9483 243.509 91.3633 242.566 91.7475C241.622 92.1318 240.703 92.5747 239.802 93.0477C238.039 93.3819 236.295 93.8124 234.579 94.3378Z" fill="white" fill-opacity="0.8" stroke="white" stroke-opacity="0.8" stroke-width="2.75943" stroke-miterlimit="10" stroke-linejoin="round"/>
<path d="M239.808 93.1542C240.717 92.699 241.65 92.2745 242.601 91.8364C243.552 91.3983 244.533 91.0198 245.526 90.6759L245.119 89.4758C244.134 89.8814 243.174 90.23 242.227 90.6358C241.281 91.0416 240.354 91.4614 239.453 91.9344C238.577 92.1248 237.696 92.2705 236.841 92.508C235.985 92.7454 235.126 92.9326 234.282 93.2047L234.224 93.2239L234.562 94.4413C236.286 93.9182 238.037 93.4884 239.808 93.1542ZM239.483 92.0711C240.366 91.6064 241.258 91.2311 242.204 90.7921C243.15 90.3532 244.078 90.033 245.039 89.6457L245.362 90.591C244.39 90.9489 243.438 91.3541 242.506 91.7345C241.574 92.1149 240.666 92.5647 239.777 93.0231C238.042 93.3467 236.326 93.7649 234.636 94.2758L234.376 93.3177C236.046 92.8039 237.742 92.3809 239.458 92.0508L239.483 92.0711Z" fill="white" fill-opacity="0.8" stroke="white" stroke-opacity="0.8" stroke-width="2.75943" stroke-miterlimit="10" stroke-linejoin="round"/>
<path d="M244.545 96.3029C242.889 95.1127 241.165 94.0202 239.382 93.031L239.848 91.9982C240.774 92.52 241.669 93.0593 242.537 93.5948C243.406 94.1302 244.259 94.7297 245.081 95.3188C244.899 95.6555 244.72 95.9762 244.545 96.3029Z" fill="white" fill-opacity="0.8" stroke="white" stroke-opacity="0.8" stroke-width="2.75943" stroke-miterlimit="10" stroke-linejoin="round"/>
<path d="M245.158 95.3246C244.323 94.7115 243.458 94.1492 242.565 93.5605C241.671 92.9717 240.761 92.4577 239.82 91.9281L239.301 93.0632C241.119 94.069 242.877 95.181 244.565 96.3939C244.762 96.0318 244.946 95.6735 245.158 95.3246ZM239.877 92.1071C240.776 92.6196 241.656 93.1513 242.504 93.6728C243.353 94.1943 244.19 94.7912 245.009 95.3635L244.543 96.2088C242.916 95.0472 241.226 93.9766 239.48 93.0015L239.877 92.1071Z" fill="white" fill-opacity="0.8" stroke="white" stroke-opacity="0.8" stroke-width="2.75943" stroke-miterlimit="10" stroke-linejoin="round"/>
<path d="M111.706 209.63L111.465 208.523C113.179 208.097 114.917 207.778 116.67 207.567C118.535 206.764 120.475 206.144 122.46 205.716L122.657 206.82C120.687 207.233 118.762 207.841 116.912 208.636C115.157 208.854 113.418 209.186 111.706 209.63Z" fill="white" fill-opacity="0.8" stroke="white" stroke-opacity="0.8" stroke-width="2.75943" stroke-miterlimit="10" stroke-linejoin="round"/>
<path d="M116.916 208.742C118.791 207.931 120.744 207.313 122.745 206.898C122.678 206.484 122.606 206.07 122.53 205.65C120.521 206.078 118.559 206.702 116.672 207.514C114.918 207.725 113.178 208.044 111.463 208.469L111.403 208.465L111.679 209.701C113.402 209.269 115.152 208.949 116.916 208.742ZM116.676 207.634C118.522 206.846 120.441 206.237 122.404 205.817L122.582 206.795C120.631 207.211 118.727 207.821 116.897 208.615C115.162 208.816 113.443 209.13 111.749 209.552L111.538 208.583C113.235 208.163 114.956 207.846 116.692 207.635L116.676 207.634Z" fill="white" fill-opacity="0.8" stroke="white" stroke-opacity="0.8" stroke-width="2.75943" stroke-miterlimit="10" stroke-linejoin="round"/>
<path d="M120.997 212.337C119.668 210.914 118.167 209.66 116.53 208.606L117.056 207.636C118.717 208.722 120.243 210.004 121.6 211.453C121.397 211.724 121.197 212.033 120.997 212.337Z" fill="white" fill-opacity="0.8" stroke="white" stroke-opacity="0.8" stroke-width="2.75943" stroke-miterlimit="10" stroke-linejoin="round"/>
<path d="M121.677 211.448C120.288 209.959 118.722 208.647 117.013 207.541L116.425 208.628C118.096 209.7 119.627 210.977 120.98 212.43C121.226 212.091 121.443 211.772 121.677 211.448ZM117.077 207.731C118.701 208.798 120.195 210.052 121.528 211.466C121.348 211.716 121.167 211.989 120.992 212.245C119.687 210.85 118.217 209.619 116.614 208.58L117.077 207.731Z" fill="white" fill-opacity="0.8" stroke="white" stroke-opacity="0.8" stroke-width="2.75943" stroke-miterlimit="10" stroke-linejoin="round"/>
<path d="M0.518398 202.69L0.277869 201.583C1.99119 201.157 3.7294 200.838 5.48209 200.627C7.34785 199.824 9.28707 199.204 11.2728 198.776L11.4698 199.88C9.49914 200.293 7.57459 200.901 5.72479 201.696C3.96953 201.914 2.2304 202.246 0.518398 202.69Z" fill="white" fill-opacity="0.8" stroke="white" stroke-opacity="0.8" stroke-width="2.75943" stroke-miterlimit="10" stroke-linejoin="round"/>
<path d="M5.72635 201.801C7.60149 200.99 9.55444 200.372 11.5549 199.958C11.4886 199.544 11.4168 199.13 11.3399 198.71C9.33118 199.138 7.36948 199.762 5.48286 200.574C3.72838 200.784 1.98849 201.103 0.273332 201.529L0.213597 201.525L0.489397 202.76C2.21268 202.328 3.96194 202.008 5.72635 201.801ZM5.48609 200.694C7.33283 199.906 9.25113 199.297 11.2146 198.877L11.3923 199.854C9.44145 200.271 7.53715 200.88 5.70728 201.674C3.97286 201.876 2.25305 202.189 0.558873 202.612L0.347879 201.643C2.04515 201.222 3.76651 200.906 5.50229 200.695L5.48609 200.694Z" fill="white" fill-opacity="0.8" stroke="white" stroke-opacity="0.8" stroke-width="2.75943" stroke-miterlimit="10" stroke-linejoin="round"/>
<path d="M9.80963 205.397C8.48061 203.974 6.97993 202.721 5.34213 201.667L5.86835 200.696C7.52984 201.782 9.0553 203.064 10.4121 204.513C10.2092 204.784 10.0092 205.094 9.80963 205.397Z" fill="white" fill-opacity="0.8" stroke="white" stroke-opacity="0.8" stroke-width="2.75943" stroke-miterlimit="10" stroke-linejoin="round"/>
<path d="M10.487 204.508C9.09871 203.019 7.53238 201.707 5.82335 200.601L5.23505 201.688C6.90648 202.76 8.437 204.037 9.79077 205.49C10.0363 205.151 10.2534 204.832 10.487 204.508ZM5.88772 200.791C7.51146 201.859 9.00506 203.112 10.3384 204.526C10.1586 204.777 9.97732 205.049 9.8026 205.305C8.49714 203.91 7.02686 202.68 5.42392 201.64L5.88772 200.791Z" fill="white" fill-opacity="0.8" stroke="white" stroke-opacity="0.8" stroke-width="2.75943" stroke-miterlimit="10" stroke-linejoin="round"/>
<path d="M81.9348 213.656L81.7901 212.537C83.8789 212.315 85.9868 212.346 88.068 212.631C89.2256 212.501 90.3898 212.436 91.5546 212.437C92.1442 212.426 92.7101 212.47 93.3036 212.495C93.8972 212.521 94.503 212.545 95.0894 212.64L95.0567 213.796C93.9029 213.646 92.6893 213.644 91.5565 213.596C90.9761 213.601 90.3864 213.632 89.8178 213.655L88.9648 213.699C88.6803 213.72 88.368 213.779 88.1077 213.798L86.5752 213.613L85.027 213.555L84.2551 213.534L83.4852 213.577C82.9545 213.588 82.4418 213.608 81.9348 213.656Z" fill="white" fill-opacity="0.8" stroke="white" stroke-opacity="0.8" stroke-width="2.75943" stroke-miterlimit="10" stroke-linejoin="round"/>
<path d="M88.0873 213.845C88.375 213.808 88.678 213.756 88.9563 213.745L89.8092 213.7C90.3854 213.679 90.9844 213.643 91.5707 213.647C92.7247 213.687 93.944 213.698 95.113 213.852L95.1553 212.56C94.5731 212.482 93.9554 212.459 93.3605 212.421C92.7656 212.384 92.1841 212.357 91.587 212.366C90.4115 212.363 89.237 212.428 88.069 212.56C85.9838 212.274 83.8714 212.243 81.7787 212.468L81.7063 212.476L81.8686 213.732C82.3818 213.674 82.8927 213.662 83.4131 213.625L84.1922 213.576C84.4521 213.577 84.7087 213.593 84.9641 213.597L86.5321 213.655L88.0873 213.845ZM88.0622 212.701C89.2065 212.57 90.3576 212.505 91.5094 212.506C92.096 212.491 92.6575 212.538 93.2481 212.559C93.8387 212.58 94.4323 212.605 94.9994 212.68L94.9735 213.695L94.1103 213.604L93.2284 213.563L91.5034 213.502C90.9259 213.512 90.3453 213.536 89.7842 213.561L88.9433 213.604C88.6543 213.628 88.3741 213.666 88.091 213.7L86.5733 213.518L85.0372 213.459L84.2774 213.437L83.5122 213.476L81.9932 213.574L81.8706 212.59C83.9273 212.384 86.0014 212.424 88.0485 212.709L88.0622 212.701Z" fill="white" fill-opacity="0.8" stroke="white" stroke-opacity="0.8" stroke-width="2.75943" stroke-miterlimit="10" stroke-linejoin="round"/>
<path d="M91.9364 218.622C90.7246 216.777 89.2897 215.09 87.6645 213.597C87.9361 213.325 88.2107 213.057 88.4928 212.79C88.9302 213.177 89.3439 213.59 89.7315 214.027C90.1092 214.432 90.5093 214.861 90.87 215.29C91.2307 215.718 91.5608 216.18 91.8911 216.622L92.374 217.27L92.8199 217.961L91.9364 218.622Z" fill="white" fill-opacity="0.8" stroke="white" stroke-opacity="0.8" stroke-width="2.75943" stroke-miterlimit="10" stroke-linejoin="round"/>
<path d="M92.9271 217.992L92.4723 217.287C92.3217 217.053 92.1542 216.844 91.9823 216.617C91.6549 216.18 91.2976 215.717 90.9388 215.261C90.58 214.805 90.178 214.403 89.7796 213.966C89.3805 213.522 88.9572 213.101 88.5113 212.703C88.1909 213.001 87.881 213.304 87.5832 213.607C89.2362 215.121 90.6944 216.836 91.9247 218.71C92.2488 218.468 92.588 218.23 92.9271 217.992ZM88.5083 212.9C88.9335 213.281 89.3372 213.685 89.7171 214.111C90.0949 214.515 90.468 214.923 90.8228 215.342C91.1777 215.762 91.4959 216.205 91.8232 216.642C92.1506 217.063 92.4562 217.5 92.7388 217.951L91.9535 218.523C90.7642 216.721 89.3617 215.07 87.7766 213.605L88.5083 212.9Z" fill="white" fill-opacity="0.8" stroke="white" stroke-opacity="0.8" stroke-width="2.75943" stroke-miterlimit="10" stroke-linejoin="round"/>
<path d="M144.049 219.683L143.631 218.629C145.541 217.894 147.51 217.322 149.516 216.92C151.56 215.947 153.667 215.113 155.824 214.425L156.225 215.493C154.064 216.18 151.953 217.016 149.907 217.994C147.909 218.386 145.949 218.951 144.049 219.683Z" fill="white" fill-opacity="0.8" stroke="white" stroke-opacity="0.8" stroke-width="2.75943" stroke-miterlimit="10" stroke-linejoin="round"/>
<path d="M149.92 218.059C151.99 217.068 154.127 216.225 156.316 215.537L155.848 214.333C153.668 215.029 151.538 215.872 149.473 216.857C147.464 217.255 145.493 217.826 143.582 218.566L143.517 218.562L143.988 219.738C145.913 219.009 147.898 218.447 149.92 218.059ZM149.536 216.987C151.56 216.022 153.646 215.194 155.782 214.509L156.137 215.449C153.998 216.13 151.91 216.958 149.885 217.926C147.91 218.316 145.971 218.874 144.09 219.592L143.723 218.668C145.61 217.944 147.554 217.381 149.536 216.987Z" fill="white" fill-opacity="0.8" stroke="white" stroke-opacity="0.8" stroke-width="2.75943" stroke-miterlimit="10" stroke-linejoin="round"/>
<path d="M155.24 221.168C153.404 219.95 151.474 218.88 149.467 217.971L149.975 216.944C152.01 217.878 153.966 218.974 155.825 220.223L155.24 221.168Z" fill="white" fill-opacity="0.8" stroke="white" stroke-opacity="0.8" stroke-width="2.75943" stroke-miterlimit="10" stroke-linejoin="round"/>
<path d="M155.921 220.201C154.024 218.922 152.025 217.801 149.944 216.849L149.374 218.008C151.424 218.927 153.394 220.015 155.264 221.262L155.921 220.201ZM150.009 217.033C152 217.949 153.916 219.021 155.739 220.239L155.226 221.074C153.422 219.881 151.527 218.833 149.558 217.938L150.009 217.033Z" fill="white" fill-opacity="0.8" stroke="white" stroke-opacity="0.8" stroke-width="2.75943" stroke-miterlimit="10" stroke-linejoin="round"/>
<path d="M26.2628 212.321L25.8442 211.268C27.754 210.532 29.723 209.96 31.7297 209.559C33.7733 208.585 35.8807 207.752 38.037 207.063L38.438 208.132C36.2768 208.818 34.1658 209.654 32.1199 210.632C30.1223 211.024 28.1625 211.589 26.2628 212.321Z" fill="white" fill-opacity="0.8" stroke="white" stroke-opacity="0.8" stroke-width="2.75943" stroke-miterlimit="10" stroke-linejoin="round"/>
<path d="M32.1335 210.698C34.2032 209.707 36.3406 208.864 38.5296 208.175L38.0607 206.971C35.8811 207.667 33.7514 208.51 31.6864 209.495C29.6768 209.893 27.7058 210.464 25.7955 211.204L25.7302 211.2L26.2009 212.376C28.1265 211.647 30.1114 211.086 32.1335 210.698ZM31.749 209.625C33.773 208.66 35.8596 207.832 37.9948 207.147L38.3497 208.087C36.2116 208.769 34.1229 209.596 32.0984 210.564C30.1229 210.955 28.1842 211.512 26.303 212.23L25.9364 211.306C27.8229 210.582 29.7673 210.02 31.749 209.625Z" fill="white" fill-opacity="0.8" stroke="white" stroke-opacity="0.8" stroke-width="2.75943" stroke-miterlimit="10" stroke-linejoin="round"/>
<path d="M37.4534 213.806C35.6174 212.588 33.6868 211.519 31.6799 210.609L32.1878 209.582C34.223 210.516 36.1792 211.612 38.038 212.861L37.4534 213.806Z" fill="white" fill-opacity="0.8" stroke="white" stroke-opacity="0.8" stroke-width="2.75943" stroke-miterlimit="10" stroke-linejoin="round"/>
<path d="M38.1343 212.84C36.2373 211.56 34.2382 210.439 32.1575 209.487L31.5867 210.646C33.6373 211.565 35.6074 212.654 37.4768 213.9L38.1343 212.84ZM32.2222 209.672C34.2136 210.587 36.1294 211.659 37.9517 212.877L37.4395 213.712C35.6355 212.52 33.7401 211.471 31.7712 210.576L32.2222 209.672Z" fill="white" fill-opacity="0.8" stroke="white" stroke-opacity="0.8" stroke-width="2.75943" stroke-miterlimit="10" stroke-linejoin="round"/>
<path d="M204.22 219.951L204.018 218.845C204.964 218.678 205.924 218.531 206.882 218.374C207.84 218.216 208.815 218.156 209.784 218.046C211.855 217.296 213.968 216.666 216.112 216.159L216.417 217.259C215.309 217.5 214.226 217.808 213.165 218.125C212.104 218.442 211.049 218.814 210.036 219.164C209.057 219.236 208.082 219.384 207.112 219.493C206.143 219.603 205.179 219.799 204.22 219.951Z" fill="white" fill-opacity="0.8" stroke="white" stroke-opacity="0.8" stroke-width="2.75943" stroke-miterlimit="10" stroke-linejoin="round"/>
<path d="M210.047 219.228C211.104 218.874 212.156 218.475 213.219 218.18L214.849 217.711C215.381 217.563 215.954 217.444 216.515 217.309L216.178 216.075C214.011 216.585 211.875 217.22 209.78 217.976C208.806 218.086 207.836 218.195 206.878 218.303C205.92 218.411 204.96 218.601 204.014 218.769L203.943 218.776L204.177 220.022C205.14 219.859 206.114 219.694 207.096 219.55C208.077 219.407 209.053 219.308 210.047 219.228ZM209.795 218.111C211.849 217.372 213.942 216.748 216.065 216.241L216.333 217.209C214.195 217.709 212.089 218.339 210.027 219.094C209.054 219.171 208.094 219.312 207.136 219.42C206.177 219.528 205.223 219.723 204.275 219.874L204.099 218.896L206.926 218.44C207.879 218.332 208.836 218.208 209.795 218.111Z" fill="white" fill-opacity="0.8" stroke="white" stroke-opacity="0.8" stroke-width="2.75943" stroke-miterlimit="10" stroke-linejoin="round"/>
<path d="M214.956 222.83C214.129 222.15 213.259 221.541 212.369 220.89C211.479 220.239 210.588 219.682 209.615 219.079L210.215 218.128C212.093 219.284 213.897 220.555 215.617 221.933L214.956 222.83Z" fill="white" fill-opacity="0.8" stroke="white" stroke-opacity="0.8" stroke-width="2.75943" stroke-miterlimit="10" stroke-linejoin="round"/>
<path d="M215.711 221.924C214.853 221.215 213.962 220.564 213.044 219.911C212.126 219.258 211.17 218.658 210.196 218.039L209.521 219.107C210.49 219.722 211.429 220.323 212.334 220.956C213.239 221.589 214.124 222.24 214.97 222.934L215.711 221.924ZM210.238 218.221C212.076 219.354 213.843 220.6 215.528 221.95L214.948 222.739C214.132 222.069 213.281 221.474 212.408 220.833C211.535 220.191 210.629 219.646 209.707 219.054L210.238 218.221Z" fill="white" fill-opacity="0.8" stroke="white" stroke-opacity="0.8" stroke-width="2.75943" stroke-miterlimit="10" stroke-linejoin="round"/>
<path d="M172.453 211.926L172.062 210.869C172.875 210.523 173.739 210.245 174.556 209.937C175.373 209.629 176.228 209.411 177.112 209.156C177.966 208.616 178.845 208.175 179.747 207.648C180.649 207.122 181.564 206.722 182.5 206.258L182.98 207.298C182.029 207.734 181.108 208.227 180.199 208.687C179.291 209.148 178.412 209.665 177.552 210.211C175.822 210.689 174.12 211.261 172.453 211.926Z" fill="white" fill-opacity="0.8" stroke="white" stroke-opacity="0.8" stroke-width="2.75943" stroke-miterlimit="10" stroke-linejoin="round"/>
<path d="M177.569 210.316C178.438 209.787 179.332 209.287 180.244 208.772C181.156 208.257 182.103 207.8 183.063 207.375L182.559 206.213C181.611 206.698 180.683 207.124 179.773 207.607C178.863 208.089 177.974 208.584 177.115 209.129C176.257 209.391 175.392 209.609 174.559 209.916C173.726 210.223 172.885 210.48 172.066 210.821L172.01 210.844L172.447 212.03C174.122 211.367 175.832 210.794 177.569 210.316ZM177.156 209.263C177.998 208.727 178.856 208.28 179.763 207.764C180.669 207.249 181.568 206.854 182.493 206.389L182.893 207.304C181.954 207.741 181.038 208.223 180.141 208.679C179.244 209.134 178.375 209.657 177.528 210.187C175.825 210.653 174.149 211.211 172.507 211.859L172.168 210.926C173.79 210.276 175.447 209.715 177.129 209.245L177.156 209.263Z" fill="white" fill-opacity="0.8" stroke="white" stroke-opacity="0.8" stroke-width="2.75943" stroke-miterlimit="10" stroke-linejoin="round"/>
<path d="M182.548 213.064C180.8 212.014 178.992 211.067 177.133 210.228L177.513 209.161C178.478 209.605 179.415 210.068 180.324 210.531C181.234 210.993 182.134 211.52 183.001 212.039C182.848 212.39 182.695 212.724 182.548 213.064Z" fill="white" fill-opacity="0.8" stroke="white" stroke-opacity="0.8" stroke-width="2.75943" stroke-miterlimit="10" stroke-linejoin="round"/>
<path d="M183.075 212.039C182.192 211.497 181.284 211.007 180.345 210.494C179.406 209.981 178.457 209.544 177.476 209.093L177.052 210.267C178.947 211.12 180.79 212.084 182.572 213.153C182.738 212.776 182.893 212.404 183.075 212.039ZM177.547 209.267C178.485 209.704 179.406 210.161 180.294 210.611C181.183 211.061 182.066 211.587 182.929 212.09L182.535 212.971C180.818 211.947 179.045 211.019 177.226 210.191L177.547 209.267Z" fill="white" fill-opacity="0.8" stroke="white" stroke-opacity="0.8" stroke-width="2.75943" stroke-miterlimit="10" stroke-linejoin="round"/>
<path d="M54.6647 204.565L54.2737 203.508C55.0875 203.161 55.9515 202.884 56.7683 202.576C57.5851 202.267 58.4399 202.049 59.3242 201.795C60.1777 201.254 61.0576 200.813 61.9594 200.287C62.8611 199.76 63.7766 199.361 64.7126 198.896L65.192 199.937C64.2414 200.373 63.32 200.865 62.4115 201.326C61.5031 201.786 60.6238 202.303 59.7645 202.849C58.0344 203.327 56.332 203.9 54.6647 204.565Z" fill="white" fill-opacity="0.8" stroke="white" stroke-opacity="0.8" stroke-width="2.75943" stroke-miterlimit="10" stroke-linejoin="round"/>
<path d="M59.7796 202.954C60.6488 202.425 61.5433 201.926 62.4552 201.411C63.3672 200.896 64.3137 200.438 65.2744 200.013L64.7701 198.851C63.8218 199.336 62.8937 199.763 61.9839 200.245C61.074 200.727 60.1853 201.222 59.326 201.767C58.4685 202.029 57.6028 202.247 56.7697 202.554C55.9366 202.861 55.0958 203.118 54.2769 203.459L54.2208 203.483L54.6581 204.668C56.3331 204.005 58.0428 203.433 59.7796 202.954ZM59.3665 201.901C60.2088 201.365 61.0673 200.918 61.9738 200.403C62.8803 199.887 63.7791 199.492 64.7042 199.027L65.1043 199.942C64.1646 200.379 63.2493 200.861 62.3521 201.317C61.4549 201.773 60.5861 202.296 59.7387 202.826C58.036 203.291 56.36 203.849 54.7182 204.497L54.3794 203.564C56.0015 202.914 57.6575 202.353 59.3404 201.883L59.3665 201.901Z" fill="white" fill-opacity="0.8" stroke="white" stroke-opacity="0.8" stroke-width="2.75943" stroke-miterlimit="10" stroke-linejoin="round"/>
<path d="M64.7601 205.703C63.012 204.653 61.204 203.706 59.3455 202.867L59.725 201.799C60.6903 202.243 61.6269 202.707 62.5364 203.169C63.4458 203.631 64.3457 204.158 65.2133 204.678C65.0599 205.028 64.9074 205.363 64.7601 205.703Z" fill="white" fill-opacity="0.8" stroke="white" stroke-opacity="0.8" stroke-width="2.75943" stroke-miterlimit="10" stroke-linejoin="round"/>
<path d="M65.2869 204.677C64.4044 204.135 63.4967 203.646 62.5577 203.132C61.6187 202.619 60.6695 202.182 59.6883 201.731L59.2638 202.906C61.1591 203.758 63.0025 204.722 64.7843 205.792C64.9504 205.415 65.1053 205.042 65.2869 204.677ZM59.759 201.905C60.6974 202.342 61.6182 202.8 62.5066 203.249C63.395 203.699 64.2785 204.225 65.1417 204.728L64.7469 205.609C63.0298 204.585 61.2574 203.657 59.4379 202.829L59.759 201.905Z" fill="white" fill-opacity="0.8" stroke="white" stroke-opacity="0.8" stroke-width="2.75943" stroke-miterlimit="10" stroke-linejoin="round"/>
<path d="M234.579 212.133L234.276 211.048C235.115 210.769 235.999 210.563 236.839 210.324C237.678 210.084 238.548 209.937 239.45 209.756C240.345 209.287 241.259 208.92 242.201 208.47C243.143 208.019 244.088 207.696 245.059 207.311L245.451 208.387C244.468 208.743 243.509 209.158 242.566 209.543C241.622 209.927 240.703 210.37 239.802 210.843C238.039 211.177 236.295 211.607 234.579 212.133Z" fill="white" fill-opacity="0.8" stroke="white" stroke-opacity="0.8" stroke-width="2.75943" stroke-miterlimit="10" stroke-linejoin="round"/>
<path d="M239.808 210.949C240.717 210.494 241.65 210.07 242.601 209.631C243.552 209.193 244.533 208.815 245.526 208.471L245.119 207.271C244.134 207.676 243.174 208.025 242.227 208.431C241.281 208.837 240.354 209.256 239.453 209.729C238.577 209.92 237.696 210.066 236.841 210.303C235.985 210.54 235.126 210.728 234.282 211L234.224 211.019L234.562 212.236C236.286 211.713 238.037 211.283 239.808 210.949ZM239.483 209.866C240.366 209.401 241.258 209.026 242.204 208.587C243.15 208.148 244.078 207.828 245.039 207.441L245.362 208.386C244.39 208.744 243.438 209.149 242.506 209.53C241.574 209.91 240.666 210.36 239.777 210.818C238.042 211.142 236.326 211.56 234.636 212.071L234.376 211.113C236.046 210.599 237.742 210.176 239.458 209.846L239.483 209.866Z" fill="white" fill-opacity="0.8" stroke="white" stroke-opacity="0.8" stroke-width="2.75943" stroke-miterlimit="10" stroke-linejoin="round"/>
<path d="M244.545 214.098C242.889 212.908 241.165 211.815 239.382 210.826L239.848 209.793C240.774 210.315 241.669 210.854 242.537 211.39C243.406 211.925 244.259 212.525 245.081 213.114C244.899 213.451 244.72 213.771 244.545 214.098Z" fill="white" fill-opacity="0.8" stroke="white" stroke-opacity="0.8" stroke-width="2.75943" stroke-miterlimit="10" stroke-linejoin="round"/>
<path d="M245.158 213.12C244.323 212.507 243.458 211.944 242.565 211.356C241.671 210.767 240.761 210.253 239.82 209.723L239.301 210.858C241.119 211.864 242.877 212.976 244.565 214.189C244.762 213.827 244.946 213.469 245.158 213.12ZM239.877 209.902C240.776 210.415 241.656 210.946 242.504 211.468C243.353 211.989 244.19 212.586 245.009 213.158L244.543 214.004C242.916 212.842 241.226 211.772 239.48 210.797L239.877 209.902Z" fill="white" fill-opacity="0.8" stroke="white" stroke-opacity="0.8" stroke-width="2.75943" stroke-miterlimit="10" stroke-linejoin="round"/>
<path d="M110.886 32.9376L110.645 31.8303C112.359 31.4049 114.097 31.0857 115.85 30.8747C117.715 30.0714 119.655 29.4513 121.64 29.0232L121.837 30.1277C119.867 30.5405 117.942 31.1489 116.092 31.944C114.337 32.1615 112.598 32.4934 110.886 32.9376Z" fill="white" fill-opacity="0.8" stroke="white" stroke-opacity="0.8" stroke-width="2.75943" stroke-miterlimit="10" stroke-linejoin="round"/>
<path d="M116.096 32.0492C117.971 31.2381 119.924 30.6203 121.925 30.2054C121.858 29.7917 121.786 29.3777 121.709 28.9578C119.701 29.3857 117.739 30.0099 115.852 30.8215C114.098 31.0324 112.358 31.3514 110.643 31.7767L110.583 31.7729L110.859 33.0081C112.582 32.5764 114.332 32.2561 116.096 32.0492ZM115.856 30.9419C117.702 30.1535 119.621 29.5449 121.584 29.1246L121.762 30.1022C119.811 30.5185 117.907 31.1283 116.077 31.9223C114.342 32.1239 112.623 32.437 110.928 32.8596L110.717 31.8907C112.415 31.4704 114.136 31.1539 115.872 30.9429L115.856 30.9419Z" fill="white" fill-opacity="0.8" stroke="white" stroke-opacity="0.8" stroke-width="2.75943" stroke-miterlimit="10" stroke-linejoin="round"/>
<path d="M120.177 35.6446C118.848 34.2209 117.347 32.9677 115.71 31.9138L116.236 30.943C117.897 32.0296 119.423 33.3112 120.78 34.7605C120.577 35.0314 120.377 35.3407 120.177 35.6446Z" fill="white" fill-opacity="0.8" stroke="white" stroke-opacity="0.8" stroke-width="2.75943" stroke-miterlimit="10" stroke-linejoin="round"/>
<path d="M120.857 34.7555C119.468 33.2666 117.902 31.9544 116.193 30.8484L115.605 31.9355C117.276 33.0075 118.807 34.2847 120.16 35.7373C120.406 35.3982 120.623 35.079 120.857 34.7555ZM116.257 31.0381C117.881 32.1059 119.375 33.3595 120.708 34.7733C120.528 35.0239 120.347 35.2962 120.172 35.5525C118.867 34.1576 117.397 32.9269 115.794 31.8875L116.257 31.0381Z" fill="white" fill-opacity="0.8" stroke="white" stroke-opacity="0.8" stroke-width="2.75943" stroke-miterlimit="10" stroke-linejoin="round"/>
<path d="M-0.30161 25.9975L-0.542138 24.8902C1.17118 24.4648 2.90939 24.1456 4.66208 23.9347C6.52785 23.1313 8.46706 22.5112 10.4528 22.0831L10.6498 23.1876C8.67914 23.6004 6.75458 24.2089 4.90478 25.0039C3.14953 25.2214 1.41039 25.5534 -0.30161 25.9975Z" fill="white" fill-opacity="0.8" stroke="white" stroke-opacity="0.8" stroke-width="2.75943" stroke-miterlimit="10" stroke-linejoin="round"/>
<path d="M4.90635 25.1087C6.78148 24.2976 8.73444 23.6798 10.7349 23.265C10.6686 22.8513 10.5968 22.4372 10.5199 22.0174C8.51117 22.4452 6.54947 23.0695 4.66285 23.8811C2.90837 24.092 1.16848 24.411 -0.546675 24.8363L-0.606411 24.8325L-0.330611 26.0676C1.39267 25.636 3.14193 25.3157 4.90635 25.1087ZM4.66608 24.0015C6.51283 23.2131 8.43112 22.6045 10.3946 22.1841L10.5723 23.1618C8.62145 23.5781 6.71714 24.1878 4.88727 24.9819C3.15285 25.1835 1.43304 25.4966 -0.261135 25.9192L-0.472128 24.9503C1.22515 24.5299 2.9465 24.2135 4.68228 24.0025L4.66608 24.0015Z" fill="white" fill-opacity="0.8" stroke="white" stroke-opacity="0.8" stroke-width="2.75943" stroke-miterlimit="10" stroke-linejoin="round"/>
<path d="M8.98963 28.7049C7.6606 27.2812 6.15992 26.028 4.52212 24.9741L5.04834 24.0032C6.70984 25.0898 8.23529 26.3714 9.59214 27.8207C9.38919 28.0916 9.18923 28.401 8.98963 28.7049Z" fill="white" fill-opacity="0.8" stroke="white" stroke-opacity="0.8" stroke-width="2.75943" stroke-miterlimit="10" stroke-linejoin="round"/>
<path d="M9.66697 27.8156C8.2787 26.3268 6.71237 25.0145 5.00334 23.9085L4.41504 24.9956C6.08647 26.0676 7.61699 27.3448 8.97077 28.7975C9.2163 28.4583 9.43335 28.1392 9.66697 27.8156ZM5.06771 24.0983C6.69146 25.1661 8.18505 26.4196 9.51841 27.8334C9.33859 28.084 9.15732 28.3563 8.98259 28.6126C7.67713 27.2178 6.20686 25.9871 4.60391 24.9476L5.06771 24.0983Z" fill="white" fill-opacity="0.8" stroke="white" stroke-opacity="0.8" stroke-width="2.75943" stroke-miterlimit="10" stroke-linejoin="round"/>
<path d="M81.1149 36.9635L80.9702 35.8444C83.059 35.6225 85.1669 35.654 87.2481 35.9382C88.4057 35.8086 89.5698 35.7439 90.7347 35.7446C91.3242 35.7339 91.8901 35.7773 92.4837 35.803C93.0772 35.8286 93.683 35.8528 94.2695 35.9478L94.2368 37.1035C93.0829 36.953 91.8693 36.9513 90.7366 36.9039C90.1562 36.9087 89.5664 36.939 88.9978 36.9621L88.1448 37.0066C87.8604 37.0279 87.548 37.0868 87.2878 37.1055L85.7553 36.9205L84.207 36.8623L83.4351 36.8415L82.6652 36.8842C82.1346 36.8958 81.6219 36.9153 81.1149 36.9635Z" fill="white" stroke="white" stroke-width="2.75943" stroke-miterlimit="10" stroke-linejoin="round"/>
<path d="M87.2672 37.1524C87.5549 37.1159 87.858 37.0631 88.1362 37.0522L88.9892 37.0077C89.5653 36.9863 90.1643 36.95 90.7506 36.9544C91.9047 36.9945 93.124 37.0055 94.2929 37.1593L94.3352 35.8678C93.753 35.7894 93.1353 35.7664 92.5404 35.7287C91.9456 35.6909 91.3641 35.664 90.767 35.6731C89.5915 35.6704 88.4169 35.7352 87.2489 35.8675C85.1638 35.5815 83.0513 35.5506 80.9587 35.7752L80.8862 35.7831L81.0485 37.0399C81.5617 36.9812 82.0726 36.9694 82.593 36.9319L83.3721 36.8833C83.632 36.8843 83.8887 36.9002 84.144 36.9041L85.712 36.9625L87.2672 37.1524ZM87.2421 36.0081C88.3865 35.877 89.5375 35.812 90.6893 35.8139C91.276 35.7986 91.8374 35.845 92.428 35.866C93.0186 35.8871 93.6122 35.9127 94.1793 35.9878L94.1534 37.0029L93.2902 36.9113L92.4083 36.8707L90.6833 36.8098C90.1059 36.8191 89.5252 36.8436 88.9641 36.8683L88.1233 36.9114C87.8342 36.9357 87.554 36.9739 87.2709 37.0074L85.7532 36.8257L84.2171 36.7662L83.4573 36.7441L82.6921 36.7837L81.1731 36.8817L81.0505 35.8975C83.1072 35.691 85.1813 35.731 87.2285 36.0169L87.2421 36.0081Z" fill="white" stroke="white" stroke-width="2.75943" stroke-miterlimit="10" stroke-linejoin="round"/>
<path d="M91.1164 41.9291C89.9047 40.0848 88.4698 38.3972 86.8445 36.9044C87.1161 36.632 87.3907 36.3641 87.6728 36.0978C88.1102 36.4848 88.5239 36.8978 88.9116 37.3347C89.2893 37.7394 89.6893 38.1686 90.0501 38.5972C90.4108 39.0258 90.7408 39.4873 91.0712 39.929L91.554 40.5771L92 41.2685L91.1164 41.9291Z" fill="white" stroke="white" stroke-width="2.75943" stroke-miterlimit="10" stroke-linejoin="round"/>
<path d="M92.1072 41.2994L91.6524 40.5943C91.5018 40.3608 91.3342 40.1511 91.1624 39.9248C90.835 39.4876 90.4777 39.0244 90.1189 38.5686C89.76 38.1128 89.3581 37.7107 88.9597 37.274C88.5605 36.8298 88.1372 36.4081 87.6914 36.0109C87.371 36.3083 87.0611 36.6119 86.7633 36.9142C88.4162 38.4288 89.8744 40.143 91.1048 42.0172C91.4288 41.7758 91.7681 41.5376 92.1072 41.2994ZM87.6883 36.2074C88.1136 36.588 88.5172 36.9922 88.8972 37.418C89.2749 37.8227 89.648 38.2304 90.0029 38.6499C90.3577 39.0693 90.6759 39.5124 91.0033 39.9496C91.3307 40.37 91.6363 40.807 91.9189 41.2588L91.1335 41.8301C89.9443 40.0288 88.5418 38.3778 86.9567 36.9126L87.6883 36.2074Z" fill="white" stroke="white" stroke-width="2.75943" stroke-miterlimit="10" stroke-linejoin="round"/>
<path d="M143.23 42.99L142.811 41.9369C144.721 41.2012 146.69 40.6295 148.696 40.2279C150.74 39.2546 152.847 38.4208 155.004 37.7323L155.405 38.8008C153.244 39.4876 151.133 40.323 149.087 41.301C147.089 41.6932 145.129 42.2583 143.23 42.99Z" fill="white" stroke="white" stroke-width="2.75943" stroke-miterlimit="10" stroke-linejoin="round"/>
<path d="M149.1 41.3669C151.17 40.3758 153.307 39.5328 155.496 38.8444L155.027 37.6406C152.848 38.3363 150.718 39.1796 148.653 40.1646C146.644 40.562 144.673 41.1337 142.762 41.8733L142.697 41.8691L143.168 43.0457C145.093 42.3165 147.078 41.7549 149.1 41.3669ZM148.716 40.2942C150.74 39.3292 152.826 38.5014 154.962 37.8165L155.316 38.7564C153.178 39.4379 151.09 40.2656 149.065 41.2337C147.09 41.6239 145.151 42.1811 143.27 42.8993L142.903 41.9751C144.79 41.2512 146.734 40.6889 148.716 40.2942Z" fill="white" stroke="white" stroke-width="2.75943" stroke-miterlimit="10" stroke-linejoin="round"/>
<path d="M154.42 44.4755C152.584 43.2571 150.654 42.1879 148.647 41.2781L149.155 40.2514C151.19 41.1852 153.146 42.2816 155.005 43.5301L154.42 44.4755Z" fill="white" stroke="white" stroke-width="2.75943" stroke-miterlimit="10" stroke-linejoin="round"/>
<path d="M155.101 43.509C153.204 42.2297 151.205 41.1085 149.124 40.1566L148.554 41.3158C150.604 42.2346 152.574 43.323 154.444 44.5697L155.101 43.509ZM149.189 40.3409C151.18 41.2567 153.096 42.3286 154.919 43.5464L154.406 44.3817C152.602 43.1889 150.707 42.1403 148.738 41.2457L149.189 40.3409Z" fill="white" stroke="white" stroke-width="2.75943" stroke-miterlimit="10" stroke-linejoin="round"/>
<path d="M25.4428 35.6284L25.0242 34.5752C26.934 33.8396 28.903 33.2679 30.9097 32.8662C32.9533 31.8929 35.0607 31.0592 37.2169 30.3707L37.618 31.4391C35.4568 32.1259 33.3458 32.9613 31.2999 33.9394C29.3023 34.3316 27.3425 34.8967 25.4428 35.6284Z" fill="white" stroke="white" stroke-width="2.75943" stroke-miterlimit="10" stroke-linejoin="round"/>
<path d="M31.3135 34.0052C33.3832 33.014 35.5206 32.1711 37.7096 31.4826L37.2407 30.2789C35.0611 30.9745 32.9314 31.8178 30.8664 32.8028C28.8568 33.2003 26.8858 33.772 24.9755 34.5115L24.9102 34.5073L25.3809 35.6839C27.3065 34.9548 29.2914 34.3931 31.3135 34.0052ZM30.929 32.9324C32.953 31.9674 35.0396 31.1396 37.1748 30.4548L37.5297 31.3946C35.3916 32.0761 33.3028 32.9038 31.2783 33.8719C29.3029 34.2622 27.3642 34.8194 25.483 35.5376L25.1164 34.6134C27.0029 33.8895 28.9473 33.3271 30.929 32.9324Z" fill="white" stroke="white" stroke-width="2.75943" stroke-miterlimit="10" stroke-linejoin="round"/>
<path d="M36.6334 37.1138C34.7974 35.8954 32.8668 34.8262 30.8599 33.9164L31.3678 32.8897C33.403 33.8235 35.3592 34.9199 37.2179 36.1684L36.6334 37.1138Z" fill="white" stroke="white" stroke-width="2.75943" stroke-miterlimit="10" stroke-linejoin="round"/>
<path d="M37.3143 36.1471C35.4173 34.8679 33.4182 33.7466 31.3375 32.7947L30.7667 33.9539C32.8173 34.8727 34.7874 35.9611 36.6568 37.2078L37.3143 36.1471ZM31.4022 32.979C33.3936 33.8948 35.3094 34.9667 37.1317 36.1845L36.6195 37.0198C34.8155 35.827 32.9201 34.7784 30.9512 33.8838L31.4022 32.979Z" fill="white" stroke="white" stroke-width="2.75943" stroke-miterlimit="10" stroke-linejoin="round"/>
<path d="M203.4 43.2588L203.198 42.152C204.144 41.985 205.104 41.8384 206.062 41.681C207.02 41.5235 207.995 41.4629 208.964 41.3536C211.035 40.6031 213.148 39.9729 215.292 39.4664L215.597 40.5669C214.489 40.807 213.406 41.1157 212.345 41.4328C211.284 41.7498 210.229 42.121 209.216 42.471C208.237 42.5431 207.261 42.6915 206.292 42.8008C205.323 42.9101 204.358 43.1068 203.4 43.2588Z" fill="white" stroke="white" stroke-width="2.75943" stroke-miterlimit="10" stroke-linejoin="round"/>
<path d="M209.227 42.5359C210.284 42.181 211.336 41.7826 212.399 41.4872L214.029 41.0182C214.561 40.8705 215.134 40.7512 215.695 40.6167L215.358 39.3825C213.191 39.893 211.055 40.5277 208.96 41.2832C207.985 41.3931 207.016 41.5024 206.058 41.6105C205.1 41.7186 204.14 41.909 203.194 42.076L203.123 42.0839L203.357 43.3295C204.32 43.1661 205.294 43.0015 206.275 42.8579C207.257 42.7143 208.233 42.6152 209.227 42.5359ZM208.975 41.4185C211.029 40.6794 213.122 40.0552 215.245 39.5489L215.513 40.5164C213.375 41.0169 211.269 41.6464 209.207 42.4012C208.234 42.478 207.274 42.6192 206.316 42.7273C205.357 42.8354 204.403 43.0306 203.455 43.1813L203.279 42.2034L206.106 41.7475C207.059 41.64 208.016 41.5158 208.975 41.4185Z" fill="white" stroke="white" stroke-width="2.75943" stroke-miterlimit="10" stroke-linejoin="round"/>
<path d="M214.136 46.1375C213.309 45.4578 212.439 44.8484 211.549 44.1977C210.659 43.5469 209.768 42.9896 208.795 42.3866L209.395 41.436C211.273 42.5914 213.077 43.8621 214.797 45.2406L214.136 46.1375Z" fill="white" stroke="white" stroke-width="2.75943" stroke-miterlimit="10" stroke-linejoin="round"/>
<path d="M214.891 45.2315C214.033 44.5223 213.142 43.8715 212.224 43.2184C211.306 42.5653 210.35 41.9658 209.376 41.3465L208.701 42.415C209.67 43.0295 210.61 43.6309 211.514 44.2636C212.419 44.8962 213.304 45.5475 214.15 46.2417L214.891 45.2315ZM209.418 41.5283C211.256 42.6619 213.023 43.9072 214.708 45.2575L214.128 46.0468C213.312 45.3767 212.461 44.7819 211.588 44.1401C210.715 43.4984 209.809 42.9534 208.887 42.3611L209.418 41.5283Z" fill="white" stroke="white" stroke-width="2.75943" stroke-miterlimit="10" stroke-linejoin="round"/>
<path d="M171.633 35.2334L171.242 34.1768C172.055 33.8303 172.919 33.5525 173.736 33.2444C174.553 32.9364 175.408 32.7181 176.292 32.4635C177.146 31.923 178.026 31.4823 178.927 30.9558C179.829 30.4293 180.744 30.0295 181.68 29.5652L182.16 30.6057C181.209 31.0417 180.288 31.5342 179.379 31.9948C178.471 32.4553 177.592 32.9724 176.732 33.518C175.002 33.9961 173.3 34.5687 171.633 35.2334Z" fill="white" fill-opacity="0.8" stroke="white" stroke-opacity="0.8" stroke-width="2.75943" stroke-miterlimit="10" stroke-linejoin="round"/>
<path d="M176.749 33.623C177.618 33.0944 178.512 32.5947 179.424 32.0798C180.336 31.5648 181.283 31.1069 182.243 30.6825L181.739 29.5199C180.791 30.0052 179.863 30.4317 178.953 30.914C178.043 31.3963 177.154 31.8909 176.295 32.4365C175.438 32.6983 174.572 32.916 173.739 33.223C172.906 33.53 172.065 33.7873 171.246 34.128L171.19 34.1519L171.627 35.3373C173.302 34.6741 175.012 34.1017 176.749 33.623ZM176.336 32.5702C177.178 32.0345 178.036 31.5869 178.943 31.0717C179.849 30.5564 180.748 30.1609 181.673 29.6959L182.073 30.6114C181.134 31.0481 180.218 31.5302 179.321 31.986C178.424 32.4418 177.555 32.9648 176.708 33.4948C175.005 33.9601 173.329 34.5181 171.687 35.1663L171.348 34.2329C172.971 33.5834 174.627 33.0222 176.309 32.552L176.336 32.5702Z" fill="white" fill-opacity="0.8" stroke="white" stroke-opacity="0.8" stroke-width="2.75943" stroke-miterlimit="10" stroke-linejoin="round"/>
<path d="M181.728 36.3717C179.98 35.3218 178.172 34.3748 176.313 33.5357L176.693 32.4681C177.658 32.912 178.595 33.3758 179.504 33.8379C180.414 34.3001 181.314 34.8273 182.181 35.3469C182.028 35.6974 181.875 36.0317 181.728 36.3717Z" fill="white" fill-opacity="0.8" stroke="white" stroke-opacity="0.8" stroke-width="2.75943" stroke-miterlimit="10" stroke-linejoin="round"/>
<path d="M182.255 35.3464C181.372 34.804 180.464 34.3148 179.525 33.8016C178.587 33.2884 177.637 32.8509 176.656 32.4005L176.232 33.5746C178.127 34.4273 179.97 35.3909 181.752 36.4608C181.918 36.0838 182.073 35.7115 182.255 35.3464ZM176.727 32.5743C177.665 33.0111 178.586 33.4686 179.474 33.9185C180.363 34.3684 181.246 34.8944 182.11 35.3973L181.715 36.2782C179.998 35.2544 178.225 34.3265 176.406 33.4983L176.727 32.5743Z" fill="white" fill-opacity="0.8" stroke="white" stroke-opacity="0.8" stroke-width="2.75943" stroke-miterlimit="10" stroke-linejoin="round"/>
<path d="M53.8448 27.8721L53.4538 26.8154C54.2676 26.4689 55.1316 26.1911 55.9484 25.8831C56.7652 25.575 57.6199 25.3567 58.5043 25.1021C59.3578 24.5616 60.2377 24.1209 61.1394 23.5944C62.0412 23.0679 62.9566 22.6681 63.8926 22.2039L64.372 23.2443C63.4215 23.6803 62.5 24.1729 61.5916 24.6334C60.6831 25.0939 59.8038 25.611 58.9445 26.1566C57.2145 26.6347 55.512 27.2073 53.8448 27.8721Z" fill="white" fill-opacity="0.8" stroke="white" stroke-opacity="0.8" stroke-width="2.75943" stroke-miterlimit="10" stroke-linejoin="round"/>
<path d="M58.9597 26.2613C59.8288 25.7328 60.7234 25.233 61.6353 24.7181C62.5472 24.2032 63.4937 23.7453 64.4544 23.3209L63.9501 22.1583C63.0019 22.6436 62.0738 23.0701 61.1639 23.5524C60.2541 24.0346 59.3653 24.5293 58.506 25.0748C57.6485 25.3366 56.7829 25.5543 55.9498 25.8614C55.1166 26.1684 54.2758 26.4257 53.4569 26.7664L53.4008 26.7902L53.8382 27.9757C55.5132 27.3124 57.2229 26.7401 58.9597 26.2613ZM58.5466 25.2086C59.3889 24.6728 60.2473 24.2253 61.1538 23.7101C62.0603 23.1948 62.9592 22.7992 63.8843 22.3343L64.2843 23.2497C63.3446 23.6864 62.4293 24.1686 61.5321 24.6244C60.6349 25.0802 59.7661 25.6032 58.9188 26.1332C57.2161 26.5985 55.5401 27.1564 53.8983 27.8047L53.5595 26.8713C55.1815 26.2217 56.8376 25.6606 58.5204 25.1904L58.5466 25.2086Z" fill="white" fill-opacity="0.8" stroke="white" stroke-opacity="0.8" stroke-width="2.75943" stroke-miterlimit="10" stroke-linejoin="round"/>
<path d="M63.9401 29.0102C62.192 27.9603 60.3841 27.0133 58.5256 26.1742L58.9051 25.1066C59.8703 25.5505 60.807 26.0142 61.7164 26.4764C62.6259 26.9386 63.5258 27.4658 64.3934 27.9854C64.2399 28.3359 64.0875 28.6702 63.9401 29.0102Z" fill="white" fill-opacity="0.8" stroke="white" stroke-opacity="0.8" stroke-width="2.75943" stroke-miterlimit="10" stroke-linejoin="round"/>
<path d="M64.467 27.9847C63.5845 27.4424 62.6767 26.9531 61.7378 26.4399C60.7988 25.9267 59.8495 25.4893 58.8683 25.0389L58.4439 26.213C60.3392 27.0657 62.1826 28.0293 63.9644 29.0991C64.1305 28.7221 64.2853 28.3498 64.467 27.9847ZM58.9391 25.2127C59.8775 25.6494 60.7982 26.107 61.6866 26.5569C62.575 27.0068 63.4586 27.5328 64.3218 28.0357L63.927 28.9165C62.2099 27.8928 60.4375 26.9648 58.6179 26.1367L58.9391 25.2127Z" fill="white" fill-opacity="0.8" stroke="white" stroke-opacity="0.8" stroke-width="2.75943" stroke-miterlimit="10" stroke-linejoin="round"/>
<path d="M233.759 35.4402L233.456 34.355C234.295 34.0766 235.179 33.8709 236.019 33.6311C236.858 33.3913 237.728 33.2441 238.63 33.0631C239.525 32.5946 240.438 32.2278 241.38 31.7773C242.322 31.3268 243.268 31.0037 244.239 30.6181L244.631 31.6944C243.648 32.0508 242.689 32.4658 241.746 32.85C240.802 33.2342 239.883 33.6772 238.982 34.1502C237.219 34.4843 235.475 34.9149 233.759 35.4402Z" fill="white" fill-opacity="0.8" stroke="white" stroke-opacity="0.8" stroke-width="2.75943" stroke-miterlimit="10" stroke-linejoin="round"/>
<path d="M238.988 34.2567C239.897 33.8014 240.83 33.377 241.781 32.9389C242.732 32.5008 243.713 32.1223 244.706 31.7783L244.299 30.5782C243.314 30.9839 242.354 31.3325 241.407 31.7383C240.461 32.1441 239.534 32.5639 238.633 33.0369C237.757 33.2272 236.876 33.373 236.021 33.6104C235.165 33.8479 234.306 34.0351 233.462 34.3072L233.404 34.3264L233.742 35.5438C235.466 35.0207 237.217 34.5909 238.988 34.2567ZM238.663 33.1735C239.546 32.7089 240.438 32.3335 241.384 31.8946C242.33 31.4557 243.258 31.1355 244.219 30.7482L244.542 31.6935C243.57 32.0514 242.618 32.4565 241.686 32.837C240.754 33.2174 239.845 33.6672 238.957 34.1256C237.222 34.4492 235.506 34.8674 233.816 35.3783L233.555 34.4202C235.226 33.9064 236.922 33.4833 238.638 33.1532L238.663 33.1735Z" fill="white" fill-opacity="0.8" stroke="white" stroke-opacity="0.8" stroke-width="2.75943" stroke-miterlimit="10" stroke-linejoin="round"/>
<path d="M243.725 37.4053C242.069 36.2152 240.345 35.1227 238.562 34.1335L239.028 33.1007C239.954 33.6225 240.849 34.1618 241.717 34.6972C242.586 35.2327 243.439 35.8321 244.261 36.4213C244.079 36.758 243.9 37.0786 243.725 37.4053Z" fill="white" fill-opacity="0.8" stroke="white" stroke-opacity="0.8" stroke-width="2.75943" stroke-miterlimit="10" stroke-linejoin="round"/>
<path d="M244.338 36.4271C243.503 35.814 242.638 35.2517 241.745 34.6629C240.851 34.0742 239.941 33.5602 239 33.0306L238.481 34.1657C240.299 35.1715 242.057 36.2835 243.745 37.4964C243.942 37.1343 244.127 36.776 244.338 36.4271ZM239.057 33.2096C239.956 33.7221 240.836 34.2538 241.684 34.7753C242.533 35.2968 243.37 35.8937 244.189 36.4659L243.723 37.3113C242.096 36.1497 240.406 35.0791 238.661 34.104L239.057 33.2096Z" fill="white" fill-opacity="0.8" stroke="white" stroke-opacity="0.8" stroke-width="2.75943" stroke-miterlimit="10" stroke-linejoin="round"/>
</g>
<defs>
<clipPath id="clip0_5_143548">
<rect width="246" height="246" fill="white"/>
</clipPath>
</defs>
</svg>
