<?xml version="1.0" encoding="utf-8"?>
<!-- Generator: Adobe Illustrator 25.4.1, SVG Export Plug-In . SVG Version: 6.00 Build 0)  -->
<svg version="1.1" id="Слой_1" xmlns="http://www.w3.org/2000/svg" xmlns:xlink="http://www.w3.org/1999/xlink" x="0px" y="0px"
	 viewBox="0 0 8091.6 233" style="enable-background:new 0 0 8091.6 233;" xml:space="preserve">
<style type="text/css">
	.st0{fill:#60C9EB;}
</style>
<path class="st0" d="M0.9,7.8v195.9h44.7V52.8h70.5v150.9h44.7V7.8H0.9z"/>
<path class="st0" d="M291,0.3c-57.3,0-104.1,46.5-104.1,104.1c0,57.3,46.8,103.8,104.1,103.8s104.1-46.5,104.1-103.8
	C395.1,46.8,348.3,0.3,291,0.3z M291,163.5c-31.2,0-56.4-28.2-56.4-59.1c0-31.2,25.2-59.4,56.4-59.4s56.4,28.2,56.4,59.4
	C347.4,135.3,322.2,163.5,291,163.5z"/>
<path class="st0" d="M546,60c0-29.1-25.2-59.4-67.5-59.4c-33,0-56.1,18.6-61.5,22.8c-3.6,3.3-15.3,12.3-15.3,12.3l27,37.8
	c0,0,7.2-6.6,14.1-11.7c6.9-4.8,16.8-15.3,35.7-15.3c15.9,0,21.9,7.5,22.5,13.5c0.6,5.7,0.6,16.5-26.4,20.1
	c-5.4,0.6-22.2,0.3-22.2,0.3v47.4c0,0,16.8-0.3,22.2,0.3c27,3.3,27.6,14.4,26.4,20.1c-1.2,5.7-6.6,13.8-22.5,13.8
	c-18.9,0-26.4-8.4-33-12.9c-4.5-3-17.7-13.5-17.7-13.5l-26.1,36.9c0,0,11.7,9,15.3,12.3c5.4,4.2,28.5,22.8,61.5,22.8
	c42.3,0,67.5-30.3,67.5-59.4c0-18-6-32.7-17.1-44.1C540,92.7,546,78,546,60z"/>
<path class="st0" d="M723.6,159.3V7.8H586.2v133.5c0,9.9-8.4,18-18.3,18c-1.5,0-6.6,0-6.6,0v69.6H606V204l95.1-0.3v25.2h44.7v-69.6
	H723.6z M678.9,159.3h-53.7c4.2-4.5,5.4-11.7,5.4-18V52.8h48.3V159.3z"/>
<path class="st0" d="M834.4,8.1c-15.6,0-62.4,0-62.4,0v196.2h45v-49.2c0,0,12.9,0,17.4,0c40.5,0,73.5-32.7,73.5-73.5
	C907.9,41.1,874.9,8.1,834.4,8.1z M834.4,110.4c-4.5,0-17.4,0-17.4,0V52.8c0,0,12.9,0,17.4,0c15.9,0,31.5,12.9,31.5,28.8
	S850.3,110.4,834.4,110.4z"/>
<path class="st0" d="M1022.2,6.6h-45l-67.8,186.6l42.3,15.3l14.7-40.2h66.9l14.7,40.2l42-15.3L1022.2,6.6z M982.6,123.3l17.1-47.1
	l17.1,47.1H982.6z"/>
<path class="st0" d="M1259,68.1c0-33.3-27-60.3-60.3-60.3c-20.4,0-82.2,0-82.2,0V204c0,0,61.8,0,82.2,0c33.3,0,60.3-27,60.3-60
	c0-14.4-5.1-27.6-13.5-38.1C1253.9,95.7,1259,82.5,1259,68.1z M1198.7,159.3c-9.3,0-37.2,0-37.2,0v-31.2c0,0,27.9,0,37.2,0
	c8.4,0,15.3,7.5,15.3,15.9S1207.1,159.3,1198.7,159.3z M1198.7,83.4c-9.3,0-37.2,0-37.2,0V52.8c0,0,27.9,0,37.2,0
	c8.4,0,15.3,6.9,15.3,15.3S1207.1,83.4,1198.7,83.4z"/>
<path class="st0" d="M1299,7.8c0,0,0,99.9,0,133.5c0,9.9-8.4,18-18.3,18c-1.5,0-6.6,0-6.6,0V204c0,0,5.1,0,6.6,0
	c34.8,0,62.7-28.2,62.7-62.7c0-22.2,0-88.5,0-88.5h48.3v150.9h44.7V7.8H1299z"/>
<path class="st0" d="M1539.3,7.8c-40.5,0-73.5,33-73.5,73.5c0,21.3,9,40.5,23.4,54l-26.7,46.2l39,22.5l28.5-49.5
	c3,0.3,6.3,0.6,9.3,0.6c4.5,0,17.4,0,17.4,0V204h45V7.8C1601.7,7.8,1554.9,7.8,1539.3,7.8z M1556.7,110.1c0,0-12.9,0-17.4,0
	c-15.9,0-28.5-12.9-28.5-28.8c0-15.6,12.6-28.5,28.5-28.5c4.5,0,17.4,0,17.4,0V110.1z"/>
<path class="st0" d="M1739.4,52.8v-45h-111.6V204h111.6v-44.7h-66.6v-31.8h54.3V84.3h-54.3V52.8H1739.4z"/>
<path class="st0" d="M1964.3,8.1h-41.4L1877,134.4L1831.1,8.1h-41.7l-33.3,193.5l44.4,7.8l18-104.7l36,99h44.7l36.3-99l18,104.7
	l44.1-7.8L1964.3,8.1z"/>
<path class="st0" d="M2028.3,155.7v27.6l-14.1,26.4l40.5,22.8l18.6-33v-43.8H2028.3z"/>
<path class="st0" d="M2341,68.1c0-33.3-27-60.3-60.3-60.3c-20.4,0-82.2,0-82.2,0V204c0,0,61.8,0,82.2,0c33.3,0,60.3-27,60.3-60
	c0-14.4-5.1-27.6-13.5-38.1C2335.9,95.7,2341,82.5,2341,68.1z M2280.7,159.3c-9.3,0-37.2,0-37.2,0v-31.2c0,0,27.9,0,37.2,0
	c8.4,0,15.3,7.5,15.3,15.9S2289.1,159.3,2280.7,159.3z M2280.7,83.4c-9.3,0-37.2,0-37.2,0V52.8c0,0,27.9,0,37.2,0
	c8.4,0,15.3,6.9,15.3,15.3S2289.1,83.4,2280.7,83.4z"/>
<path class="st0" d="M2570.9,204V7.8h-45V204H2570.9z M2449.7,83.4h-37.2V7.8h-45V204c0,0,61.8,0,82.2,0c33.3,0,60.3-27,60.3-60
	C2510,110.7,2483,83.4,2449.7,83.4z M2449.7,159.3c-9.3,0-37.2,0-37.2,0v-31.2c0,0,27.9,0,37.2,0c8.4,0,15.3,7.5,15.3,15.9
	S2458.1,159.3,2449.7,159.3z"/>
<path class="st0" d="M2798.8,163.8c-30.9-0.6-56.1-29.1-55.5-60.3c0.3-30.9,26.1-58.8,57.3-58.2c16.2,0,30.9,10.2,41.1,21.6
	l34.2-33.3c-18.6-20.1-45.3-32.7-74.7-33.3c-57.3-0.6-104.7,45.3-105.6,102.6c-0.6,57.3,45.3,104.7,102.6,105.6
	c29.4,0.3,56.1-11.4,75.6-30.9l-33.3-34.2C2830,154.5,2815.3,164.1,2798.8,163.8z"/>
<path class="st0" d="M3094.3,8.1h-41.4L3007,134.4L2961.1,8.1h-41.7l-33.3,193.5l44.4,7.8l18-104.7l36,99h44.7l36.3-99l18,104.7
	l44.1-7.8L3094.3,8.1z"/>
<path class="st0" d="M3239.8,0.3c-57.3,0-104.1,46.5-104.1,104.1c0,57.3,46.8,103.8,104.1,103.8s104.1-46.5,104.1-103.8
	C3343.9,46.8,3297.1,0.3,3239.8,0.3z M3239.8,163.5c-31.2,0-56.4-28.2-56.4-59.1c0-31.2,25.2-59.4,56.4-59.4s56.4,28.2,56.4,59.4
	C3296.2,135.3,3271,163.5,3239.8,163.5z"/>
<path class="st0" d="M3370,7.8V204h45V52.8h73.8v-45H3370z"/>
<path class="st0" d="M3513,7.8c0,0,0,99.9,0,133.5c0,9.9-8.4,18-18.3,18c-1.5,0-6.6,0-6.6,0V204c0,0,5.1,0,6.6,0
	c34.8,0,62.7-28.2,62.7-62.7c0-22.2,0-88.5,0-88.5h48.3v150.9h44.7V7.8H3513z"/>
<path class="st0" d="M3783.3,7.8l-61.8,106.8V7.8h-45V204h45l61.8-106.5V204h44.7V7.8H3783.3z"/>
<path class="st0" d="M3952.8,7.8v195.9h44.7V52.8h70.5v150.9h44.7V7.8H3952.8z"/>
<path class="st0" d="M4201.2,8.1c-15.6,0-62.4,0-62.4,0v196.2h45v-49.2c0,0,12.9,0,17.4,0c40.5,0,73.5-32.7,73.5-73.5
	C4274.7,41.1,4241.7,8.1,4201.2,8.1z M4201.2,110.4c-4.5,0-17.4,0-17.4,0V52.8c0,0,12.9,0,17.4,0c15.9,0,31.5,12.9,31.5,28.8
	S4217.1,110.4,4201.2,110.4z"/>
<path class="st0" d="M4394.9,0.3c-57.3,0-104.1,46.5-104.1,104.1c0,57.3,46.8,103.8,104.1,103.8c57.3,0,104.1-46.5,104.1-103.8
	C4499,46.8,4452.2,0.3,4394.9,0.3z M4394.9,163.5c-31.2,0-56.4-28.2-56.4-59.1c0-31.2,25.2-59.4,56.4-59.4
	c31.2,0,56.4,28.2,56.4,59.4C4451.3,135.3,4426.1,163.5,4394.9,163.5z"/>
<path class="st0" d="M4628.4,163.8c-30.9-0.6-56.1-29.1-55.5-60.3c0.3-30.9,26.1-58.8,57.3-58.2c16.2,0,30.9,10.2,41.1,21.6
	l34.2-33.3c-18.6-20.1-45.3-32.7-74.7-33.3c-57.3-0.6-104.7,45.3-105.6,102.6c-0.6,57.3,45.3,104.7,102.6,105.6
	c29.4,0.3,56.1-11.4,75.6-30.9l-33.3-34.2C4659.6,154.5,4644.9,164.1,4628.4,163.8z"/>
<path class="st0" d="M4923.9,8.1h-41.4l-45.9,126.3L4790.6,8.1H4749l-33.3,193.5l44.4,7.8l18-104.7l36,99h44.7l36.3-99l18,104.7
	l44.1-7.8L4923.9,8.1z"/>
<path class="st0" d="M5069.4,0.3c-57.3,0-104.1,46.5-104.1,104.1c0,57.3,46.8,103.8,104.1,103.8c57.3,0,104.1-46.5,104.1-103.8
	C5173.5,46.8,5126.7,0.3,5069.4,0.3z M5069.4,163.5c-31.2,0-56.4-28.2-56.4-59.1c0-31.2,25.2-59.4,56.4-59.4
	c31.2,0,56.4,28.2,56.4,59.4C5125.8,135.3,5100.6,163.5,5069.4,163.5z"/>
<path class="st0" d="M5177.1,7.8v42.3h54.6V204h45V50.1h54.6V7.8H5177.1z"/>
<path class="st0" d="M5419.6,8.1c-15.6,0-62.4,0-62.4,0v196.2h45v-49.2c0,0,12.9,0,17.4,0c40.5,0,73.5-32.7,73.5-73.5
	C5493.1,41.1,5460.1,8.1,5419.6,8.1z M5419.6,110.4c-4.5,0-17.4,0-17.4,0V52.8c0,0,12.9,0,17.4,0c15.9,0,31.5,12.9,31.5,28.8
	S5435.5,110.4,5419.6,110.4z"/>
<path class="st0" d="M5630.9,52.8v-45h-111.6V204h111.6v-44.7h-66.6v-31.8h54.3V84.3h-54.3V52.8H5630.9z"/>
<path class="st0" d="M5647.9,7.8v42.3h54.6V204h45V50.1h54.6V7.8H5647.9z"/>
<path class="st0" d="M5910.2,83.4c-9.3,0-37.2,0-37.2,0V7.8h-45V204c0,0,61.8,0,82.2,0c33.3,0,60.3-27,60.3-60
	C5970.5,110.7,5943.5,83.4,5910.2,83.4z M5910.2,159.3c-9.3,0-37.2,0-37.2,0v-31.2c0,0,27.9,0,37.2,0c8.4,0,15.3,7.5,15.3,15.9
	S5918.6,159.3,5910.2,159.3z"/>
<path class="st0" d="M6238.3,68.1c0-33.3-27-60.3-60.3-60.3c-20.4,0-82.2,0-82.2,0V204c0,0,61.8,0,82.2,0c33.3,0,60.3-27,60.3-60
	c0-14.4-5.1-27.6-13.5-38.1C6233.2,95.7,6238.3,82.5,6238.3,68.1z M6178,159.3c-9.3,0-37.2,0-37.2,0v-31.2c0,0,27.9,0,37.2,0
	c8.4,0,15.3,7.5,15.3,15.9S6186.4,159.3,6178,159.3z M6178,83.4c-9.3,0-37.2,0-37.2,0V52.8c0,0,27.9,0,37.2,0
	c8.4,0,15.3,6.9,15.3,15.3S6186.4,83.4,6178,83.4z"/>
<path class="st0" d="M6359,163.8c-30.9-0.6-56.1-29.1-55.5-60.3c0.3-30.9,26.1-58.8,57.3-58.2c16.2,0,30.9,10.2,41.1,21.6l34.2-33.3
	c-18.6-20.1-45.3-32.7-74.7-33.3c-57.3-0.6-104.7,45.3-105.6,102.6c-0.6,57.3,45.3,104.7,102.6,105.6c29.4,0.3,56.1-11.4,75.6-30.9
	l-33.3-34.2C6390.2,154.5,6375.5,164.1,6359,163.8z"/>
<path class="st0" d="M6626.7,3c-50.1,0-92.1,35.7-102,82.8h-27.3V9h-45v195.9h45v-76.8h27.3c9.6,47.4,51.6,83.1,102,83.1
	c57.3,0,104.1-46.8,104.1-104.1C6730.8,49.8,6684,3,6626.7,3z M6626.7,163.5c-31.2,0-56.7-25.2-56.7-56.4
	c0-31.2,25.5-56.4,56.7-56.4c31.2,0,56.4,25.2,56.4,56.4C6683.1,138.3,6657.9,163.5,6626.7,163.5z"/>
<path class="st0" d="M6855.5,7.8V204h45V52.8h73.8v-45H6855.5z"/>
<path class="st0" d="M7083.4,6.6h-45l-67.8,186.6l42.3,15.3l14.7-40.2h66.9l14.7,40.2l42-15.3L7083.4,6.6z M7043.8,123.3l17.1-47.1
	l17.1,47.1H7043.8z"/>
<path class="st0" d="M7193,7.8c0,0,0,99.9,0,133.5c0,9.9-8.4,18-18.3,18c-1.5,0-6.6,0-6.6,0V204c0,0,5.1,0,6.6,0
	c34.8,0,62.7-28.2,62.7-62.7c0-22.2,0-88.5,0-88.5h48.3v150.9h44.7V7.8H7193z"/>
<path class="st0" d="M7468.1,52.8v-45h-111.6V204h111.6v-44.7h-66.6v-31.8h54.3V84.3h-54.3V52.8H7468.1z"/>
<path class="st0" d="M7556.6,8.1c-15.6,0-62.4,0-62.4,0v196.2h45v-49.2c0,0,12.9,0,17.4,0c40.5,0,73.5-32.7,73.5-73.5
	C7630.1,41.1,7597.1,8.1,7556.6,8.1z M7556.6,110.4c-4.5,0-17.4,0-17.4,0V52.8c0,0,12.9,0,17.4,0c15.9,0,31.5,12.9,31.5,28.8
	S7572.5,110.4,7556.6,110.4z"/>
<path class="st0" d="M7767.8,52.8v-45h-111.6V204h111.6v-44.7h-66.6v-31.8h54.3V84.3h-54.3V52.8H7767.8z"/>
<path class="st0" d="M7965.8,3c-50.1,0-92.1,35.7-102,82.8h-27.3V9h-45v195.9h45v-76.8h27.3c9.6,47.4,51.6,83.1,102,83.1
	c57.3,0,104.1-46.8,104.1-104.1C8069.9,49.8,8023.1,3,7965.8,3z M7965.8,163.5c-31.2,0-56.7-25.2-56.7-56.4
	c0-31.2,25.5-56.4,56.7-56.4c31.2,0,56.4,25.2,56.4,56.4C8022.2,138.3,7997,163.5,7965.8,163.5z"/>
</svg>
